<svg version="1.1" id="Layer_1" xmlns="http://www.w3.org/2000/svg" xmlns:xlink="http://www.w3.org/1999/xlink" x="0px" y="0px"
	 width="100%" viewBox="0 0 64 64" enable-background="new 0 0 64 64" xml:space="preserve">
<path fill="#F97501" opacity="1.000000" stroke="none" 
	d="
M0.999999,51.000000 
	C1.000000,49.285603 1.000000,47.571209 1.354948,45.470047 
	C5.144722,46.384357 8.579550,47.685440 12.007345,48.992069 
	C12.000315,48.997616 12.008448,48.985531 12.106616,49.194977 
	C12.382136,49.668339 12.618596,49.858898 13.075888,50.279221 
	C18.500729,55.596012 24.378237,59.254551 31.999979,59.443623 
	C32.672401,61.534866 33.336201,63.267433 34.000000,65.000000 
	C29.975075,65.000000 25.950151,65.000000 21.421200,64.653656 
	C14.278116,59.871544 7.639057,55.435772 0.999999,51.000000 
z"/>
<path fill="#F58301" opacity="1.000000" stroke="none" 
	d="
M65.000000,60.000000 
	C65.000000,61.630699 65.000000,63.261398 65.000000,65.000000 
	C59.981129,65.000000 54.961765,65.000000 49.431599,64.654831 
	C46.945023,61.890110 44.969250,59.470551 43.291382,56.901222 
	C45.378120,55.494804 47.166954,54.238155 49.347862,52.987518 
	C51.801601,53.806080 53.910355,54.517906 55.913979,55.454601 
	C58.980721,56.888309 61.974976,58.477058 65.000000,60.000000 
z"/>
<path fill="#FB6F01" opacity="1.000000" stroke="none" 
	d="
M0.999999,51.474129 
	C7.639057,55.435772 14.278116,59.871544 20.958588,64.653656 
	C14.422539,65.000000 7.845078,65.000000 1.000000,65.000000 
	C1.000000,60.653015 1.000000,56.300636 0.999999,51.474129 
z"/>
<path fill="#F28C01" opacity="1.000000" stroke="none" 
	d="
M65.000000,59.539364 
	C61.974976,58.477058 58.980721,56.888309 55.913979,55.454601 
	C53.910355,54.517906 51.801601,53.806080 49.367302,52.744194 
	C48.994663,52.494854 49.020737,52.007076 49.296402,51.872681 
	C50.385902,50.835041 51.199741,49.931805 52.306442,48.877655 
	C53.410778,47.489506 54.222252,46.252274 55.250416,44.901360 
	C55.731785,44.581501 55.924549,44.321907 56.411087,44.012299 
	C59.517849,45.343796 62.258923,46.671898 65.000000,48.000000 
	C65.000000,51.692909 65.000000,55.385818 65.000000,59.539364 
z"/>
<path fill="#EBA502" opacity="1.000000" stroke="none" 
	d="
M65.000000,16.000000 
	C65.000000,18.700630 65.000000,21.401258 64.645782,24.511990 
	C61.160847,23.289740 58.030125,21.657389 54.604073,19.853298 
	C53.314266,19.152508 52.319798,18.623455 51.247478,17.837267 
	C50.649998,17.074406 50.130371,16.568678 49.622047,15.836915 
	C49.547321,15.297005 49.353001,15.080302 48.983765,14.630754 
	C48.218624,13.838737 47.520111,13.376737 46.891144,12.576687 
	C47.316158,11.155828 47.671627,10.073020 48.052544,8.955555 
	C48.077991,8.920898 48.142471,8.864009 48.532234,8.904562 
	C50.817081,9.665233 52.751835,10.296832 54.598724,11.124498 
	C58.092472,12.690187 61.535751,14.368490 65.000000,16.000000 
M53.281799,14.566159 
	C53.496292,14.540838 53.710785,14.515518 53.925278,14.490198 
	C53.780880,14.443671 53.636482,14.397145 53.281799,14.566159 
M51.617817,14.944366 
	C51.721680,14.855815 51.825542,14.767264 51.929405,14.678714 
	C51.840874,14.575553 51.758099,14.397571 51.662197,14.390192 
	C51.565586,14.382759 51.455936,14.544832 51.617817,14.944366 
z"/>
<path fill="#F09701" opacity="1.000000" stroke="none" 
	d="
M1.000000,5.000000 
	C1.000000,3.729262 1.000000,2.458525 1.000000,1.000000 
	C3.000756,1.000000 5.003907,1.000000 7.560967,1.341360 
	C9.558551,2.700758 11.170258,3.548769 12.409598,4.773567 
	C14.719972,7.056832 16.813766,9.559245 18.727436,12.105511 
	C17.651302,12.829795 16.845432,13.419022 15.762535,13.813307 
	C10.657007,10.745577 5.828504,7.872788 1.000000,5.000000 
z"/>
<path fill="#EE9B01" opacity="1.000000" stroke="none" 
	d="
M18.997698,11.970452 
	C16.813766,9.559245 14.719972,7.056832 12.409598,4.773567 
	C11.170258,3.548769 9.558551,2.700758 8.057438,1.341360 
	C12.024545,1.000000 16.049089,1.000000 20.576378,1.345280 
	C23.051126,4.114572 25.023129,6.538584 26.628187,9.017015 
	C23.840061,10.037774 21.418880,11.004113 18.997698,11.970452 
z"/>
<path fill="#ED9F01" opacity="1.000000" stroke="none" 
	d="
M54.899406,20.025036 
	C58.030125,21.657389 61.160847,23.289740 64.645782,24.961046 
	C65.000000,28.361288 65.000000,31.722574 64.636581,35.496620 
	C62.196674,35.275631 60.120174,34.641888 58.026909,33.592098 
	C56.973232,28.792381 55.936321,24.408709 54.899406,20.025036 
z"/>
<path fill="#F09601" opacity="1.000000" stroke="none" 
	d="
M58.043678,34.008141 
	C60.120174,34.641888 62.196674,35.275631 64.636581,35.954689 
	C65.000000,39.692909 65.000000,43.385818 65.000000,47.539364 
	C62.258923,46.671898 59.517849,45.343796 56.399559,43.615929 
	C56.696121,40.146824 57.369900,37.077480 58.043678,34.008141 
z"/>
<path fill="#F19101" opacity="1.000000" stroke="none" 
	d="
M1.000000,5.437500 
	C5.828504,7.872788 10.657007,10.745577 15.609207,14.104718 
	C14.188824,15.776446 12.644742,16.961823 10.937614,17.836302 
	C7.516379,15.683602 4.258190,13.841801 1.000000,12.000000 
	C1.000000,9.958333 1.000000,7.916667 1.000000,5.437500 
z"/>
<path fill="#F77B01" opacity="1.000000" stroke="none" 
	d="
M42.993477,57.050987 
	C44.969250,59.470551 46.945023,61.890110 48.960400,64.654831 
	C44.310745,65.000000 39.621487,65.000000 34.466118,65.000000 
	C33.336201,63.267433 32.672401,61.534866 32.430229,59.411156 
	C36.232391,58.363667 39.612934,57.707329 42.993477,57.050987 
z"/>
<path fill="#EBAA01" opacity="1.000000" stroke="none" 
	d="
M65.000000,15.625000 
	C61.535751,14.368490 58.092472,12.690187 54.598724,11.124498 
	C52.751835,10.296832 50.817081,9.665233 48.487907,8.530675 
	C47.156654,6.937240 46.376724,5.639489 45.332920,4.609025 
	C44.000019,3.293167 42.454105,2.193083 41.000000,1.000000 
	C43.041668,1.000000 45.083332,1.000000 47.603085,1.349100 
	C53.720779,5.465467 59.360390,9.232733 65.000000,13.000000 
	C65.000000,13.750000 65.000000,14.500000 65.000000,15.625000 
z"/>
<path fill="#F38C01" opacity="1.000000" stroke="none" 
	d="
M1.000000,12.449980 
	C4.258190,13.841801 7.516379,15.683602 10.872936,18.182072 
	C9.658182,21.244934 8.345060,23.651127 6.985142,25.709103 
	C4.958896,23.907259 2.979448,22.453630 1.000000,21.000000 
	C1.000000,18.299986 1.000000,15.599973 1.000000,12.449980 
z"/>
<path fill="#EDA101" opacity="1.000000" stroke="none" 
	d="
M26.995131,8.962596 
	C25.023129,6.538584 23.051126,4.114572 21.039562,1.345280 
	C24.692909,1.000000 28.385818,1.000000 32.543774,1.355065 
	C34.021206,3.148971 35.033592,4.587812 36.012943,6.377247 
	C36.029099,7.195685 36.078293,7.663530 36.080330,8.356869 
	C36.033180,8.582361 35.931686,9.031783 35.486046,9.022260 
	C32.358646,8.996022 29.676889,8.979309 26.995131,8.962596 
z"/>
<path fill="#EBA502" opacity="1.000000" stroke="none" 
	d="
M36.045979,6.026653 
	C35.033592,4.587812 34.021206,3.148971 33.004410,1.355065 
	C35.370556,1.000000 37.741116,1.000000 40.555836,1.000000 
	C42.454105,2.193083 44.000019,3.293167 45.332920,4.609025 
	C46.376724,5.639489 47.156654,6.937240 48.098148,8.490122 
	C48.142471,8.864009 48.077991,8.920898 47.886948,8.701376 
	C44.889484,5.303143 45.449669,10.132127 43.562111,10.040926 
	C42.141327,10.026558 41.106682,10.028708 40.047234,9.691738 
	C39.705349,8.557540 39.388268,7.762464 38.954601,6.739542 
	C38.215248,6.310767 37.592480,6.109838 36.737823,5.930866 
	C36.505936,5.952824 36.045979,6.026653 36.045979,6.026653 
z"/>
<path fill="#F58301" opacity="1.000000" stroke="none" 
	d="
M1.000000,21.460636 
	C2.979448,22.453630 4.958896,23.907259 6.977231,26.147474 
	C6.984181,29.292765 6.952245,31.651472 6.538589,34.006477 
	C4.437912,33.668514 2.718956,33.334255 1.000000,33.000000 
	C1.000000,29.307091 1.000000,25.614182 1.000000,21.460636 
z"/>
<path fill="#ECAD01" opacity="1.000000" stroke="none" 
	d="
M65.000000,12.600004 
	C59.360390,9.232733 53.720779,5.465467 48.040585,1.349100 
	C49.714359,1.000000 51.428715,1.000000 53.611649,1.347761 
	C57.720150,4.130348 61.360073,6.565174 65.000000,9.000000 
	C65.000000,10.066669 65.000000,11.133339 65.000000,12.600004 
z"/>
<path fill="#EFB301" opacity="1.000000" stroke="none" 
	d="
M65.000000,8.505266 
	C61.360073,6.565174 57.720150,4.130348 54.040112,1.347761 
	C57.569653,1.000000 61.139309,1.000000 65.000000,1.000000 
	C65.000000,3.332827 65.000000,5.671680 65.000000,8.505266 
z"/>
<path fill="#F77B01" opacity="1.000000" stroke="none" 
	d="
M1.000000,33.444164 
	C2.718956,33.334255 4.437912,33.668514 6.570990,34.337540 
	C7.017581,35.114658 7.050050,35.557011 7.053798,36.397018 
	C7.366826,38.856304 7.708574,40.917934 7.674917,42.979469 
	C5.199675,42.319580 3.099838,41.659790 1.000000,41.000000 
	C1.000000,38.629444 1.000000,36.258884 1.000000,33.444164 
z"/>
<path fill="#F97700" opacity="1.000000" stroke="none" 
	d="
M1.000000,41.399994 
	C3.099838,41.659790 5.199675,42.319580 7.896420,42.992249 
	C8.493327,43.005127 8.937526,43.024097 8.956989,43.378067 
	C9.989094,45.483528 11.001735,47.235027 12.014376,48.986523 
	C8.579550,47.685440 5.144722,46.384357 1.354948,45.041641 
	C1.000000,43.933331 1.000000,42.866661 1.000000,41.399994 
z"/>
<path fill="#FDC302" opacity="1.000000" stroke="none" 
	d="
M12.007345,48.992069 
	C11.001735,47.235027 9.989094,45.483528 9.301353,43.369785 
	C10.084274,43.004974 10.542294,43.002411 11.294227,43.153145 
	C12.754840,44.178528 13.921539,45.050613 15.063755,45.937691 
	C15.039273,45.952682 15.047201,45.896137 15.118662,46.115665 
	C15.334366,46.620319 15.549562,46.833984 15.912102,47.344921 
	C18.791033,51.679321 29.462379,55.350521 34.205734,54.183365 
	C36.310501,54.649780 38.154282,54.823856 40.402893,54.998543 
	C42.942017,55.030548 45.249886,55.304825 45.000755,52.001053 
	C45.000000,52.000000 45.001774,52.001446 45.403358,52.001381 
	C46.876873,52.003235 47.948803,52.005157 49.020737,52.007076 
	C49.020737,52.007076 48.994663,52.494854 48.975227,52.738182 
	C47.166954,54.238155 45.378120,55.494804 43.291382,56.901222 
	C39.612934,57.707329 36.232391,58.363667 32.421604,59.052475 
	C24.378237,59.254551 18.500729,55.596012 12.999067,50.057083 
	C12.575434,49.259460 12.324741,49.077366 12.008448,48.985531 
	C12.008448,48.985531 12.000315,48.997616 12.007345,48.992069 
z"/>
<path fill="#F97700" opacity="1.000000" stroke="none" 
	d="
M12.106616,49.194977 
	C12.324741,49.077366 12.575434,49.259460 12.837345,49.753963 
	C12.618596,49.858898 12.382136,49.668339 12.106616,49.194977 
z"/>
<path fill="#FEC902" opacity="1.000000" stroke="none" 
	d="
M58.026909,33.592098 
	C57.369900,37.077480 56.696121,40.146824 56.033871,43.612534 
	C55.924549,44.321907 55.731785,44.581501 54.870407,44.895966 
	C53.515240,45.002598 52.756771,45.000946 52.048183,44.606972 
	C54.353821,36.517445 55.780319,28.901272 50.898605,21.523104 
	C50.415966,20.793652 51.153908,19.256609 51.325329,18.094402 
	C52.319798,18.623455 53.314266,19.152508 54.604073,19.853298 
	C55.936321,24.408709 56.973232,28.792381 58.026909,33.592098 
z"/>
<path fill="#FEC902" opacity="1.000000" stroke="none" 
	d="
M49.296402,51.872681 
	C47.948803,52.005157 46.876873,52.003235 45.512592,51.743507 
	C45.480213,50.990673 45.740181,50.495644 46.296722,49.852043 
	C48.393112,48.465546 50.192924,47.227623 51.994904,46.369270 
	C52.002571,47.508751 52.008076,48.268658 52.013580,49.028564 
	C51.199741,49.931805 50.385902,50.835041 49.296402,51.872681 
z"/>
<path fill="#FDC302" opacity="1.000000" stroke="none" 
	d="
M52.306442,48.877651 
	C52.008076,48.268658 52.002571,47.508751 51.996216,46.121731 
	C51.995358,45.494617 51.998306,44.999294 51.998306,44.999294 
	C52.756771,45.000946 53.515240,45.002598 54.653717,45.009644 
	C54.222252,46.252274 53.410778,47.489506 52.306442,48.877651 
z"/>
<path fill="#FED902" opacity="1.000000" stroke="none" 
	d="
M52.048183,44.606972 
	C51.998306,44.999294 51.995358,45.494617 51.994049,45.742157 
	C50.192924,47.227623 48.393112,48.465546 45.923809,49.858246 
	C43.489075,49.977657 41.723827,49.942291 39.961235,49.689026 
	C39.963886,49.471123 39.912136,49.037273 40.036270,48.813248 
	C40.431625,48.390175 40.702843,48.191128 41.348671,47.988640 
	C43.165443,46.339325 44.607609,44.693459 46.410278,42.985912 
	C51.952705,39.079002 52.623913,29.306396 48.001518,24.635990 
	C47.696762,23.168392 47.392471,22.063135 47.076355,20.632828 
	C47.029549,19.875513 46.994556,19.443247 46.981770,18.760120 
	C47.007648,18.341404 47.011326,18.173550 47.344986,17.980659 
	C48.225147,17.337465 48.775318,16.719311 49.401264,16.124931 
	C49.477043,16.148705 49.610744,16.062950 49.610744,16.062950 
	C50.130371,16.568678 50.649998,17.074406 51.247478,17.837267 
	C51.153908,19.256609 50.415966,20.793652 50.898605,21.523104 
	C55.780319,28.901272 54.353821,36.517445 52.048183,44.606972 
z"/>
<path fill="#D21F22" opacity="1.000000" stroke="none" 
	d="
M43.948250,10.057446 
	C45.449669,10.132127 44.889484,5.303143 47.861500,8.736032 
	C47.671627,10.073020 47.316158,11.155828 46.526474,12.758440 
	C45.376392,13.663779 44.660522,14.049317 43.789673,13.898989 
	C43.739208,12.261229 43.843727,11.159337 43.948250,10.057446 
z"/>
<path fill="#FEBA04" opacity="1.000000" stroke="none" 
	d="
M43.944656,14.434856 
	C44.660522,14.049317 45.376392,13.663779 46.456928,13.096489 
	C47.520111,13.376737 48.218624,13.838737 48.967163,14.643263 
	C49.017185,14.985786 48.988224,15.012684 48.568832,15.008116 
	C46.765831,14.875461 45.382225,14.747373 43.979317,14.591675 
	C43.960011,14.564066 43.944656,14.434856 43.944656,14.434856 
z"/>
<path fill="#7E2F00" opacity="1.000000" stroke="none" 
	d="
M53.386940,14.458389 
	C53.636482,14.397145 53.780880,14.443671 53.925278,14.490198 
	C53.710785,14.515518 53.496292,14.540838 53.386940,14.458389 
z"/>
<path fill="#AA1E27" opacity="1.000000" stroke="none" 
	d="
M51.484909,14.788500 
	C51.455936,14.544832 51.565586,14.382759 51.662197,14.390192 
	C51.758099,14.397571 51.840874,14.575553 51.929405,14.678714 
	C51.825542,14.767264 51.721680,14.855815 51.484909,14.788500 
z"/>
<path fill="#FEBA04" opacity="1.000000" stroke="none" 
	d="
M49.622047,15.836914 
	C49.610744,16.062950 49.477043,16.148705 49.287262,15.862143 
	C49.061058,15.387948 49.024643,15.200316 48.988224,15.012684 
	C48.988224,15.012684 49.017185,14.985786 49.033791,14.973278 
	C49.353001,15.080302 49.547321,15.297005 49.622047,15.836914 
z"/>
<path fill="#FEC801" opacity="1.000000" stroke="none" 
	d="
M15.088238,45.922695 
	C13.921539,45.050613 12.754840,44.178528 11.148647,42.823700 
	C9.500276,40.227089 8.291397,38.113228 7.082519,35.999363 
	C7.050050,35.557011 7.017581,35.114658 6.952711,34.341240 
	C6.952245,31.651472 6.984181,29.292765 7.024029,26.495689 
	C8.345060,23.651127 9.658182,21.244934 11.035982,18.492970 
	C12.644742,16.961823 14.188824,15.776446 15.886232,14.299660 
	C16.845432,13.419022 17.651302,12.829795 18.727436,12.105511 
	C21.418880,11.004113 23.840061,10.037774 26.628187,9.017015 
	C29.676889,8.979309 32.358646,8.996022 35.677361,9.312414 
	C36.506985,10.729573 36.699654,11.847054 36.576942,13.013823 
	C35.223579,14.055924 34.185596,15.048740 32.873535,15.953396 
	C32.100277,15.609051 31.601095,15.352867 30.927782,14.852789 
	C30.195566,14.464692 29.637478,14.320490 28.836838,13.880850 
	C26.695105,13.687600 24.656319,13.377782 22.921680,13.965561 
	C16.499500,16.141703 10.840541,24.505865 11.102426,31.771011 
	C11.205549,34.631866 8.961255,38.730755 14.021656,40.326088 
	C14.368914,41.427299 14.686788,42.211155 15.004469,43.361443 
	C15.032264,44.459480 15.060251,45.191090 15.088238,45.922695 
z"/>
<path fill="#C51F24" opacity="1.000000" stroke="none" 
	d="
M36.892323,12.964536 
	C36.699654,11.847054 36.506985,10.729573 36.123001,9.321938 
	C35.931686,9.031783 36.033180,8.582361 36.314423,8.145897 
	C36.720345,7.109257 36.845028,6.509083 36.969711,5.908908 
	C37.592480,6.109838 38.215248,6.310767 38.923893,7.164139 
	C39.083015,8.944847 39.156261,10.073113 39.165665,11.579901 
	C38.402050,12.373794 37.702282,12.789163 37.012268,13.127407 
	C37.022018,13.050282 36.892323,12.964536 36.892323,12.964536 
z"/>
<path fill="#9F1916" opacity="1.000000" stroke="none" 
	d="
M36.737823,5.930866 
	C36.845028,6.509083 36.720345,7.109257 36.361572,7.920403 
	C36.078293,7.663530 36.029099,7.195685 36.012943,6.377246 
	C36.045979,6.026653 36.505936,5.952824 36.737823,5.930866 
z"/>
<path fill="#FDC505" opacity="1.000000" stroke="none" 
	d="
M43.789673,13.898989 
	C43.944656,14.434856 43.960011,14.564066 43.759632,14.721809 
	C43.395405,14.922682 43.231552,14.965813 42.976887,14.681511 
	C41.928139,13.254076 40.970196,12.154074 40.005112,10.796978 
	C40.022659,10.370211 40.047348,10.200535 40.072033,10.030859 
	C41.106682,10.028708 42.141327,10.026558 43.562111,10.040926 
	C43.843727,11.159337 43.739208,12.261229 43.789673,13.898989 
z"/>
<path fill="#DB6415" opacity="1.000000" stroke="none" 
	d="
M40.047234,9.691738 
	C40.047348,10.200535 40.022659,10.370211 39.808994,10.831644 
	C39.620014,11.123404 39.229507,11.201379 39.229507,11.201379 
	C39.156261,10.073113 39.083015,8.944847 39.040478,7.391985 
	C39.388268,7.762464 39.705349,8.557540 40.047234,9.691738 
z"/>
<path fill="#FDC302" opacity="1.000000" stroke="none" 
	d="
M7.053799,36.397018 
	C8.291397,38.113228 9.500276,40.227089 10.854733,42.670399 
	C10.542294,43.002411 10.084274,43.004974 9.281891,43.015816 
	C8.937526,43.024097 8.493327,43.005127 8.271825,42.992348 
	C7.708574,40.917934 7.366826,38.856304 7.053799,36.397018 
z"/>
<path fill="#362909" opacity="1.000000" stroke="none" 
	d="
M15.063756,45.937691 
	C15.060251,45.191090 15.032264,44.459480 15.183611,43.314796 
	C15.362944,42.901714 15.730729,42.858231 16.090200,42.891247 
	C16.690535,42.925404 16.931398,42.926540 17.375378,42.949921 
	C17.578493,42.972168 17.980844,43.043701 18.022205,43.406593 
	C19.513353,44.648685 20.963144,45.527882 22.608318,46.498447 
	C22.803703,46.589817 23.198620,46.763409 23.232716,46.926331 
	C23.260023,47.344734 23.380558,47.502094 24.046055,47.630676 
	C24.738302,47.634830 25.012911,47.569645 25.646770,47.543587 
	C27.672522,48.366169 29.339022,49.149624 31.192421,50.140793 
	C31.723553,50.479565 32.067791,50.610615 32.472336,51.065010 
	C33.359188,51.619682 34.185726,51.851009 34.940475,52.342014 
	C34.560703,53.031471 34.252724,53.461250 33.944748,53.891033 
	C29.462379,55.350521 18.791033,51.679321 15.932288,47.087685 
	C15.599791,46.273190 15.323496,46.084663 15.047201,45.896137 
	C15.047201,45.896137 15.039273,45.952682 15.063756,45.937691 
z"/>
<path fill="#FDD204" opacity="1.000000" stroke="none" 
	d="
M34.205734,54.183365 
	C34.252724,53.461250 34.560703,53.031471 35.180832,52.302261 
	C35.492985,52.002834 35.969467,51.903503 36.262142,51.836861 
	C37.103355,51.194569 37.651890,50.618912 38.407841,50.021866 
	C38.615257,50.000481 39.024399,49.919720 39.258171,49.932980 
	C39.491940,49.946239 39.958580,49.906925 39.958580,49.906925 
	C41.723827,49.942291 43.489075,49.977657 45.627235,50.006821 
	C45.740181,50.495644 45.480213,50.990673 45.111008,51.743572 
	C45.001774,52.001446 45.000000,52.000000 44.660934,52.035156 
	C42.880604,53.046188 41.439335,54.022064 39.998070,54.997940 
	C38.154282,54.823856 36.310501,54.649780 34.205734,54.183365 
z"/>
<path fill="#FEC902" opacity="1.000000" stroke="none" 
	d="
M40.402893,54.998543 
	C41.439335,54.022064 42.880604,53.046188 44.661690,52.036209 
	C45.249886,55.304825 42.942017,55.030548 40.402893,54.998543 
z"/>
<path fill="#FEC801" opacity="1.000000" stroke="none" 
	d="
M15.118662,46.115665 
	C15.323496,46.084663 15.599791,46.273190 15.855898,46.718952 
	C15.549562,46.833984 15.334366,46.620319 15.118662,46.115665 
z"/>
<path fill="#FCE108" opacity="1.000000" stroke="none" 
	d="
M33.147614,16.041557 
	C34.185596,15.048740 35.223579,14.055924 36.576942,13.013823 
	C36.892323,12.964536 37.022018,13.050282 37.011856,13.478245 
	C38.019398,14.925181 39.037106,15.944157 40.321770,17.097734 
	C41.316151,17.369940 42.043583,17.507545 43.123890,17.778320 
	C43.977154,17.950922 44.477543,17.990355 44.988819,18.269567 
	C44.999710,18.509348 45.035545,18.990849 45.034962,19.332672 
	C45.718979,20.102287 46.403580,20.530083 47.088181,20.957878 
	C47.392471,22.063135 47.696762,23.168392 47.729038,24.897915 
	C47.250034,26.768808 47.043053,28.015434 46.590752,29.050856 
	C44.909264,28.076048 43.473095,27.312445 41.992836,26.305927 
	C41.450630,25.695049 40.952515,25.327089 40.468891,24.756409 
	C40.483387,24.553688 40.485531,24.147165 40.652073,23.885563 
	C39.907223,22.739750 38.995831,21.855537 37.872925,20.705229 
	C36.782974,20.264412 35.904533,20.089689 34.834057,19.842056 
	C34.325912,19.538425 34.009808,19.307703 33.663349,18.688658 
	C33.471203,17.547411 33.309406,16.794483 33.147614,16.041557 
z"/>
<path fill="#FEE004" opacity="1.000000" stroke="none" 
	d="
M46.836071,29.262060 
	C47.043053,28.015434 47.250034,26.768808 47.729500,25.260258 
	C52.623913,29.306396 51.952705,39.079002 46.371674,42.948322 
	C45.972572,42.972408 45.896564,42.897488 45.926765,42.613815 
	C45.973015,41.950123 45.989067,41.570099 46.247879,41.048882 
	C46.667690,40.589375 46.844738,40.271057 47.222832,39.735664 
	C47.210438,36.784336 46.996994,34.050087 46.832298,30.974190 
	C46.866055,30.175714 46.851063,29.718887 46.836071,29.262060 
z"/>
<path fill="#E28815" opacity="1.000000" stroke="none" 
	d="
M39.024399,49.919720 
	C39.024399,49.919720 38.615257,50.000481 37.987106,49.993629 
	C36.251518,49.898903 35.144089,49.811031 34.027409,49.337013 
	C34.019672,47.920853 34.021187,46.890839 34.434933,45.845772 
	C37.240868,45.615681 39.634563,45.400631 41.997597,45.488449 
	C41.635979,46.524902 41.305019,47.258492 40.974060,47.992085 
	C40.702843,48.191128 40.431625,48.390175 39.842781,48.908752 
	C39.282505,49.403896 39.115585,49.634377 39.024399,49.919720 
z"/>
<path fill="#FCCA05" opacity="1.000000" stroke="none" 
	d="
M44.977928,18.029787 
	C44.477543,17.990355 43.977154,17.950922 43.147537,17.509056 
	C42.735733,16.754326 42.653168,16.402033 42.702026,15.792956 
	C42.911533,15.360430 42.989613,15.184687 43.067696,15.008943 
	C43.231552,14.965813 43.395405,14.922682 43.778938,14.749418 
	C45.382225,14.747373 46.765831,14.875461 48.568832,15.008116 
	C49.024643,15.200316 49.061058,15.387948 49.211479,15.838367 
	C48.775318,16.719311 48.225147,17.337465 47.005257,17.977848 
	C45.883003,18.009979 45.430466,18.019882 44.977928,18.029787 
z"/>
<path fill="#FEE004" opacity="1.000000" stroke="none" 
	d="
M41.348671,47.988640 
	C41.305019,47.258492 41.635979,46.524902 42.295341,45.392288 
	C43.106148,44.656139 43.588551,44.319019 44.312599,43.910713 
	C44.734188,43.562027 44.914124,43.284523 45.294792,42.980408 
	C45.495522,42.953793 45.896564,42.897488 45.896564,42.897488 
	C45.896564,42.897488 45.972572,42.972408 46.011173,43.009998 
	C44.607609,44.693459 43.165443,46.339325 41.348671,47.988640 
z"/>
<path fill="#FCCA05" opacity="1.000000" stroke="none" 
	d="
M47.076359,20.632828 
	C46.403580,20.530083 45.718979,20.102287 45.354733,19.334284 
	C46.103245,18.999710 46.531406,19.005346 46.959564,19.010983 
	C46.994556,19.443247 47.029549,19.875513 47.076359,20.632828 
z"/>
<path fill="#FCCF14" opacity="1.000000" stroke="none" 
	d="
M46.981770,18.760120 
	C46.531406,19.005346 46.103245,18.999710 45.355316,18.992462 
	C45.035545,18.990849 44.999710,18.509348 44.988819,18.269567 
	C45.430466,18.019882 45.883003,18.009979 46.675270,18.002886 
	C47.011326,18.173550 47.007648,18.341404 46.981770,18.760120 
z"/>
<path fill="#CA7E18" opacity="1.000000" stroke="none" 
	d="
M39.258171,49.932980 
	C39.115585,49.634377 39.282505,49.403896 39.718647,49.132774 
	C39.912136,49.037273 39.963886,49.471123 39.961235,49.689026 
	C39.958580,49.906925 39.491940,49.946239 39.258171,49.932980 
z"/>
<path fill="#FED402" opacity="1.000000" stroke="none" 
	d="
M13.992271,40.008732 
	C8.961255,38.730755 11.205549,34.631866 11.102426,31.771011 
	C10.840541,24.505865 16.499500,16.141703 22.921680,13.965561 
	C24.656319,13.377782 26.695105,13.687600 28.791645,14.091760 
	C28.989004,14.598107 28.826761,14.998796 28.458607,15.000141 
	C25.401077,16.508675 22.711700,18.015863 19.784035,19.819153 
	C19.317568,20.832220 19.089392,21.549187 18.760712,22.416965 
	C18.504135,22.759356 18.312340,22.903343 17.719110,23.041393 
	C16.271505,24.406542 14.403564,25.647861 14.254994,27.068937 
	C13.807984,31.344624 14.030754,35.690334 13.992271,40.008732 
z"/>
<path fill="#FDDC03" opacity="1.000000" stroke="none" 
	d="
M14.021656,40.326088 
	C14.030754,35.690334 13.807984,31.344624 14.254994,27.068937 
	C14.403564,25.647861 16.271505,24.406542 17.718863,23.492535 
	C18.124908,26.891912 18.165491,29.881798 18.052267,33.191792 
	C17.351109,35.026340 16.803757,36.540783 16.159986,38.450096 
	C15.952622,40.182720 15.841676,41.520477 15.730729,42.858231 
	C15.730729,42.858231 15.362944,42.901714 15.183803,42.948364 
	C14.686788,42.211155 14.368914,41.427299 14.021656,40.326088 
z"/>
<path fill="#A76834" opacity="1.000000" stroke="none" 
	d="
M28.826761,14.998796 
	C28.826761,14.998796 28.989004,14.598107 29.034199,14.387197 
	C29.637478,14.320490 30.195566,14.464692 30.906849,15.228670 
	C31.095243,16.348494 31.130440,16.848543 31.115341,17.623934 
	C31.026527,18.283375 30.988008,18.667475 30.645771,19.009972 
	C29.592319,18.655363 28.842587,18.342354 28.121464,17.712730 
	C28.375635,16.597008 28.601198,15.797902 28.826761,14.998796 
z"/>
<path fill="#FBC8A6" opacity="1.000000" stroke="none" 
	d="
M31.165634,17.348591 
	C31.130440,16.848543 31.095243,16.348494 31.080978,15.472565 
	C31.601095,15.352867 32.100277,15.609051 32.873535,15.953396 
	C33.309406,16.794483 33.471203,17.547411 33.202408,18.653147 
	C32.468849,18.988121 32.165878,18.970284 31.818235,18.727314 
	C31.570917,18.117651 31.368275,17.733120 31.165634,17.348591 
z"/>
<path fill="#FED406" opacity="1.000000" stroke="none" 
	d="
M42.976887,14.681511 
	C42.989613,15.184687 42.911533,15.360430 42.421062,15.777821 
	C41.357388,16.334023 40.706100,16.648577 40.054813,16.963131 
	C39.037106,15.944157 38.019398,14.925181 37.002102,13.555369 
	C37.702282,12.789163 38.402050,12.373794 39.165665,11.579901 
	C39.229507,11.201379 39.620014,11.123404 39.816132,11.088737 
	C40.970196,12.154074 41.928139,13.254076 42.976887,14.681511 
z"/>
<path fill="#DB8513" opacity="1.000000" stroke="none" 
	d="
M34.022697,45.860825 
	C34.021187,46.890839 34.019672,47.920853 33.770355,49.409389 
	C33.169811,49.903236 32.817078,49.938564 32.288528,49.789864 
	C31.755142,49.722046 31.397568,49.838253 31.025326,49.961975 
	C31.010658,49.969486 31.005524,49.933079 31.005524,49.933079 
	C29.339022,49.149624 27.672522,48.366169 25.641945,47.304993 
	C25.270273,46.704731 25.270439,46.382198 25.519421,46.169346 
	C26.191202,45.461983 26.621931,44.644943 27.312922,43.898163 
	C27.734951,44.046726 27.896717,44.125019 28.185766,44.385963 
	C28.532804,44.787247 28.795647,44.921886 29.473240,44.969673 
	C31.237499,45.264812 32.630100,45.562817 34.022697,45.860825 
z"/>
<path fill="#936234" opacity="1.000000" stroke="none" 
	d="
M16.256405,38.055225 
	C16.803757,36.540783 17.351109,35.026340 18.258736,33.015289 
	C18.808847,32.011696 18.998686,31.504709 19.522680,31.081945 
	C20.229506,32.440487 20.602175,33.714806 20.740688,35.167435 
	C20.339096,35.898476 20.171659,36.451214 20.000019,37.335770 
	C19.991102,38.110039 19.986389,38.552479 19.769650,39.110706 
	C19.293930,39.429535 19.108664,39.688660 18.972416,40.326183 
	C18.622286,41.446903 18.301565,42.245300 17.980844,43.043701 
	C17.980844,43.043701 17.578493,42.972168 17.335617,42.645489 
	C16.813965,40.897614 16.535185,39.476421 16.256405,38.055225 
z"/>
<path fill="#885C37" opacity="1.000000" stroke="none" 
	d="
M18.022205,43.406593 
	C18.301565,42.245300 18.622286,41.446903 19.215216,40.327431 
	C19.487425,40.006355 19.973024,40.013054 20.093796,40.236092 
	C20.482737,40.660595 20.750904,40.862057 21.046848,41.428520 
	C21.610012,42.885281 22.145401,43.977043 22.609970,45.289421 
	C22.445971,45.801880 22.403898,46.100891 22.412935,46.407078 
	C20.963144,45.527882 19.513353,44.648685 18.022205,43.406593 
z"/>
<path fill="#CA7E18" opacity="1.000000" stroke="none" 
	d="
M32.464340,49.973892 
	C32.817078,49.938564 33.169811,49.903236 33.779602,49.795532 
	C35.144089,49.811031 36.251518,49.898903 37.779686,50.015015 
	C37.651890,50.618912 37.103355,51.194569 36.062706,51.572472 
	C34.517735,51.163708 33.464882,50.952686 32.412025,50.741665 
	C32.067791,50.610615 31.723553,50.479565 31.192421,50.140793 
	C31.005524,49.933079 31.010658,49.969486 31.380898,49.997612 
	C31.988871,50.008453 32.226604,49.991173 32.464340,49.973892 
z"/>
<path fill="#3E2C04" opacity="1.000000" stroke="none" 
	d="
M16.159988,38.450096 
	C16.535185,39.476421 16.813965,40.897614 17.132502,42.623245 
	C16.931398,42.926540 16.690535,42.925404 16.090200,42.891247 
	C15.841676,41.520477 15.952622,40.182720 16.159988,38.450096 
z"/>
<path fill="#8D6D4E" opacity="1.000000" stroke="none" 
	d="
M32.472336,51.065010 
	C33.464882,50.952686 34.517735,51.163708 35.770027,51.639114 
	C35.969467,51.903503 35.492985,52.002834 35.252625,52.042587 
	C34.185726,51.851009 33.359188,51.619682 32.472336,51.065010 
z"/>
<path fill="#D78213" opacity="1.000000" stroke="none" 
	d="
M22.608318,46.498447 
	C22.403898,46.100891 22.445971,45.801880 22.768253,45.305267 
	C23.268278,45.286621 23.539200,45.472748 23.674374,45.850639 
	C23.538628,46.042408 23.328072,46.462498 23.288876,46.493454 
	C23.249678,46.524410 23.179718,46.816219 23.178932,46.804619 
	C23.178144,46.793018 23.198620,46.763409 23.198620,46.763409 
	C23.198620,46.763409 22.803703,46.589817 22.608318,46.498447 
z"/>
<path fill="#986119" opacity="1.000000" stroke="none" 
	d="
M25.278366,46.059669 
	C25.270439,46.382198 25.270273,46.704731 25.282696,47.265862 
	C25.012911,47.569645 24.738302,47.634830 23.939232,47.463051 
	C23.414770,47.226082 23.270052,46.850105 23.339649,46.761452 
	C23.409246,46.672798 23.328072,46.462498 23.328072,46.462498 
	C23.328072,46.462498 23.538628,46.042408 24.038296,45.969421 
	C24.784765,45.950844 25.031565,46.005257 25.278366,46.059669 
z"/>
<path fill="#D78213" opacity="1.000000" stroke="none" 
	d="
M23.270052,46.850105 
	C23.270052,46.850105 23.414770,47.226082 23.521591,47.393707 
	C23.380558,47.502094 23.260023,47.344734 23.232716,46.926331 
	C23.198620,46.763409 23.178144,46.793018 23.199602,46.820221 
	C23.221060,46.847420 23.270052,46.850105 23.270052,46.850105 
z"/>
<path fill="#F0911E" opacity="1.000000" stroke="none" 
	d="
M40.454395,24.959129 
	C40.952515,25.327089 41.450630,25.695049 41.761314,26.585236 
	C41.934940,28.773088 42.296001,30.438719 42.665016,32.331802 
	C42.672962,32.559254 42.556423,33.001484 42.380890,32.996986 
	C41.796791,33.150208 41.388229,33.307922 40.518860,33.399506 
	C38.429123,34.081707 36.855206,35.207706 35.153374,35.455620 
	C33.855801,35.644646 32.396030,34.720264 31.434574,34.154045 
	C32.850861,33.740932 33.840992,33.464989 34.831120,33.189045 
	C34.591255,32.762665 34.351387,32.336285 34.111523,31.909906 
	C33.049091,32.698265 31.986660,33.486622 30.717552,34.478958 
	C29.961323,34.573425 29.411774,34.463913 28.953300,33.844505 
	C29.031441,32.038258 29.018503,30.741903 29.334785,29.290941 
	C30.216627,28.079075 30.769253,27.021814 31.668755,25.982281 
	C32.752048,25.281956 33.488461,24.563900 34.255989,23.849392 
	C34.287098,23.852940 34.350449,23.848127 34.723183,23.946627 
	C35.351223,24.074747 35.606533,24.104368 36.243698,24.258209 
	C37.901836,24.574663 39.178116,24.766897 40.454395,24.959129 
M38.565662,26.492054 
	C38.565662,26.492054 38.534786,26.456106 38.565662,26.492054 
z"/>
<path fill="#F39828" opacity="1.000000" stroke="none" 
	d="
M42.657066,32.104347 
	C42.296001,30.438719 41.934940,28.773088 41.805401,26.828152 
	C43.473095,27.312445 44.909264,28.076048 46.590752,29.050856 
	C46.851063,29.718887 46.866055,30.175714 46.544350,30.958967 
	C45.707062,31.484921 45.206470,31.684448 44.549057,31.955908 
	C44.392227,32.027840 44.066113,32.149368 43.715462,32.087711 
	C43.128895,32.052151 42.892979,32.078251 42.657066,32.104347 
z"/>
<path fill="#F5A440" opacity="1.000000" stroke="none" 
	d="
M38.084438,20.971325 
	C38.995831,21.855537 39.907223,22.739750 40.270607,23.757336 
	C38.497124,23.512390 37.271648,23.134071 36.102608,22.456699 
	C36.800838,21.762205 37.442638,21.366766 38.084438,20.971325 
z"/>
<path fill="#F1A950" opacity="1.000000" stroke="none" 
	d="
M37.872925,20.705231 
	C37.442638,21.366766 36.800838,21.762205 36.054214,22.802288 
	C35.920204,23.675949 35.891022,23.904968 35.861839,24.133987 
	C35.606533,24.104368 35.351223,24.074747 34.832642,23.717176 
	C34.615364,22.917116 34.661366,22.445005 34.787079,21.458418 
	C34.919891,20.600948 34.972992,20.257957 35.026093,19.914967 
	C35.904533,20.089689 36.782974,20.264412 37.872925,20.705231 
z"/>
<path fill="#FCB869" opacity="1.000000" stroke="none" 
	d="
M36.243698,24.258209 
	C35.891022,23.904968 35.920204,23.675949 35.997780,23.101341 
	C37.271648,23.134071 38.497124,23.512390 40.104065,24.018938 
	C40.485531,24.147165 40.483387,24.553688 40.468891,24.756409 
	C39.178116,24.766897 37.901836,24.574663 36.243698,24.258209 
z"/>
<path fill="#F7DA15" opacity="1.000000" stroke="none" 
	d="
M40.321770,17.097733 
	C40.706100,16.648577 41.357388,16.334023 42.289639,16.034603 
	C42.653168,16.402033 42.735733,16.754326 42.794655,17.375885 
	C42.043583,17.507545 41.316151,17.369940 40.321770,17.097733 
z"/>
<path fill="#F0BBA0" opacity="1.000000" stroke="none" 
	d="
M34.834053,19.842056 
	C34.972992,20.257957 34.919891,20.600948 34.610729,21.283833 
	C34.354668,21.623724 33.910351,21.426579 33.687206,21.268473 
	C33.104263,21.085806 32.744469,21.061245 32.187523,20.722492 
	C31.872585,20.190870 31.754799,19.973442 31.719055,19.562313 
	C31.801100,19.368608 31.862911,18.952448 31.862911,18.952448 
	C32.165878,18.970284 32.468849,18.988121 33.232758,19.041468 
	C34.009808,19.307703 34.325912,19.538425 34.834053,19.842056 
z"/>
<path fill="#FDFEFD" opacity="1.000000" stroke="none" 
	d="
M44.705883,31.883976 
	C45.206470,31.684448 45.707062,31.484921 46.495605,31.300613 
	C46.996994,34.050087 47.210438,36.784336 46.918396,39.794754 
	C46.222969,40.151730 46.033020,40.232548 45.499443,40.307869 
	C42.101208,40.875637 39.046597,41.448895 35.663177,41.986061 
	C34.893627,41.957863 34.452885,41.965748 33.765945,41.720402 
	C32.348312,41.343761 31.176876,41.220352 29.787846,41.084812 
	C29.253174,41.108032 29.024990,41.269199 28.491550,41.448009 
	C27.580521,41.168793 27.063646,40.997749 26.439430,40.654068 
	C25.569355,39.607773 24.806620,38.734119 24.098969,37.589664 
	C24.123766,36.950588 24.093479,36.582310 24.235943,36.002449 
	C24.484921,35.445339 24.561148,35.099815 24.897190,34.528214 
	C26.392076,34.319553 27.627150,34.336975 28.862225,34.354401 
	C29.411774,34.463913 29.961323,34.573425 30.746016,34.469944 
	C30.981157,34.256950 31.008417,34.291206 31.008417,34.291206 
	C32.396030,34.720264 33.855801,35.644646 35.153374,35.455620 
	C36.855206,35.207706 38.429123,34.081707 40.190994,33.705399 
	C41.111515,34.933491 41.899097,35.789547 42.726364,36.626945 
	C42.766048,36.608284 42.852680,36.594585 43.008999,36.785210 
	C43.507607,36.667404 43.849895,36.358978 44.435074,35.987183 
	C44.830273,35.636311 44.982578,35.348812 45.443485,34.916092 
	C45.403351,33.808575 45.054619,32.846275 44.705883,31.883976 
z"/>
<path fill="#BABDBC" opacity="1.000000" stroke="none" 
	d="
M35.991985,42.022148 
	C39.046597,41.448895 42.101208,40.875637 45.548729,40.524025 
	C45.941639,40.745670 46.005116,41.190079 46.005116,41.190079 
	C45.989067,41.570099 45.973015,41.950123 45.926765,42.613815 
	C45.896564,42.897488 45.495522,42.953793 44.992905,42.986217 
	C44.295517,43.068405 44.100754,43.118172 43.463173,43.166706 
	C40.645344,43.172436 38.270336,43.179394 35.922058,42.895512 
	C35.963192,42.410500 35.977589,42.216324 35.991985,42.022148 
z"/>
<path fill="#D8D8D8" opacity="1.000000" stroke="none" 
	d="
M46.247879,41.048882 
	C46.005116,41.190079 45.941639,40.745670 45.892353,40.529518 
	C46.033020,40.232548 46.222969,40.151730 46.717354,40.011826 
	C46.844738,40.271057 46.667690,40.589375 46.247879,41.048882 
z"/>
<path fill="#706E6A" opacity="1.000000" stroke="none" 
	d="
M35.895329,43.186348 
	C38.270336,43.179394 40.645344,43.172436 43.501442,43.370110 
	C43.982529,43.574738 44.070950,43.981895 44.070950,43.981895 
	C43.588551,44.319019 43.106148,44.656139 42.326004,45.089420 
	C39.634563,45.400631 37.240868,45.615681 34.434937,45.845776 
	C32.630100,45.562817 31.237499,45.264812 29.346626,44.780464 
	C28.642143,44.348377 28.378855,44.218109 28.058485,44.203316 
	C27.896717,44.125019 27.734951,44.046726 27.200436,43.408470 
	C26.734051,42.174576 26.640411,41.500641 26.546772,40.826706 
	C27.063646,40.997749 27.580521,41.168793 28.702427,41.661247 
	C29.500263,42.033592 29.693069,42.084526 30.003576,42.323196 
	C30.121279,42.510925 30.442476,42.816238 30.512785,42.805660 
	C30.583094,42.795082 30.900051,42.829739 31.131861,42.852730 
	C31.363670,42.875725 31.829542,42.871044 32.078510,42.927238 
	C32.655174,43.030739 32.984180,43.065811 33.743591,43.135597 
	C34.746910,43.183815 35.321117,43.185081 35.895329,43.186348 
z"/>
<path fill="#908D8D" opacity="1.000000" stroke="none" 
	d="
M44.312599,43.910713 
	C44.070950,43.981895 43.982529,43.574738 43.944260,43.371338 
	C44.100754,43.118172 44.295517,43.068405 44.792171,43.012833 
	C44.914124,43.284523 44.734188,43.562027 44.312599,43.910713 
z"/>
<path fill="#FDDE04" opacity="1.000000" stroke="none" 
	d="
M28.458607,15.000141 
	C28.601198,15.797902 28.375635,16.597008 28.053482,18.082287 
	C27.887535,19.517071 27.818176,20.265680 27.477409,21.057526 
	C26.802553,21.630514 26.399105,22.160269 25.822601,22.720406 
	C25.649548,22.750786 25.301023,22.795668 25.124397,22.775331 
	C24.947769,22.754995 24.599699,22.827736 24.468391,22.470242 
	C23.525021,21.668854 22.712961,21.224964 21.637978,20.670225 
	C20.924145,20.213934 20.473234,19.868492 20.022324,19.523050 
	C22.711700,18.015863 25.401077,16.508675 28.458607,15.000141 
z"/>
<path fill="#412801" opacity="1.000000" stroke="none" 
	d="
M19.188524,30.997723 
	C18.998686,31.504709 18.808847,32.011696 18.412542,32.695183 
	C18.165491,29.881798 18.124908,26.891912 18.084574,23.450886 
	C18.312340,22.903343 18.504135,22.759356 18.774302,22.390156 
	C18.888395,22.212532 18.887154,22.153500 18.776947,22.366184 
	C18.666742,22.578869 18.782974,23.043636 18.844967,23.360041 
	C19.275511,24.449009 19.644064,25.221573 20.006058,26.376146 
	C20.049898,27.520647 20.100294,28.283138 20.015022,29.286360 
	C19.649076,30.017302 19.418800,30.507511 19.188524,30.997723 
z"/>
<path fill="#905F37" opacity="1.000000" stroke="none" 
	d="
M20.012615,25.994137 
	C19.644064,25.221573 19.275511,24.449009 19.032768,23.287155 
	C19.246706,22.803816 19.334831,22.709764 19.422958,22.615713 
	C19.244356,22.461641 19.065756,22.307571 18.887154,22.153500 
	C18.887154,22.153500 18.888395,22.212532 18.874805,22.239342 
	C19.089392,21.549187 19.317568,20.832220 19.784035,19.819153 
	C20.473234,19.868492 20.924145,20.213934 21.589634,21.045465 
	C21.895012,22.019943 21.985809,22.508333 22.040794,23.334152 
	C21.980291,24.122831 21.955605,24.574080 21.682678,25.129942 
	C20.960499,25.487749 20.486557,25.740942 20.012615,25.994137 
z"/>
<path fill="#B25B29" opacity="1.000000" stroke="none" 
	d="
M27.748817,21.014290 
	C27.818176,20.265680 27.887535,19.517071 28.024876,18.398903 
	C28.842587,18.342354 29.592319,18.655363 30.732964,19.158897 
	C31.228001,19.569607 31.399046,19.705137 31.637011,19.756016 
	C31.754799,19.973442 31.872585,20.190870 31.865440,20.855146 
	C30.849323,21.966206 29.958143,22.630421 28.798939,23.242798 
	C28.359381,23.130159 28.187845,23.069357 27.981392,22.981026 
	C27.946474,22.953499 27.866367,22.990992 27.870600,22.660078 
	C27.832827,21.890873 27.790823,21.452581 27.748817,21.014290 
z"/>
<path fill="#F0B841" opacity="1.000000" stroke="none" 
	d="
M31.719055,19.562313 
	C31.399046,19.705137 31.228001,19.569607 31.036682,19.200499 
	C30.988008,18.667475 31.026527,18.283375 31.115341,17.623934 
	C31.368275,17.733120 31.570917,18.117651 31.818235,18.727314 
	C31.862911,18.952448 31.801100,19.368608 31.719055,19.562313 
z"/>
<path fill="#D17D11" opacity="1.000000" stroke="none" 
	d="
M26.439430,40.654068 
	C26.640411,41.500641 26.734051,42.174576 26.940174,43.338203 
	C26.621931,44.644943 26.191202,45.461983 25.519421,46.169346 
	C25.031565,46.005257 24.784765,45.950844 24.174042,45.777649 
	C23.539200,45.472748 23.268278,45.286621 22.839073,45.084648 
	C22.145401,43.977043 21.610012,42.885281 21.064976,41.056950 
	C21.063818,39.583382 21.072309,38.846378 21.315411,38.087841 
	C21.550016,38.066303 22.017797,38.009773 22.357094,38.007454 
	C23.145554,37.956913 23.594719,37.908691 24.043884,37.860466 
	C24.806620,38.734119 25.569355,39.607773 26.439430,40.654068 
z"/>
<path fill="#A56319" opacity="1.000000" stroke="none" 
	d="
M32.288528,49.789864 
	C32.226604,49.991173 31.988871,50.008453 31.395565,49.990097 
	C31.397568,49.838253 31.755142,49.722046 32.288528,49.789864 
z"/>
<path fill="#D17D11" opacity="1.000000" stroke="none" 
	d="
M28.185766,44.385963 
	C28.378855,44.218109 28.642143,44.348377 28.974964,44.783325 
	C28.795647,44.921886 28.532804,44.787247 28.185766,44.385963 
z"/>
<path fill="#9D6322" opacity="1.000000" stroke="none" 
	d="
M22.017797,38.009773 
	C22.017797,38.009773 21.550016,38.066303 21.279980,37.809143 
	C20.997721,37.365902 20.985498,37.179821 20.979813,36.659737 
	C20.982515,35.880196 20.978680,35.434662 20.974844,34.989124 
	C20.602175,33.714806 20.229506,32.440487 19.522680,31.081945 
	C19.418800,30.507511 19.649076,30.017302 20.229403,29.278795 
	C20.579453,29.030500 21.010714,29.020084 21.291290,29.143223 
	C22.117016,29.557463 22.662161,29.848562 23.180916,30.523874 
	C23.113804,31.933905 23.073086,32.959724 22.757996,34.220413 
	C22.328348,35.640110 22.173073,36.824944 22.017797,38.009773 
z"/>
<path fill="#915718" opacity="1.000000" stroke="none" 
	d="
M20.973274,36.993744 
	C20.985498,37.179821 20.997721,37.365902 21.045374,37.830681 
	C21.072309,38.846378 21.063818,39.583382 21.037201,40.691952 
	C20.750904,40.862057 20.482737,40.660595 20.100910,39.981522 
	C19.985392,39.334248 19.983534,39.164585 19.981674,38.994923 
	C19.986389,38.552479 19.991102,38.110039 20.242258,37.333069 
	C20.488699,36.998543 20.973274,36.993744 20.973274,36.993744 
z"/>
<path fill="#915D26" opacity="1.000000" stroke="none" 
	d="
M20.979813,36.659737 
	C20.973274,36.993744 20.488699,36.998543 20.246460,37.001244 
	C20.171659,36.451214 20.339096,35.898476 20.740688,35.167435 
	C20.978680,35.434662 20.982515,35.880196 20.979813,36.659737 
z"/>
<path fill="#87572D" opacity="1.000000" stroke="none" 
	d="
M19.769650,39.110706 
	C19.983534,39.164585 19.985392,39.334248 19.980137,39.758484 
	C19.973024,40.013054 19.487425,40.006355 19.244625,40.005112 
	C19.108664,39.688660 19.293930,39.429535 19.769650,39.110706 
z"/>
<path fill="#DB8513" opacity="1.000000" stroke="none" 
	d="
M23.339649,46.761452 
	C23.270052,46.850105 23.221060,46.847420 23.200390,46.831818 
	C23.179718,46.816219 23.249678,46.524410 23.288876,46.493454 
	C23.328072,46.462498 23.409246,46.672798 23.339649,46.761452 
z"/>
<path fill="#E48C1D" opacity="1.000000" stroke="none" 
	d="
M23.032370,33.985542 
	C23.073086,32.959724 23.113804,31.933905 23.207706,30.495483 
	C23.260891,30.082884 23.277721,30.006031 23.456623,29.890415 
	C23.846384,29.567120 23.979748,29.317907 24.068459,28.691860 
	C24.188555,27.915876 24.275810,27.475201 24.518543,26.981905 
	C24.674021,26.929287 24.992779,27.007792 25.302456,27.139969 
	C26.743279,27.996613 27.874422,28.721081 29.005566,29.445547 
	C29.018503,30.741903 29.031441,32.038258 28.953300,33.844505 
	C27.627150,34.336975 26.392076,34.319553 24.717228,34.511517 
	C24.277454,34.720905 23.914356,34.717415 23.802826,34.555668 
	C23.514870,34.188068 23.295229,34.051941 23.032370,33.985542 
z"/>
<path fill="#F39631" opacity="1.000000" stroke="none" 
	d="
M28.016308,23.008553 
	C28.187845,23.069357 28.359381,23.130159 29.088488,23.448582 
	C31.108059,23.727560 32.570057,23.748920 34.083534,23.780811 
	C34.135017,23.791340 34.224873,23.845844 34.224876,23.845844 
	C33.488461,24.563900 32.752048,25.281956 31.234741,26.002613 
	C29.614300,25.892384 28.774746,25.779552 27.946444,25.337143 
	C27.977232,24.341228 27.996771,23.674891 28.016308,23.008553 
z"/>
<path fill="#FFD593" opacity="1.000000" stroke="none" 
	d="
M27.935194,25.666721 
	C28.774746,25.779552 29.614300,25.892384 30.887865,25.984882 
	C30.769253,27.021814 30.216627,28.079075 29.334785,29.290941 
	C27.874422,28.721081 26.743279,27.996613 25.305292,27.134148 
	C24.998449,26.996149 25.011198,26.992884 25.293713,27.005325 
	C25.745163,26.693928 25.914097,26.370089 26.345596,26.005514 
	C26.783152,25.937239 26.958138,25.909702 27.336636,25.839462 
	C27.540150,25.796759 27.935194,25.666719 27.935194,25.666721 
z"/>
<path fill="#1C1A19" opacity="1.000000" stroke="none" 
	d="
M42.686684,36.645607 
	C41.899097,35.789547 41.111515,34.933491 40.651798,33.771534 
	C41.388229,33.307922 41.796791,33.150208 42.527935,33.432190 
	C42.795902,34.796459 42.741291,35.721031 42.686684,36.645607 
z"/>
<path fill="#190305" opacity="1.000000" stroke="none" 
	d="
M31.434574,34.154045 
	C31.008417,34.291206 30.981157,34.256950 30.952694,34.265965 
	C31.986660,33.486622 33.049091,32.698265 34.111523,31.909906 
	C34.351387,32.336285 34.591255,32.762665 34.831120,33.189045 
	C33.840992,33.464989 32.850861,33.740932 31.434574,34.154045 
z"/>
<path fill="#3D3C41" opacity="1.000000" stroke="none" 
	d="
M42.726364,36.626945 
	C42.741291,35.721031 42.795902,34.796459 42.703468,33.436684 
	C42.556423,33.001484 42.672962,32.559254 42.665016,32.331802 
	C42.892979,32.078251 43.128895,32.052151 43.697144,32.421112 
	C44.397949,33.564552 44.766418,34.312931 45.134884,35.061310 
	C44.982578,35.348812 44.830273,35.636311 44.068962,36.046303 
	C43.257530,36.310722 43.055103,36.452652 42.852680,36.594585 
	C42.852680,36.594585 42.766048,36.608284 42.726364,36.626945 
z"/>
<path fill="#BE712B" opacity="1.000000" stroke="none" 
	d="
M33.910351,21.426579 
	C33.910351,21.426579 34.354668,21.623724 34.531021,21.798309 
	C34.661366,22.445005 34.615364,22.917116 34.459908,23.618677 
	C34.350449,23.848127 34.287098,23.852940 34.255985,23.849392 
	C34.224873,23.845844 34.135017,23.791340 34.095200,23.490784 
	C34.007042,22.602346 33.958694,22.014462 33.910351,21.426579 
z"/>
<path fill="#FCB869" opacity="1.000000" stroke="none" 
	d="
M38.550224,26.474079 
	C38.534786,26.456106 38.565662,26.492054 38.550224,26.474079 
z"/>
<path fill="#343434" opacity="1.000000" stroke="none" 
	d="
M45.443485,34.916092 
	C44.766418,34.312931 44.397949,33.564552 44.047798,32.482773 
	C44.066113,32.149368 44.392227,32.027840 44.549057,31.955910 
	C45.054619,32.846275 45.403351,33.808575 45.443485,34.916092 
z"/>
<path fill="#E5861F" opacity="1.000000" stroke="none" 
	d="
M33.687206,21.268473 
	C33.958694,22.014462 34.007042,22.602346 34.043720,23.480255 
	C32.570057,23.748920 31.108059,23.727560 29.356510,23.500416 
	C29.958143,22.630421 30.849323,21.966206 32.062588,21.169338 
	C32.744469,21.061245 33.104263,21.085806 33.687206,21.268473 
z"/>
<path fill="#C37514" opacity="1.000000" stroke="none" 
	d="
M22.757996,34.220413 
	C23.295229,34.051941 23.514870,34.188068 23.773792,34.936562 
	C23.925257,35.724148 23.994223,35.969090 24.063190,36.214035 
	C24.093479,36.582310 24.123766,36.950588 24.098969,37.589664 
	C23.594719,37.908691 23.145554,37.956913 22.357094,38.007454 
	C22.173073,36.824944 22.328348,35.640110 22.757996,34.220413 
z"/>
<path fill="#BABDBC" opacity="1.000000" stroke="none" 
	d="
M30.005438,41.096939 
	C31.176876,41.220352 32.348312,41.343761 33.669945,41.925713 
	C33.820145,42.384251 33.598713,42.779366 33.315063,42.710079 
	C32.648067,42.718563 32.264725,42.796333 31.644529,42.844273 
	C31.407675,42.814442 30.931505,42.849422 30.812096,42.799141 
	C30.692688,42.748863 30.442476,42.816238 30.442476,42.816238 
	C30.442476,42.816238 30.121279,42.510925 30.043205,42.064163 
	C29.978567,41.443916 29.992002,41.270432 30.005438,41.096939 
z"/>
<path fill="#A9A9A7" opacity="1.000000" stroke="none" 
	d="
M35.922058,42.895515 
	C35.321117,43.185081 34.746910,43.183815 33.848015,43.083351 
	C33.523335,42.984154 33.598713,42.779366 33.598713,42.779366 
	C33.598713,42.779366 33.820145,42.384251 33.916145,42.178940 
	C34.452885,41.965748 34.893627,41.957863 35.663177,41.986061 
	C35.977589,42.216324 35.963192,42.410500 35.922058,42.895515 
z"/>
<path fill="#C1BDC1" opacity="1.000000" stroke="none" 
	d="
M29.787846,41.084816 
	C29.992002,41.270432 29.978567,41.443916 29.925503,41.876434 
	C29.693069,42.084526 29.500263,42.033592 29.096581,41.769424 
	C29.024990,41.269199 29.253174,41.108032 29.787846,41.084816 
z"/>
<path fill="#1C1A19" opacity="1.000000" stroke="none" 
	d="
M43.008999,36.785210 
	C43.055103,36.452652 43.257530,36.310722 43.826073,36.109673 
	C43.849895,36.358978 43.507607,36.667404 43.008999,36.785210 
z"/>
<path fill="#BABDBC" opacity="1.000000" stroke="none" 
	d="
M24.235941,36.002449 
	C23.994223,35.969090 23.925257,35.724148 23.885323,35.098309 
	C23.914356,34.717415 24.277454,34.720905 24.457417,34.737602 
	C24.561148,35.099815 24.484921,35.445339 24.235941,36.002449 
z"/>
<path fill="#78787A" opacity="1.000000" stroke="none" 
	d="
M33.315063,42.710079 
	C33.598713,42.779366 33.523335,42.984154 33.418911,43.036400 
	C32.984180,43.065811 32.655174,43.030739 32.096840,42.915184 
	C31.866201,42.846939 31.881384,42.874107 31.881384,42.874107 
	C32.264725,42.796333 32.648067,42.718563 33.315063,42.710079 
z"/>
<path fill="#6D6D6F" opacity="1.000000" stroke="none" 
	d="
M31.644529,42.844276 
	C31.881384,42.874107 31.866201,42.846939 31.847872,42.858994 
	C31.829542,42.871044 31.363670,42.875725 31.148235,42.843620 
	C30.932802,42.811512 30.931505,42.849422 30.931505,42.849422 
	C30.931505,42.849422 31.407675,42.814442 31.644529,42.844276 
z"/>
<path fill="#7E6D4F" opacity="1.000000" stroke="none" 
	d="
M30.812096,42.799141 
	C30.931505,42.849422 30.932802,42.811512 30.916428,42.820625 
	C30.900051,42.829739 30.583094,42.795082 30.512785,42.805660 
	C30.442476,42.816238 30.692688,42.748863 30.812096,42.799141 
z"/>
<path fill="#F0BBA0" opacity="1.000000" stroke="none" 
	d="
M27.133121,25.882168 
	C26.958138,25.909702 26.783152,25.937239 26.058374,25.999580 
	C25.318605,26.050356 25.128626,26.066328 24.722343,25.978970 
	C23.977100,25.936953 23.448162,25.998264 22.820683,26.048428 
	C22.722137,26.037279 22.525452,26.011662 22.368629,25.770014 
	C22.118177,25.360687 22.024548,25.193008 21.930916,25.025328 
	C21.955605,24.574080 21.980291,24.122831 22.460964,23.322922 
	C23.477865,22.925419 24.038782,22.876577 24.599699,22.827736 
	C24.599699,22.827736 24.947769,22.754995 25.187721,23.075352 
	C25.996157,24.224529 26.564638,25.053349 27.133121,25.882168 
z"/>
<path fill="#E5861F" opacity="1.000000" stroke="none" 
	d="
M27.336636,25.839462 
	C26.564638,25.053349 25.996157,24.224529 25.364349,23.095688 
	C25.301023,22.795668 25.649548,22.750786 26.120560,22.839834 
	C27.016502,22.949587 27.441435,22.970289 27.866367,22.990992 
	C27.866367,22.990992 27.946474,22.953499 27.981392,22.981026 
	C27.996771,23.674891 27.977232,24.341228 27.946444,25.337143 
	C27.935194,25.666719 27.540150,25.796759 27.336636,25.839462 
z"/>
<path fill="#FCE30B" opacity="1.000000" stroke="none" 
	d="
M27.870600,22.660078 
	C27.441435,22.970289 27.016502,22.949587 26.293613,22.809452 
	C26.399105,22.160269 26.802553,21.630514 27.477411,21.057526 
	C27.790823,21.452581 27.832827,21.890873 27.870600,22.660078 
z"/>
<path fill="#F0C3A7" opacity="1.000000" stroke="none" 
	d="
M24.468391,22.470242 
	C24.038782,22.876577 23.477865,22.925419 22.496777,22.985493 
	C21.985809,22.508333 21.895012,22.019943 21.852556,21.156313 
	C22.712961,21.224964 23.525021,21.668854 24.468391,22.470242 
z"/>
<path fill="#88572B" opacity="1.000000" stroke="none" 
	d="
M21.682678,25.129942 
	C22.024548,25.193008 22.118177,25.360687 22.295616,25.957775 
	C22.379427,26.387186 22.379015,26.789478 22.084032,26.971546 
	C21.529604,27.775772 21.270159,28.397928 21.010714,29.020084 
	C21.010714,29.020084 20.579453,29.030500 20.365072,29.038065 
	C20.100294,28.283138 20.049898,27.520647 20.006058,26.376146 
	C20.486557,25.740942 20.960499,25.487749 21.682678,25.129942 
z"/>
<path fill="#905D2C" opacity="1.000000" stroke="none" 
	d="
M18.776947,22.366184 
	C19.065756,22.307571 19.244356,22.461641 19.422958,22.615713 
	C19.334831,22.709764 19.246706,22.803816 18.970776,22.970753 
	C18.782974,23.043636 18.666742,22.578869 18.776947,22.366184 
z"/>
<path fill="#936234" opacity="1.000000" stroke="none" 
	d="
M21.291290,29.143223 
	C21.270159,28.397928 21.529604,27.775772 22.256302,26.893398 
	C22.723557,26.633183 23.024239,26.402229 23.339298,26.601908 
	C23.890593,26.879232 24.126829,26.956877 24.363066,27.034523 
	C24.275810,27.475201 24.188555,27.915876 23.870739,28.794250 
	C23.385443,29.427311 23.264626,29.685339 23.277721,30.006031 
	C23.277721,30.006031 23.260891,30.082884 23.234100,30.111275 
	C22.662161,29.848562 22.117016,29.557463 21.291290,29.143223 
z"/>
<path fill="#FBC8A6" opacity="1.000000" stroke="none" 
	d="
M24.518543,26.981905 
	C24.126829,26.956877 23.890593,26.879232 23.320129,26.515352 
	C22.985905,26.229118 22.919226,26.059576 22.919226,26.059576 
	C23.448162,25.998264 23.977100,25.936953 24.716206,26.207939 
	C24.926373,26.540237 25.011198,26.992884 25.011198,26.992884 
	C25.011198,26.992884 24.998449,26.996149 24.995613,27.001970 
	C24.992779,27.007792 24.674021,26.929287 24.518543,26.981905 
z"/>
<path fill="#C57710" opacity="1.000000" stroke="none" 
	d="
M23.456623,29.890415 
	C23.264626,29.685339 23.385443,29.427311 23.837894,29.129557 
	C23.979748,29.317907 23.846384,29.567120 23.456623,29.890415 
z"/>
<path fill="#E48C1D" opacity="1.000000" stroke="none" 
	d="
M25.293713,27.005325 
	C25.011198,26.992884 24.926373,26.540237 24.932510,26.311270 
	C25.128626,26.066328 25.318605,26.050356 25.795807,26.040318 
	C25.914097,26.370089 25.745163,26.693928 25.293713,27.005325 
z"/>
<path fill="#F0C3A7" opacity="1.000000" stroke="none" 
	d="
M22.820683,26.048428 
	C22.919226,26.059576 22.985905,26.229118 23.005072,26.315674 
	C23.024239,26.402229 22.723557,26.633183 22.551285,26.711330 
	C22.379015,26.789478 22.379427,26.387186 22.452438,26.199425 
	C22.525452,26.011662 22.722137,26.037279 22.820683,26.048428 
z"/>
</svg>