<svg xmlns="http://www.w3.org/2000/svg" xmlns:xlink="http://www.w3.org/1999/xlink" width="2000" zoomAndPan="magnify" viewBox="0 0 1500 1499.999933" height="2000" preserveAspectRatio="xMidYMid meet" version="1.0"><path fill="#2775ca" d="M 750 1500 C 1165.628906 1500 1500 1165.628906 1500 750 C 1500 334.371094 1165.628906 0 750 0 C 334.371094 0 0 334.371094 0 750 C 0 1165.628906 334.371094 1500 750 1500 Z M 750 1500 " fill-opacity="1" fill-rule="nonzero"/><path fill="#ffffff" d="M 956.25 868.746094 C 956.25 759.375 890.625 721.875 759.375 706.253906 C 665.625 693.75 646.875 668.753906 646.875 624.996094 C 646.875 581.242188 678.128906 553.125 740.625 553.125 C 796.875 553.125 828.128906 571.875 843.75 618.75 C 846.878906 628.125 856.253906 634.371094 865.628906 634.371094 L 915.621094 634.371094 C 928.125 634.371094 937.5 624.996094 937.5 612.503906 L 937.5 609.375 C 924.996094 540.621094 868.746094 487.5 796.875 481.253906 L 796.875 406.253906 C 796.875 393.75 787.5 384.375 771.878906 381.246094 L 725.003906 381.246094 C 712.5 381.246094 703.125 390.621094 699.996094 406.253906 L 699.996094 478.125 C 606.246094 490.628906 546.878906 553.125 546.878906 631.253906 C 546.878906 734.378906 609.375 774.996094 740.625 790.628906 C 828.128906 806.25 856.253906 825 856.253906 875.003906 C 856.253906 925.003906 812.496094 959.378906 753.128906 959.378906 C 671.871094 959.378906 643.746094 924.996094 634.371094 878.121094 C 631.253906 865.628906 621.878906 859.371094 612.503906 859.371094 L 559.371094 859.371094 C 546.878906 859.371094 537.503906 868.746094 537.503906 881.25 L 537.503906 884.378906 C 549.996094 962.496094 600 1018.746094 703.125 1034.378906 L 703.125 1109.378906 C 703.125 1121.871094 712.5 1131.246094 728.121094 1134.375 L 774.996094 1134.375 C 787.5 1134.375 796.875 1125 800.003906 1109.378906 L 800.003906 1034.378906 C 893.753906 1018.746094 956.25 953.121094 956.25 868.746094 Z M 956.25 868.746094 " fill-opacity="1" fill-rule="nonzero"/><path fill="#ffffff" d="M 590.625 1196.871094 C 346.875 1109.378906 221.871094 837.503906 312.503906 596.871094 C 359.378906 465.621094 462.503906 365.625 590.625 318.75 C 603.128906 312.503906 609.375 303.128906 609.375 287.496094 L 609.375 243.75 C 609.375 231.246094 603.128906 221.871094 590.625 218.753906 C 587.496094 218.753906 581.25 218.753906 578.121094 221.871094 C 281.25 315.621094 118.746094 631.253906 212.496094 928.125 C 268.746094 1103.121094 403.125 1237.5 578.121094 1293.75 C 590.625 1299.996094 603.128906 1293.75 606.246094 1281.246094 C 609.375 1278.128906 609.375 1275 609.375 1268.753906 L 609.375 1224.996094 C 609.375 1215.621094 600 1203.128906 590.625 1196.871094 Z M 921.878906 221.871094 C 909.375 215.625 896.871094 221.871094 893.753906 234.375 C 890.625 237.503906 890.625 240.621094 890.625 246.878906 L 890.625 290.625 C 890.625 303.128906 900 315.621094 909.375 321.878906 C 1153.125 409.371094 1278.128906 681.246094 1187.496094 921.878906 C 1140.621094 1053.128906 1037.496094 1153.125 909.375 1200 C 896.871094 1206.246094 890.625 1215.621094 890.625 1231.253906 L 890.625 1275 C 890.625 1287.503906 896.871094 1296.878906 909.375 1299.996094 C 912.503906 1299.996094 918.75 1299.996094 921.878906 1296.878906 C 1218.75 1203.128906 1381.253906 887.496094 1287.503906 590.625 C 1231.253906 412.5 1093.746094 278.121094 921.878906 221.871094 Z M 921.878906 221.871094 " fill-opacity="1" fill-rule="nonzero"/><path stroke-linecap="butt" transform="matrix(0.570368, -0.487012, 0.487012, 0.570368, 153.404391, 1208.114876)" fill="none" stroke-linejoin="miter" d="M -0.000680301 49.998612 L 2005.757427 49.997391 " stroke="#545454" stroke-width="100" stroke-opacity="1" stroke-miterlimit="4"/><path stroke-linecap="butt" transform="matrix(-0.498243, -0.560583, 0.560583, -0.498243, 1220.163216, 1335.442593)" fill="none" stroke-linejoin="miter" d="M 0.0000319764 49.998305 L 1999.826183 50.001376 " stroke="#545454" stroke-width="100" stroke-opacity="1" stroke-miterlimit="4"/></svg>