<svg version="1.1" id="Layer_1" xmlns="http://www.w3.org/2000/svg" xmlns:xlink="http://www.w3.org/1999/xlink" x="0px" y="0px"
	 width="100%" viewBox="0 0 64 64" enable-background="new 0 0 64 64" xml:space="preserve">
<path fill="#ECEFF0" opacity="1.000000" stroke="none" 
	d="
M1.000000,47.000000 
	C1.000000,38.312439 1.000000,29.624874 1.342246,20.393213 
	C4.414793,16.725319 7.016542,13.476082 9.909692,10.511193 
	C13.134949,7.205960 16.625132,4.159243 20.000000,1.000000 
	C28.354233,1.000000 36.708466,1.000000 45.589996,1.342402 
	C48.416756,3.175609 50.716209,4.666415 52.976616,6.464250 
	C53.123352,11.010639 55.687714,13.319533 60.018280,13.297117 
	C61.799297,15.740205 63.399651,17.870102 65.000000,20.000000 
	C65.000000,28.354233 65.000000,36.708466 64.665543,45.635368 
	C60.377701,53.708088 54.536991,59.185734 46.840923,62.757149 
	C46.324818,62.996647 46.269585,64.229279 46.000000,65.000000 
	C37.645767,65.000000 29.291536,65.000000 20.362190,64.668823 
	C17.182182,62.851162 14.577292,61.364674 11.832207,59.676872 
	C11.439477,59.253410 11.147669,59.112652 10.599923,58.991730 
	C10.106606,58.755306 9.959514,58.504475 9.992569,57.825661 
	C11.797776,52.851910 9.326153,53.016731 6.045632,53.657860 
	C4.312944,51.202896 2.656472,49.101448 1.000000,47.000000 
M34.732845,58.632236 
	C39.261440,52.384712 43.790039,46.137192 48.318638,39.889668 
	C47.979630,39.463608 47.640621,39.037552 47.301613,38.611492 
	C42.905663,40.798027 38.509712,42.984566 33.342335,45.093365 
	C28.827394,42.919708 24.312454,40.746048 19.797514,38.572392 
	C19.510933,38.800270 19.224352,39.028152 18.937773,39.256035 
	C23.997726,45.784397 29.057680,52.312759 34.732845,58.632236 
M35.825684,41.946728 
	C40.541073,38.966404 45.256462,35.986084 49.935131,32.304585 
	C44.952404,24.206573 39.969673,16.108564 34.944675,7.495030 
	C34.544792,7.478549 34.144909,7.462067 33.444744,7.972521 
	C33.392723,8.167876 33.340706,8.363233 32.701977,8.833302 
	C28.113907,16.537106 23.525835,24.240908 18.404135,32.437344 
	C18.369579,33.173229 18.042175,34.388741 18.344299,34.573215 
	C23.034929,37.437199 27.776529,40.223804 32.603054,42.850609 
	C33.144939,43.145527 34.274315,42.360981 35.825684,41.946728 
z"/>
<path fill="#4C6971" opacity="1.000000" stroke="none" 
	d="
M46.469376,65.000000 
	C46.269585,64.229279 46.324818,62.996647 46.840923,62.757149 
	C54.536991,59.185734 60.377701,53.708088 64.665543,46.104019 
	C65.000000,52.259235 65.000000,58.518467 65.000000,65.000000 
	C58.981396,65.000000 52.960072,65.000000 46.469376,65.000000 
z"/>
<path fill="#4D6A71" opacity="1.000000" stroke="none" 
	d="
M19.530624,1.000000 
	C16.625132,4.159243 13.134949,7.205960 9.909692,10.511193 
	C7.016542,13.476082 4.414793,16.725319 1.342246,19.924557 
	C1.000000,13.740766 1.000000,7.481532 1.000000,1.000000 
	C7.018606,1.000000 13.039927,1.000000 19.530624,1.000000 
z"/>
<path fill="#4C6971" opacity="1.000000" stroke="none" 
	d="
M53.015667,6.157220 
	C50.716209,4.666415 48.416756,3.175609 46.058647,1.342402 
	C52.259235,1.000000 58.518467,1.000000 65.000000,1.000000 
	C65.000000,7.018606 65.000000,13.039927 65.000000,19.530624 
	C63.399651,17.870102 61.799297,15.740205 60.083233,12.943058 
	C57.650238,10.236279 55.332951,8.196750 53.015667,6.157220 
z"/>
<path fill="#4C6971" opacity="1.000000" stroke="none" 
	d="
M1.000000,47.469711 
	C2.656472,49.101448 4.312944,51.202896 6.088103,53.990341 
	C7.451853,55.843449 8.696918,57.010555 9.941980,58.177666 
	C9.959514,58.504475 10.106606,58.755306 10.715626,59.231075 
	C11.356128,59.647385 11.664265,59.762783 11.972401,59.878181 
	C14.577292,61.364674 17.182182,62.851162 19.893536,64.668823 
	C13.742913,65.000000 7.485826,65.000000 1.000000,65.000000 
	C1.000000,59.315166 1.000000,53.627293 1.000000,47.469711 
z"/>
<path fill="#323333" opacity="1.000000" stroke="none" 
	d="
M33.288685,8.558588 
	C33.340706,8.363233 33.392723,8.167876 33.889511,7.885776 
	C34.551838,7.869539 34.769394,7.940047 34.986946,8.010554 
	C39.969673,16.108564 44.952404,24.206573 49.597836,32.600170 
	C44.173149,30.929216 39.085754,28.962679 33.989685,26.718643 
	C33.970779,26.256336 33.960556,26.071529 33.964153,25.425682 
	C33.748211,19.495958 33.518448,14.027273 33.288685,8.558588 
z"/>
<path fill="#828384" opacity="1.000000" stroke="none" 
	d="
M32.995331,8.695946 
	C33.518448,14.027273 33.748211,19.495958 33.653114,25.599983 
	C28.531425,28.138453 23.734596,30.041580 18.937767,31.944710 
	C23.525835,24.240908 28.113907,16.537106 32.995331,8.695946 
z"/>
<path fill="#363737" opacity="1.000000" stroke="none" 
	d="
M18.670952,32.191025 
	C23.734596,30.041580 28.531425,28.138453 33.639297,26.061024 
	C33.960556,26.071529 33.970779,26.256336 33.983063,27.184765 
	C34.367165,32.644596 34.749207,37.360806 35.131252,42.077019 
	C34.274315,42.360981 33.144939,43.145527 32.603054,42.850609 
	C27.776529,40.223804 23.034929,37.437199 18.344299,34.573215 
	C18.042175,34.388741 18.369579,33.173229 18.670952,32.191025 
z"/>
<path fill="#151515" opacity="1.000000" stroke="none" 
	d="
M35.478470,42.011871 
	C34.749207,37.360806 34.367165,32.644596 33.991745,27.462261 
	C39.085754,28.962679 44.173149,30.929216 49.616196,32.950760 
	C45.256462,35.986084 40.541073,38.966404 35.478470,42.011871 
z"/>
<path fill="#363737" opacity="1.000000" stroke="none" 
	d="
M34.113762,45.171101 
	C38.509712,42.984566 42.905663,40.798027 47.301613,38.611492 
	C47.640621,39.037552 47.979630,39.463608 48.318638,39.889668 
	C43.790039,46.137192 39.261440,52.384712 34.376251,58.286026 
	C34.051025,53.683575 34.082394,49.427338 34.113762,45.171101 
z"/>
<path fill="#868788" opacity="1.000000" stroke="none" 
	d="
M33.728050,45.132233 
	C34.082394,49.427338 34.051025,53.683575 34.068645,58.390469 
	C29.057680,52.312759 23.997726,45.784397 18.937773,39.256035 
	C19.224352,39.028152 19.510933,38.800270 19.797514,38.572392 
	C24.312454,40.746048 28.827394,42.919708 33.728050,45.132233 
z"/>
<path fill="#FCFCFC" opacity="1.000000" stroke="none" 
	d="
M52.976616,6.464250 
	C55.332951,8.196750 57.650238,10.236279 59.902565,12.629868 
	C55.687714,13.319533 53.123352,11.010639 52.976616,6.464250 
z"/>
<path fill="#F9FBFB" opacity="1.000000" stroke="none" 
	d="
M9.992569,57.825661 
	C8.696918,57.010555 7.451853,55.843449 6.164319,54.343861 
	C9.326153,53.016731 11.797776,52.851910 9.992569,57.825661 
z"/>
<path fill="#828384" opacity="1.000000" stroke="none" 
	d="
M34.965813,7.752792 
	C34.769394,7.940047 34.551838,7.869539 34.039650,7.622308 
	C34.144909,7.462067 34.544792,7.478549 34.965813,7.752792 
z"/>
<path fill="#F9FBFB" opacity="1.000000" stroke="none" 
	d="
M11.832207,59.676876 
	C11.664265,59.762783 11.356128,59.647385 10.932289,59.292641 
	C11.147669,59.112652 11.439477,59.253410 11.832207,59.676876 
z"/>
</svg>