<svg version="1.1" id="Layer_1" xmlns="http://www.w3.org/2000/svg" xmlns:xlink="http://www.w3.org/1999/xlink" x="0px" y="0px"
	 width="100%" viewBox="0 0 64 64" enable-background="new 0 0 64 64" xml:space="preserve">
<path fill="#2775CA" opacity="1.000000" stroke="none" 
	d="
M1.000000,43.000000 
	C1.000000,36.645603 1.000000,30.291204 1.292084,23.786570 
	C1.840511,23.428331 2.226863,23.272543 2.334404,23.004778 
	C6.199913,13.380055 12.426271,6.138731 22.543238,2.724387 
	C22.854074,2.619483 22.854733,1.595498 23.000000,1.000000 
	C29.354399,1.000000 35.708797,1.000000 42.213322,1.292000 
	C42.690582,1.955620 42.947441,2.524821 43.355171,2.669848 
	C52.597172,5.957172 59.063007,12.084479 62.724377,21.222048 
	C63.033932,21.994602 64.220741,22.415651 65.000000,23.000000 
	C65.000000,29.354399 65.000000,35.708797 64.739944,42.198654 
	C64.022240,42.786697 63.344181,43.156952 63.139812,43.704128 
	C59.701828,52.909046 53.429779,59.286827 44.319107,62.960468 
	C43.705109,63.208054 43.431778,64.300499 43.000000,65.000000 
	C36.645603,65.000000 30.291204,65.000000 23.798740,64.727722 
	C23.200476,64.000923 22.820602,63.326427 22.268110,63.124695 
	C13.026206,59.750198 6.664453,53.486637 3.041872,44.345341 
	C2.795898,43.724648 1.700402,43.440609 1.000000,43.000000 
M20.232183,36.575909 
	C21.678469,36.821365 23.124752,37.066826 24.770355,37.346111 
	C25.164753,42.368279 28.807285,45.078846 33.016251,45.697716 
	C36.544621,46.216518 40.205059,44.374290 41.947735,39.223289 
	C40.083813,39.577610 38.505898,39.460926 37.456577,40.149624 
	C33.063721,43.032761 31.658503,42.633770 29.458750,37.736286 
	C31.490705,36.976768 33.546104,36.208488 35.601505,35.440208 
	C35.442219,35.007645 35.282936,34.575077 35.123650,34.142513 
	C32.785870,34.008942 30.448090,33.875374 28.110310,33.741802 
	C28.102871,33.448116 28.095434,33.154427 28.087996,32.860741 
	C30.632275,32.107105 33.176552,31.353470 35.720829,30.599836 
	C35.574379,30.136490 35.427925,29.673141 35.281471,29.209795 
	C33.236080,29.034170 31.190685,28.858547 28.519018,28.629148 
	C31.356432,24.770323 33.510113,21.746025 37.795261,26.070831 
	C38.446812,26.728409 40.333160,26.162510 42.154301,26.162510 
	C37.484257,18.964283 31.835155,19.285992 28.936571,21.805695 
	C25.698166,24.620798 23.209326,28.298182 20.427671,31.561110 
	C21.458548,31.879520 22.718204,32.268593 24.298567,32.756725 
	C22.586777,33.998245 21.350245,34.895073 20.232183,36.575909 
M16.930202,45.397736 
	C8.965554,34.102104 13.571486,21.177771 24.789436,14.973030 
	C25.861528,14.380047 26.448481,12.909950 27.548386,11.470484 
	C18.758966,10.180361 9.856971,21.775673 9.027549,30.720264 
	C7.884378,43.048355 16.247105,54.674740 28.059624,55.779259 
	C26.632734,53.813034 25.959496,52.395210 24.865923,51.479187 
	C22.501373,49.498520 19.921362,47.775078 16.930202,45.397736 
M51.951790,39.992798 
	C49.548409,44.950462 46.521774,49.230572 41.159996,51.536549 
	C40.014252,52.029305 39.504948,54.001892 38.125088,56.221432 
	C51.791004,53.401756 58.730598,40.227726 56.803802,29.789190 
	C54.802189,18.945312 46.286549,10.504921 38.165188,11.717285 
	C39.559555,13.159132 40.388092,14.465582 41.574104,15.171062 
	C50.966339,20.757868 54.618931,29.049723 51.951790,39.992798 
z"/>
<path fill="#000000" opacity="1.000000" stroke="none" 
	d="
M43.468784,65.000000 
	C43.431778,64.300499 43.705109,63.208054 44.319107,62.960468 
	C53.429779,59.286827 59.701828,52.909046 63.139812,43.704128 
	C63.344181,43.156952 64.022240,42.786697 64.739944,42.667057 
	C65.000000,50.259567 65.000000,57.519135 65.000000,65.000000 
	C57.980732,65.000000 50.959148,65.000000 43.468784,65.000000 
z"/>
<path fill="#000000" opacity="1.000000" stroke="none" 
	d="
M1.000000,43.468781 
	C1.700402,43.440609 2.795898,43.724648 3.041872,44.345341 
	C6.664453,53.486637 13.026206,59.750198 22.268110,63.124695 
	C22.820602,63.326427 23.200476,64.000923 23.330338,64.727722 
	C15.740432,65.000000 8.480865,65.000000 1.000000,65.000000 
	C1.000000,57.980732 1.000000,50.959148 1.000000,43.468781 
z"/>
<path fill="#000000" opacity="1.000000" stroke="none" 
	d="
M65.000000,22.531218 
	C64.220741,22.415651 63.033932,21.994602 62.724377,21.222048 
	C59.063007,12.084479 52.597172,5.957172 43.355171,2.669848 
	C42.947441,2.524821 42.690582,1.955620 42.681725,1.292000 
	C50.259567,1.000000 57.519135,1.000000 65.000000,1.000000 
	C65.000000,8.019269 65.000000,15.040852 65.000000,22.531218 
z"/>
<path fill="#000000" opacity="1.000000" stroke="none" 
	d="
M22.531218,1.000000 
	C22.854733,1.595498 22.854074,2.619483 22.543238,2.724387 
	C12.426271,6.138731 6.199913,13.380055 2.334404,23.004778 
	C2.226863,23.272543 1.840511,23.428331 1.292084,23.318167 
	C1.000000,15.740432 1.000000,8.480865 1.000000,1.000000 
	C8.019269,1.000000 15.040852,1.000000 22.531218,1.000000 
z"/>
<path fill="#FFFFFF" opacity="1.000000" stroke="none" 
	d="
M20.172947,36.183907 
	C21.350245,34.895073 22.586777,33.998245 24.298567,32.756725 
	C22.718204,32.268593 21.458548,31.879520 20.427671,31.561110 
	C23.209326,28.298182 25.698166,24.620798 28.936571,21.805695 
	C31.835155,19.285992 37.484257,18.964283 42.154301,26.162510 
	C40.333160,26.162510 38.446812,26.728409 37.795261,26.070831 
	C33.510113,21.746025 31.356432,24.770323 28.519018,28.629148 
	C31.190685,28.858547 33.236080,29.034170 35.281471,29.209795 
	C35.427925,29.673141 35.574379,30.136490 35.720829,30.599836 
	C33.176552,31.353470 30.632275,32.107105 28.087996,32.860741 
	C28.095434,33.154427 28.102871,33.448116 28.110310,33.741802 
	C30.448090,33.875374 32.785870,34.008942 35.123650,34.142513 
	C35.282936,34.575077 35.442219,35.007645 35.601505,35.440208 
	C33.546104,36.208488 31.490705,36.976768 29.458750,37.736286 
	C31.658503,42.633770 33.063721,43.032761 37.456577,40.149624 
	C38.505898,39.460926 40.083813,39.577610 41.947735,39.223289 
	C40.205059,44.374290 36.544621,46.216518 33.016251,45.697716 
	C28.807285,45.078846 25.164753,42.368279 24.770355,37.346111 
	C23.124752,37.066826 21.678469,36.821365 20.172947,36.183907 
z"/>
<path fill="#FFFFFF" opacity="1.000000" stroke="none" 
	d="
M17.179844,45.672073 
	C19.921362,47.775078 22.501373,49.498520 24.865923,51.479187 
	C25.959496,52.395210 26.632734,53.813034 28.059624,55.779259 
	C16.247105,54.674740 7.884378,43.048355 9.027549,30.720264 
	C9.856971,21.775673 18.758966,10.180361 27.548386,11.470484 
	C26.448481,12.909950 25.861528,14.380047 24.789436,14.973030 
	C13.571486,21.177771 8.965554,34.102104 17.179844,45.672073 
z"/>
<path fill="#FFFFFF" opacity="1.000000" stroke="none" 
	d="
M51.973598,39.581467 
	C54.618931,29.049723 50.966339,20.757868 41.574104,15.171062 
	C40.388092,14.465582 39.559555,13.159132 38.165188,11.717285 
	C46.286549,10.504921 54.802189,18.945312 56.803802,29.789190 
	C58.730598,40.227726 51.791004,53.401756 38.125088,56.221432 
	C39.504948,54.001892 40.014252,52.029305 41.159996,51.536549 
	C46.521774,49.230572 49.548409,44.950462 51.973598,39.581467 
z"/>
</svg>