<svg version="1.1" id="Layer_1" xmlns="http://www.w3.org/2000/svg" xmlns:xlink="http://www.w3.org/1999/xlink" x="0px" y="0px"
	 width="100%" viewBox="0 0 250 250" enable-background="new 0 0 250 250" xml:space="preserve">
<path fill="#2976CA" opacity="1.000000" stroke="none" 
	d="
M251.000000,101.000000 
	C251.000000,117.687561 251.000000,134.375122 250.593796,151.555710 
	C249.792297,152.827133 249.280258,153.568497 249.019714,154.389648 
	C246.338165,162.840775 244.548660,171.704956 240.811890,179.655640 
	C236.870438,188.041763 231.597672,195.954315 225.948563,203.341141 
	C220.723740,210.173172 214.634369,216.489746 208.193146,222.208130 
	C200.552048,228.991745 192.596207,235.562057 182.689926,239.124680 
	C174.857162,241.941589 167.118759,245.023773 159.366318,248.059326 
	C157.193512,248.910110 155.119385,250.012833 153.000000,251.000000 
	C135.312439,251.000000 117.624878,251.000000 99.444336,250.593842 
	C98.505577,249.807098 98.119308,249.233139 97.605118,249.074936 
	C89.729118,246.651611 81.515877,245.013412 74.023628,241.727509 
	C63.102566,236.937805 52.945591,230.781677 43.877880,222.665878 
	C31.089766,211.220245 19.919542,198.700119 13.115953,182.824265 
	C9.431339,174.226395 6.531425,165.293411 3.218877,156.533783 
	C2.626342,154.966888 1.746947,153.508499 1.000001,152.000000 
	C1.000000,134.979111 1.000000,117.958214 1.406045,100.444351 
	C2.644014,96.764862 3.156083,93.450157 4.371465,90.417313 
	C7.307390,83.091019 10.263385,75.742096 13.790218,68.691895 
	C17.332207,61.611393 20.854813,54.323898 25.662043,48.115189 
	C35.310104,35.654369 47.064671,25.142029 60.707310,17.207153 
	C71.931259,10.679045 83.672752,4.976229 96.778259,2.926623 
	C97.599190,2.798235 98.263054,1.665482 99.000000,0.999999 
	C116.687561,1.000000 134.375122,1.000000 152.289948,1.354454 
	C153.015503,2.111078 153.452026,2.691800 154.021301,2.888707 
	C162.884323,5.954336 172.326614,7.912534 180.502838,12.257285 
	C191.479355,18.090061 202.130524,24.973461 211.691071,32.891346 
	C219.093613,39.022003 225.468201,46.870140 230.759171,54.962105 
	C238.606018,66.962990 245.357666,79.719963 248.084564,94.149956 
	C248.534683,96.531891 250.002502,98.721504 251.000000,101.000000 
M156.268631,99.861359 
	C159.246384,98.567970 160.387405,96.637405 158.572815,93.557358 
	C153.208786,84.452553 145.754578,78.286774 134.967804,76.971855 
	C116.438660,74.713135 101.337784,84.811722 95.210007,103.882751 
	C93.942978,107.826019 92.373650,110.143051 88.016792,109.269661 
	C81.857330,108.034920 78.911568,112.038734 76.304482,116.453011 
	C74.420128,119.643562 75.680740,121.646423 79.182121,121.976143 
	C82.155846,122.256172 85.179863,122.186142 88.171059,122.045815 
	C91.260368,121.900894 91.669670,123.625626 91.693810,126.133133 
	C91.719360,128.787170 90.889160,130.541275 88.013573,129.981216 
	C82.052254,128.820160 79.185722,132.609009 76.551186,136.816422 
	C74.374077,140.293320 75.508659,142.501038 79.699707,142.776581 
	C82.686089,142.972916 85.709656,143.025909 88.689156,142.792358 
	C92.039558,142.529739 93.526772,143.794312 94.853539,147.003418 
	C97.119553,152.484314 99.600739,158.164047 103.277191,162.723633 
	C118.283112,181.334213 145.578735,179.460846 157.710129,159.330368 
	C159.343857,156.619415 161.513519,153.874680 157.231918,151.374313 
	C150.450516,147.414154 148.416122,147.443329 145.476135,151.904831 
	C140.465683,159.508331 133.707169,162.558044 125.964035,160.709473 
	C118.779442,158.994263 112.291023,151.483459 111.123619,142.841110 
	C115.464500,142.841110 119.751060,142.484116 123.952232,142.930588 
	C129.324265,143.501480 133.010986,141.532211 135.271957,136.831879 
	C135.998886,135.320663 136.954514,133.076202 136.342865,131.993607 
	C135.687759,130.834091 133.323151,130.174286 131.678497,130.122177 
	C125.187775,129.916595 118.685158,129.950027 112.190346,130.073196 
	C109.382088,130.126419 107.859695,129.446976 107.816963,126.242279 
	C107.772522,122.910286 109.140625,121.909523 112.305626,122.016884 
	C117.630135,122.197495 122.968269,122.145706 128.295639,122.003326 
	C131.094849,121.928528 137.311630,115.378693 136.897659,112.724579 
	C136.106400,107.651756 131.857925,109.469055 128.877441,109.350883 
	C122.983025,109.117195 117.072815,109.281906 111.169136,109.281906 
	C110.858192,108.797432 110.547249,108.312958 110.236298,107.828491 
	C112.413414,104.233856 114.148247,100.258484 116.852226,97.117386 
	C124.368210,88.386375 136.568558,88.702545 143.825439,97.447258 
	C148.580261,103.176933 148.580246,103.176941 156.268631,99.861359 
M44.539471,80.994179 
	C24.228643,116.353897 29.529652,161.622971 57.477440,191.356476 
	C68.176277,202.738922 80.879776,211.041992 95.674736,216.113297 
	C98.376381,217.039337 100.997444,217.621902 102.257141,214.072296 
	C104.577225,207.534714 102.130043,202.102249 95.656364,199.269791 
	C66.432739,186.483444 47.299610,158.195831 48.101719,127.258492 
	C48.987000,93.113197 65.660713,69.021378 96.821831,55.125465 
	C100.942123,53.288074 102.681221,50.900791 102.631638,46.437855 
	C102.530258,37.311413 101.357613,36.368202 92.678284,39.716770 
	C72.019714,47.687061 56.138382,61.297955 44.539471,80.994179 
M200.702026,105.073639 
	C201.719711,110.972878 203.313828,116.838539 203.659698,122.776909 
	C205.618484,156.407272 186.777679,186.074402 155.325287,199.758148 
	C153.111099,200.721451 150.151550,202.711578 149.804672,204.633286 
	C149.162781,208.189484 150.199310,212.048630 150.536743,215.781616 
	C153.819489,215.393875 157.375473,215.694641 160.344482,214.516357 
	C215.642609,192.570633 236.810532,125.749138 204.249252,75.922211 
	C192.655869,58.181396 176.646530,45.812466 156.628036,38.848515 
	C154.735626,38.190189 151.160828,38.578915 150.148926,39.873859 
	C146.831482,44.119270 149.789642,52.760777 154.843781,54.894016 
	C177.531311,64.469902 192.646790,81.010315 200.702026,105.073639 
z"/>
<path fill="#000000" opacity="1.000000" stroke="none" 
	d="
M251.000000,100.531342 
	C250.002502,98.721504 248.534683,96.531891 248.084564,94.149956 
	C245.357666,79.719963 238.606018,66.962990 230.759171,54.962105 
	C225.468201,46.870140 219.093613,39.022003 211.691071,32.891346 
	C202.130524,24.973461 191.479355,18.090061 180.502838,12.257285 
	C172.326614,7.912534 162.884323,5.954336 154.021301,2.888707 
	C153.452026,2.691800 153.015503,2.111078 152.758606,1.354454 
	C185.594330,1.000000 218.188675,1.000000 251.000000,1.000000 
	C251.000000,34.020576 251.000000,67.041634 251.000000,100.531342 
z"/>
<path fill="#000000" opacity="1.000000" stroke="none" 
	d="
M98.531342,0.999999 
	C98.263054,1.665482 97.599190,2.798235 96.778259,2.926623 
	C83.672752,4.976229 71.931259,10.679045 60.707310,17.207153 
	C47.064671,25.142029 35.310104,35.654369 25.662043,48.115189 
	C20.854813,54.323898 17.332207,61.611393 13.790218,68.691895 
	C10.263385,75.742096 7.307390,83.091019 4.371465,90.417313 
	C3.156083,93.450157 2.644014,96.764862 1.406045,99.975693 
	C1.000000,67.073441 1.000000,34.146877 1.000000,1.000000 
	C33.353893,1.000000 65.708290,1.000000 98.531342,0.999999 
z"/>
<path fill="#000000" opacity="1.000000" stroke="none" 
	d="
M153.468658,251.000000 
	C155.119385,250.012833 157.193512,248.910110 159.366318,248.059326 
	C167.118759,245.023773 174.857162,241.941589 182.689926,239.124680 
	C192.596207,235.562057 200.552048,228.991745 208.193146,222.208130 
	C214.634369,216.489746 220.723740,210.173172 225.948563,203.341141 
	C231.597672,195.954315 236.870438,188.041763 240.811890,179.655640 
	C244.548660,171.704956 246.338165,162.840775 249.019714,154.389648 
	C249.280258,153.568497 249.792297,152.827133 250.593796,152.024368 
	C251.000000,184.926559 251.000000,217.853119 251.000000,251.000000 
	C218.646103,251.000000 186.291718,251.000000 153.468658,251.000000 
z"/>
<path fill="#000000" opacity="1.000000" stroke="none" 
	d="
M1.000001,152.468658 
	C1.746947,153.508499 2.626342,154.966888 3.218877,156.533783 
	C6.531425,165.293411 9.431339,174.226395 13.115953,182.824265 
	C19.919542,198.700119 31.089766,211.220245 43.877880,222.665878 
	C52.945591,230.781677 63.102566,236.937805 74.023628,241.727509 
	C81.515877,245.013412 89.729118,246.651611 97.605118,249.074936 
	C98.119308,249.233139 98.505577,249.807098 98.975677,250.593842 
	C66.406029,251.000000 33.812065,251.000000 1.000000,251.000000 
	C1.000000,218.312759 1.000000,185.625046 1.000001,152.468658 
z"/>
<path fill="#F6F9FD" opacity="1.000000" stroke="none" 
	d="
M155.932724,99.993942 
	C148.580246,103.176941 148.580261,103.176933 143.825439,97.447258 
	C136.568558,88.702545 124.368210,88.386375 116.852226,97.117386 
	C114.148247,100.258484 112.413414,104.233856 110.236298,107.828491 
	C110.547249,108.312958 110.858192,108.797432 111.169136,109.281906 
	C117.072815,109.281906 122.983025,109.117195 128.877441,109.350883 
	C131.857925,109.469055 136.106400,107.651756 136.897659,112.724579 
	C137.311630,115.378693 131.094849,121.928528 128.295639,122.003326 
	C122.968269,122.145706 117.630135,122.197495 112.305626,122.016884 
	C109.140625,121.909523 107.772522,122.910286 107.816963,126.242279 
	C107.859695,129.446976 109.382088,130.126419 112.190346,130.073196 
	C118.685158,129.950027 125.187775,129.916595 131.678497,130.122177 
	C133.323151,130.174286 135.687759,130.834091 136.342865,131.993607 
	C136.954514,133.076202 135.998886,135.320663 135.271957,136.831879 
	C133.010986,141.532211 129.324265,143.501480 123.952232,142.930588 
	C119.751060,142.484116 115.464500,142.841110 111.123619,142.841110 
	C112.291023,151.483459 118.779442,158.994263 125.964035,160.709473 
	C133.707169,162.558044 140.465683,159.508331 145.476135,151.904831 
	C148.416122,147.443329 150.450516,147.414154 157.231918,151.374313 
	C161.513519,153.874680 159.343857,156.619415 157.710129,159.330368 
	C145.578735,179.460846 118.283112,181.334213 103.277191,162.723633 
	C99.600739,158.164047 97.119553,152.484314 94.853539,147.003418 
	C93.526772,143.794312 92.039558,142.529739 88.689156,142.792358 
	C85.709656,143.025909 82.686089,142.972916 79.699707,142.776581 
	C75.508659,142.501038 74.374077,140.293320 76.551186,136.816422 
	C79.185722,132.609009 82.052254,128.820160 88.013573,129.981216 
	C90.889160,130.541275 91.719360,128.787170 91.693810,126.133133 
	C91.669670,123.625626 91.260368,121.900894 88.171059,122.045815 
	C85.179863,122.186142 82.155846,122.256172 79.182121,121.976143 
	C75.680740,121.646423 74.420128,119.643562 76.304482,116.453011 
	C78.911568,112.038734 81.857330,108.034920 88.016792,109.269661 
	C92.373650,110.143051 93.942978,107.826019 95.210007,103.882751 
	C101.337784,84.811722 116.438660,74.713135 134.967804,76.971855 
	C145.754578,78.286774 153.208786,84.452553 158.572815,93.557358 
	C160.387405,96.637405 159.246384,98.567970 155.932724,99.993942 
z"/>
<path fill="#F7FAFD" opacity="1.000000" stroke="none" 
	d="
M44.722885,80.677452 
	C56.138382,61.297955 72.019714,47.687061 92.678284,39.716770 
	C101.357613,36.368202 102.530258,37.311413 102.631638,46.437855 
	C102.681221,50.900791 100.942123,53.288074 96.821831,55.125465 
	C65.660713,69.021378 48.987000,93.113197 48.101719,127.258492 
	C47.299610,158.195831 66.432739,186.483444 95.656364,199.269791 
	C102.130043,202.102249 104.577225,207.534714 102.257141,214.072296 
	C100.997444,217.621902 98.376381,217.039337 95.674736,216.113297 
	C80.879776,211.041992 68.176277,202.738922 57.477440,191.356476 
	C29.529652,161.622971 24.228643,116.353897 44.722885,80.677452 
z"/>
<path fill="#F7FAFD" opacity="1.000000" stroke="none" 
	d="
M200.580475,104.689682 
	C192.646790,81.010315 177.531311,64.469902 154.843781,54.894016 
	C149.789642,52.760777 146.831482,44.119270 150.148926,39.873859 
	C151.160828,38.578915 154.735626,38.190189 156.628036,38.848515 
	C176.646530,45.812466 192.655869,58.181396 204.249252,75.922211 
	C236.810532,125.749138 215.642609,192.570633 160.344482,214.516357 
	C157.375473,215.694641 153.819489,215.393875 150.536743,215.781616 
	C150.199310,212.048630 149.162781,208.189484 149.804672,204.633286 
	C150.151550,202.711578 153.111099,200.721451 155.325287,199.758148 
	C186.777679,186.074402 205.618484,156.407272 203.659698,122.776909 
	C203.313828,116.838539 201.719711,110.972878 200.580475,104.689682 
z"/>
</svg>