<svg version="1.1" id="Layer_1" xmlns="http://www.w3.org/2000/svg" xmlns:xlink="http://www.w3.org/1999/xlink" x="0px" y="0px"
	 width="100%" viewBox="0 0 64 64" enable-background="new 0 0 64 64" xml:space="preserve">
<path fill="#FFFFFF" opacity="1.000000" stroke="none" 
	d="
M38.000000,1.000000 
	C46.926434,1.000000 55.852863,1.000000 65.000000,1.000000 
	C65.000000,9.686316 65.000000,18.374496 64.674660,27.399490 
	C63.937672,26.475330 63.526028,25.214354 63.072121,23.579098 
	C61.741215,20.604259 60.452564,18.003702 59.111961,15.079822 
	C57.072475,12.817802 55.084938,10.879108 52.958397,8.624235 
	C49.883377,6.592491 46.947357,4.876926 43.645233,3.079567 
	C41.519417,2.331849 39.759708,1.665925 38.000000,1.000000 
z"/>
<path fill="#FFFFFF" opacity="1.000000" stroke="none" 
	d="
M65.000000,39.000000 
	C65.000000,47.594471 65.000000,56.188946 65.000000,65.000000 
	C56.313637,65.000000 47.625481,65.000000 38.627289,64.650368 
	C45.806931,62.584427 52.857906,60.135822 57.434517,52.895145 
	C60.164661,48.169994 62.582333,43.584999 65.000000,39.000000 
z"/>
<path fill="#FFFFFF" opacity="1.000000" stroke="none" 
	d="
M1.000000,27.000000 
	C1.000000,18.405525 1.000000,9.811052 1.000000,1.000000 
	C9.686362,1.000000 18.374519,1.000000 27.331909,1.329945 
	C23.388311,3.411936 19.175480,5.163980 14.648907,7.051595 
	C11.190726,10.772105 8.046286,14.357047 4.600806,18.141232 
	C3.199845,21.226984 2.099922,24.113493 1.000000,27.000000 
z"/>
<path fill="#FFFFFF" opacity="1.000000" stroke="none" 
	d="
M27.000000,65.000000 
	C18.406929,65.000000 9.813859,65.000000 1.000000,65.000000 
	C1.000000,56.647072 1.000000,48.292202 1.331353,39.634102 
	C2.163132,41.223248 2.663558,43.115620 3.214559,45.345245 
	C4.808356,47.846397 6.351579,50.010296 7.934202,52.514767 
	C9.950404,54.632076 11.927205,56.408817 14.069980,58.476635 
	C16.493824,60.127472 18.751696,61.487232 21.380098,62.920975 
	C23.500420,63.663303 25.250210,64.331650 27.000000,65.000000 
z"/>
<path fill="#3A997D" opacity="1.000000" stroke="none" 
	d="
M27.458069,65.000000 
	C25.250210,64.331650 23.500420,63.663303 21.414200,62.597050 
	C21.731518,61.084682 22.385265,59.970219 23.440128,58.923866 
	C34.371677,62.474972 43.586826,59.840847 52.324921,52.972870 
	C54.214500,53.001461 55.668270,53.018379 57.122044,53.035301 
	C52.857906,60.135822 45.806931,62.584427 38.158630,64.650368 
	C34.638714,65.000000 31.277426,65.000000 27.458069,65.000000 
z"/>
<path fill="#84D38E" opacity="1.000000" stroke="none" 
	d="
M14.962646,6.916026 
	C19.175480,5.163980 23.388311,3.411936 27.800571,1.329945 
	C31.030594,1.000000 34.061188,1.000000 37.545891,1.000000 
	C39.759708,1.665925 41.519417,2.331849 43.598824,3.421391 
	C43.595505,4.944576 43.272484,6.044144 42.531563,7.090252 
	C33.410297,4.857132 25.030846,5.357813 16.878607,9.888752 
	C16.053537,8.788636 15.508092,7.852331 14.962646,6.916026 
z"/>
<path fill="#6DCD86" opacity="1.000000" stroke="none" 
	d="
M1.000000,27.458069 
	C2.099922,24.113493 3.199845,21.226984 4.921232,18.388515 
	C6.263526,19.586382 6.984356,20.736214 7.665556,22.240700 
	C7.014040,27.068949 6.402153,31.542540 5.452800,36.016563 
	C3.743556,36.677994 2.371778,37.338997 1.000000,38.000000 
	C1.000000,34.638714 1.000000,31.277426 1.000000,27.458069 
z"/>
<path fill="#419C7F" opacity="1.000000" stroke="none" 
	d="
M57.434517,52.895142 
	C55.668270,53.018379 54.214500,53.001461 52.468086,52.661629 
	C54.839531,47.563499 57.503616,42.788277 60.570290,38.008595 
	C62.315247,38.002754 63.657623,38.001377 65.000000,38.000000 
	C65.000000,38.000000 65.000000,38.500000 65.000000,38.750000 
	C62.582333,43.584999 60.164661,48.169994 57.434517,52.895142 
z"/>
<path fill="#4EA383" opacity="1.000000" stroke="none" 
	d="
M65.000000,37.545891 
	C63.657623,38.001377 62.315247,38.002754 60.500023,37.552650 
	C59.737450,32.736977 59.447727,28.372778 59.553604,24.006306 
	C61.004265,23.987146 62.059322,23.970263 63.114380,23.953379 
	C63.526028,25.214354 63.937672,26.475330 64.674660,27.868153 
	C65.000000,31.030594 65.000000,34.061188 65.000000,37.545891 
z"/>
<path fill="#60C582" opacity="1.000000" stroke="none" 
	d="
M1.000000,38.250000 
	C2.371778,37.338997 3.743556,36.677994 5.528701,36.405380 
	C6.561095,39.199734 7.180122,41.605698 7.454915,44.013702 
	C5.795115,44.346493 4.479549,44.677242 3.163984,45.007996 
	C2.663558,43.115620 2.163132,41.223248 1.331353,39.165436 
	C1.000000,39.000000 1.000000,38.500000 1.000000,38.250000 
z"/>
<path fill="#78C78B" opacity="1.000000" stroke="none" 
	d="
M42.949463,7.143712 
	C43.272484,6.044144 43.595505,4.944576 43.964935,3.503184 
	C46.947357,4.876926 49.883377,6.592491 52.687691,8.799158 
	C52.024918,10.224743 51.493847,11.159226 50.656254,11.939598 
	C47.882977,10.238228 45.416222,8.690970 42.949463,7.143712 
z"/>
<path fill="#69BA88" opacity="1.000000" stroke="none" 
	d="
M50.962772,12.093711 
	C51.493847,11.159226 52.024918,10.224743 52.826694,9.115337 
	C55.084938,10.879108 57.072475,12.817802 58.997982,15.428651 
	C58.274620,17.101480 57.613281,18.102158 56.657211,18.938721 
	C54.562580,16.547642 52.762676,14.320676 50.962772,12.093711 
z"/>
<path fill="#5BAD84" opacity="1.000000" stroke="none" 
	d="
M56.951942,19.102833 
	C57.613281,18.102158 58.274620,17.101480 59.049934,15.751976 
	C60.452564,18.003702 61.741215,20.604259 63.072121,23.579098 
	C62.059322,23.970263 61.004265,23.987146 59.393990,23.701252 
	C58.209831,21.966595 57.580887,20.534714 56.951942,19.102833 
z"/>
<path fill="#77CF88" opacity="1.000000" stroke="none" 
	d="
M7.705186,21.886044 
	C6.984356,20.736214 6.263526,19.586382 5.222270,18.189270 
	C8.046286,14.357047 11.190726,10.772105 14.648907,7.051595 
	C15.508092,7.852331 16.053537,8.788636 16.679457,10.172855 
	C13.741683,14.375859 10.723434,18.130951 7.705186,21.886044 
z"/>
<path fill="#42A47E" opacity="1.000000" stroke="none" 
	d="
M23.039013,58.855755 
	C22.385265,59.970219 21.731518,61.084682 21.043667,62.523071 
	C18.751696,61.487232 16.493824,60.127472 14.205084,58.177952 
	C14.790754,56.696354 15.407293,55.804512 16.344692,55.047421 
	C18.790037,56.406696 20.914524,57.631226 23.039013,58.855755 
z"/>
<path fill="#4CB07F" opacity="1.000000" stroke="none" 
	d="
M16.023832,54.912674 
	C15.407293,55.804512 14.790754,56.696354 14.039111,57.886875 
	C11.927205,56.408817 9.950404,54.632076 8.148798,52.221664 
	C9.252457,51.376457 10.180921,51.164928 11.440952,50.986820 
	C13.189624,52.317719 14.606729,53.615196 16.023832,54.912674 
z"/>
<path fill="#56BB80" opacity="1.000000" stroke="none" 
	d="
M11.109385,50.953400 
	C10.180921,51.164928 9.252457,51.376457 8.109398,51.881088 
	C6.351579,50.010296 4.808356,47.846397 3.214559,45.345245 
	C4.479549,44.677242 5.795115,44.346493 7.539380,44.365730 
	C9.015182,46.794945 10.062284,48.874172 11.109385,50.953400 
z"/>
<path fill="#FCFEFD" opacity="1.000000" stroke="none" 
	d="
M11.440952,50.986824 
	C10.062284,48.874172 9.015182,46.794945 7.883615,44.363686 
	C7.180122,41.605698 6.561095,39.199734 5.866167,36.404953 
	C6.402153,31.542540 7.014040,27.068949 7.665556,22.240700 
	C10.723434,18.130951 13.741683,14.375859 16.959082,10.336664 
	C25.030846,5.357813 33.410297,4.857132 42.531563,7.090253 
	C45.416222,8.690970 47.882977,10.238228 50.656254,11.939598 
	C52.762676,14.320676 54.562580,16.547642 56.657211,18.938721 
	C57.580887,20.534714 58.209831,21.966595 58.998390,23.703527 
	C59.447727,28.372778 59.737450,32.736977 60.097439,37.557114 
	C57.503616,42.788277 54.839531,47.563499 52.032280,52.649960 
	C43.586826,59.840847 34.371677,62.474972 23.440128,58.923866 
	C20.914524,57.631226 18.790037,56.406696 16.344692,55.047421 
	C14.606729,53.615196 13.189624,52.317719 11.440952,50.986824 
M46.749535,12.299541 
	C45.183495,11.483640 43.617451,10.667739 41.589779,9.301926 
	C40.400841,9.164927 39.211899,9.027929 37.490253,8.254190 
	C32.658737,8.875978 27.827221,9.497766 22.288349,10.062142 
	C19.828346,12.024913 17.368343,13.987683 14.303814,16.263079 
	C12.509959,19.791201 10.716104,23.319323 8.279298,27.400749 
	C8.239433,30.604385 8.199569,33.808022 8.063599,37.707001 
	C8.656147,39.155575 9.248696,40.604149 9.929898,42.781906 
	C11.272696,44.878101 12.615494,46.974297 14.212828,49.666168 
	C15.852619,51.232342 17.492411,52.798515 19.721235,54.869633 
	C22.127840,55.639458 24.534445,56.409279 27.480074,57.825375 
	C38.562332,58.903988 48.023903,56.319557 54.015156,46.015907 
	C54.015156,46.015907 54.039738,46.092915 54.515285,45.914856 
	C54.620296,45.621029 54.725307,45.327202 55.160316,44.364536 
	C56.051472,41.579185 56.942623,38.793835 57.969822,35.151314 
	C57.670601,32.714436 57.371380,30.277559 57.061680,27.099306 
	C56.391914,25.361343 55.722149,23.623379 54.989765,21.225407 
	C54.261356,20.156546 53.532948,19.087685 52.708061,17.367458 
	C50.820427,15.880311 48.932789,14.393163 46.749535,12.299541 
z"/>
<path fill="#4BA381" opacity="1.000000" stroke="none" 
	d="
M26.941050,57.179104 
	C24.534445,56.409279 22.127840,55.639458 19.829735,54.469330 
	C22.199083,53.087543 24.532911,52.242825 26.700348,51.086277 
	C28.887594,49.919155 30.909767,48.442680 33.450603,47.027779 
	C39.215542,47.002033 44.815903,47.825394 48.246075,41.801743 
	C48.665081,41.182388 48.782070,40.608967 49.260235,39.994980 
	C52.358864,38.639107 55.096321,37.323795 57.833778,36.008484 
	C56.942623,38.793835 56.051472,41.579185 54.803413,44.824303 
	C54.221970,45.508934 54.086376,45.778553 54.039738,46.092915 
	C54.039738,46.092915 54.015156,46.015907 53.652966,46.023849 
	C45.609848,48.650940 37.895462,51.178974 30.279716,53.975632 
	C28.953535,54.462631 28.043364,56.082485 26.941050,57.179104 
z"/>
<path fill="#83D08E" opacity="1.000000" stroke="none" 
	d="
M38.022961,8.890931 
	C39.211899,9.027929 40.400841,9.164927 41.775333,9.944571 
	C39.973713,14.051031 37.986538,17.514849 35.541130,21.045860 
	C30.095585,21.751934 25.108274,22.390814 19.801983,22.886883 
	C17.958115,20.479530 16.433228,18.214993 14.908340,15.950454 
	C17.368343,13.987683 19.828346,12.024913 22.644386,10.481033 
	C22.957785,16.170542 26.253761,17.220171 30.633944,17.010145 
	C35.135075,16.794319 37.618076,14.111154 38.022961,8.890931 
z"/>
<path fill="#459E7F" opacity="1.000000" stroke="none" 
	d="
M27.210562,57.502239 
	C28.043364,56.082485 28.953535,54.462631 30.279716,53.975632 
	C37.895462,51.178974 45.609848,48.650940 53.688766,46.042610 
	C48.023903,56.319557 38.562332,58.903988 27.210562,57.502239 
z"/>
<path fill="#70C787" opacity="1.000000" stroke="none" 
	d="
M8.159704,37.011658 
	C8.199569,33.808022 8.239433,30.604385 8.782522,27.470139 
	C11.868802,27.658863 14.451859,27.778202 17.282576,27.925423 
	C17.530235,27.953308 18.013395,27.830095 18.477507,27.889111 
	C25.296164,28.016775 31.650707,28.085426 38.003517,28.490141 
	C38.002625,29.498329 38.003468,30.170458 37.539757,30.909744 
	C30.617596,30.976904 24.159992,30.976904 17.166304,30.976904 
	C18.014484,32.709869 18.565044,33.834751 18.750208,35.112694 
	C14.976442,35.847725 11.568073,36.429691 8.159704,37.011658 
z"/>
<path fill="#8AD390" opacity="1.000000" stroke="none" 
	d="
M37.756607,8.572561 
	C37.618076,14.111154 35.135075,16.794319 30.633944,17.010145 
	C26.253761,17.220171 22.957785,16.170542 22.998064,10.509739 
	C27.827221,9.497766 32.658737,8.875978 37.756607,8.572561 
z"/>
<path fill="#66BE85" opacity="1.000000" stroke="none" 
	d="
M8.111651,37.359329 
	C11.568073,36.429691 14.976442,35.847725 19.086887,35.294830 
	C23.529007,35.948093 27.269053,36.572292 31.006998,37.541885 
	C31.003706,38.578117 31.002514,39.268948 30.566669,40.038315 
	C26.811579,40.760464 23.491138,41.404087 19.787498,42.002129 
	C16.216616,41.988609 13.028930,42.020668 9.841245,42.052723 
	C9.248696,40.604149 8.656147,39.155575 8.111651,37.359329 
z"/>
<path fill="#78CF89" opacity="1.000000" stroke="none" 
	d="
M17.034916,27.897539 
	C14.451859,27.778202 11.868802,27.658863 9.103997,27.193485 
	C10.716104,23.319323 12.509959,19.791201 14.606077,16.106766 
	C16.433228,18.214993 17.958115,20.479530 19.668936,23.158787 
	C19.219648,24.344332 18.584425,25.115162 17.684500,26.033352 
	C17.291504,26.752989 17.163210,27.325264 17.034916,27.897539 
z"/>
<path fill="#69B788" opacity="1.000000" stroke="none" 
	d="
M38.004311,30.842587 
	C38.003468,30.170458 38.002625,29.498329 38.410225,28.425892 
	C44.024685,28.520164 47.067383,25.801781 49.015770,20.943413 
	C50.370831,19.762262 51.587681,18.890543 52.804535,18.018826 
	C53.532948,19.087685 54.261356,20.156546 54.876495,21.864845 
	C51.832253,26.029438 48.901283,29.554594 45.642387,32.892178 
	C42.877747,32.083935 40.441029,31.463259 38.004311,30.842587 
z"/>
<path fill="#52AE81" opacity="1.000000" stroke="none" 
	d="
M33.004261,47.101742 
	C30.909767,48.442680 28.887594,49.919155 26.700348,51.086277 
	C24.532911,52.242825 22.199083,53.087543 19.535219,54.216862 
	C17.492411,52.798515 15.852619,51.232342 14.277252,49.103439 
	C15.239638,47.992088 16.137598,47.443466 17.293968,46.919327 
	C17.716726,46.889423 17.881075,46.835041 18.505701,46.833870 
	C23.645407,46.958637 28.324835,47.030190 33.004261,47.101742 
z"/>
<path fill="#55A783" opacity="1.000000" stroke="none" 
	d="
M57.901802,35.579899 
	C55.096321,37.323795 52.358864,38.639107 49.004326,40.016487 
	C48.229866,40.146309 48.072487,40.214058 47.551468,40.233418 
	C46.459377,40.112030 45.730930,40.039036 45.001682,39.618858 
	C45.005421,38.577290 45.009960,37.882900 45.375069,37.125015 
	C46.804581,36.743076 47.873531,36.424622 49.088402,35.797340 
	C51.846935,32.939236 54.459545,30.389957 57.072155,27.840681 
	C57.371380,30.277559 57.670601,32.714436 57.901802,35.579899 
z"/>
<path fill="#5FAF86" opacity="1.000000" stroke="none" 
	d="
M57.066917,27.469994 
	C54.459545,30.389957 51.846935,32.939236 48.804588,35.671860 
	C47.573341,34.930054 46.771828,34.004902 45.970310,33.079750 
	C48.901283,29.554594 51.832253,26.029438 54.907799,22.194847 
	C55.722149,23.623379 56.391914,25.361343 57.066917,27.469994 
z"/>
<path fill="#7DC78D" opacity="1.000000" stroke="none" 
	d="
M35.999367,20.978664 
	C37.986538,17.514849 39.973713,14.051031 42.006149,10.219526 
	C43.617451,10.667739 45.183495,11.483640 46.757362,12.925524 
	C45.510582,16.027353 44.255974,18.503197 42.567997,21.049881 
	C40.089539,21.073368 38.044449,21.026016 35.999367,20.978664 
z"/>
<path fill="#5DBB82" opacity="1.000000" stroke="none" 
	d="
M17.035559,46.894848 
	C16.137598,47.443466 15.239638,47.992088 14.149984,48.805599 
	C12.615494,46.974297 11.272696,44.878101 9.885571,42.417313 
	C13.028930,42.020668 16.216616,41.988609 19.654926,42.277252 
	C19.247105,43.359241 18.588657,44.120541 17.669540,45.032734 
	C17.284431,45.754036 17.159994,46.324440 17.035559,46.894848 
z"/>
<path fill="#74C08B" opacity="1.000000" stroke="none" 
	d="
M43.001369,20.979042 
	C44.255974,18.503197 45.510582,16.027353 46.905167,13.228762 
	C48.932789,14.393163 50.820427,15.880311 52.756298,17.693142 
	C51.587681,18.890543 50.370831,19.762262 48.598019,20.912098 
	C46.361828,21.119825 44.681599,21.049433 43.001369,20.979042 
z"/>
<path fill="#459E7F" opacity="1.000000" stroke="none" 
	d="
M54.277512,46.003883 
	C54.086376,45.778553 54.221970,45.508934 54.638416,45.158722 
	C54.725307,45.327202 54.620296,45.621029 54.277512,46.003883 
z"/>
<path fill="#FFFFFF" opacity="1.000000" stroke="none" 
	d="
M17.930210,44.881840 
	C18.588657,44.120541 19.247105,43.359241 20.038124,42.322826 
	C23.491138,41.404087 26.811579,40.760464 31.026585,40.111504 
	C36.281597,40.059456 40.642044,40.012749 45.002487,39.966042 
	C45.730930,40.039036 46.459377,40.112030 47.560699,40.494232 
	C47.937073,41.151512 47.940563,41.499592 47.944057,41.847672 
	C44.815903,47.825394 39.215542,47.002033 33.450603,47.027779 
	C28.324835,47.030190 23.645407,46.958637 18.491646,46.517769 
	C17.988279,45.726250 17.959246,45.304047 17.930210,44.881840 
z"/>
<path fill="#D3E9DE" opacity="1.000000" stroke="none" 
	d="
M48.246075,41.801743 
	C47.940563,41.499592 47.937073,41.151512 47.924347,40.542618 
	C48.072487,40.214058 48.229866,40.146309 48.643154,40.057053 
	C48.782070,40.608967 48.665081,41.182388 48.246075,41.801743 
z"/>
<path fill="#FFFFFF" opacity="1.000000" stroke="none" 
	d="
M42.567997,21.049881 
	C44.681599,21.049433 46.361828,21.119825 48.459808,21.221531 
	C47.067383,25.801781 44.024685,28.520164 38.411961,28.089828 
	C31.650707,28.085426 25.296164,28.016775 18.471220,27.565716 
	C17.983616,26.750868 17.966410,26.318430 17.949202,25.885992 
	C18.584425,25.115162 19.219648,24.344332 19.987919,23.301598 
	C25.108274,22.390814 30.095585,21.751934 35.541130,21.045858 
	C38.044449,21.026016 40.089539,21.073368 42.567997,21.049881 
z"/>
<path fill="#FFFFFF" opacity="1.000000" stroke="none" 
	d="
M45.642387,32.892178 
	C46.771828,34.004902 47.573341,34.930054 48.658669,35.980690 
	C47.873531,36.424622 46.804581,36.743076 44.914474,37.051060 
	C39.731911,37.092556 35.370502,37.144524 31.009096,37.196487 
	C27.269053,36.572292 23.529007,35.948093 19.452284,35.141762 
	C18.565044,33.834751 18.014484,32.709869 17.166304,30.976904 
	C24.159992,30.976904 30.617596,30.976904 37.539753,30.909744 
	C40.441029,31.463259 42.877747,32.083935 45.642387,32.892178 
z"/>
<path fill="#F5FBF7" opacity="1.000000" stroke="none" 
	d="
M17.684500,26.033352 
	C17.966410,26.318430 17.983616,26.750868 18.007109,27.506701 
	C18.013395,27.830095 17.530235,27.953308 17.282574,27.925423 
	C17.163210,27.325264 17.291504,26.752989 17.684500,26.033352 
z"/>
<path fill="#5FB086" opacity="1.000000" stroke="none" 
	d="
M31.006998,37.541885 
	C35.370502,37.144524 39.731911,37.092556 44.553909,37.114548 
	C45.009960,37.882900 45.005421,38.577290 45.001682,39.618862 
	C40.642044,40.012749 36.281597,40.059456 31.461235,40.032974 
	C31.002514,39.268948 31.003706,38.578117 31.006998,37.541885 
z"/>
<path fill="#E0F0E9" opacity="1.000000" stroke="none" 
	d="
M17.669540,45.032734 
	C17.959246,45.304047 17.988279,45.726250 18.031368,46.464558 
	C17.881075,46.835041 17.716726,46.889423 17.293968,46.919327 
	C17.159994,46.324440 17.284431,45.754036 17.669540,45.032734 
z"/>
</svg>