<svg version="1.1" id="Layer_1" xmlns="http://www.w3.org/2000/svg" xmlns:xlink="http://www.w3.org/1999/xlink" x="0px" y="0px"
	 width="100%" viewBox="0 0 64 64" enable-background="new 0 0 64 64" xml:space="preserve">
<path fill="#111727" opacity="1.000000" stroke="none" 
	d="
M38.000004,65.000000 
	C25.357141,65.000000 13.214283,65.000000 1.035712,65.000000 
	C1.035712,43.732269 1.035712,22.464466 1.035712,1.098330 
	C22.225628,1.098330 43.451866,1.098330 64.839050,1.098330 
	C64.839050,22.332355 64.839050,43.666069 64.839050,65.000000 
	C56.132076,65.000000 47.316044,65.000000 38.000004,65.000000 
M36.025867,49.951534 
	C36.025867,49.951534 36.084846,49.927204 35.806011,49.296406 
	C31.643953,42.797859 25.266613,40.194588 17.163206,39.029560 
	C15.529062,39.029560 13.894918,39.029560 11.908346,39.029560 
	C13.283690,44.459560 17.579302,43.454311 21.323315,44.738190 
	C23.841736,46.170742 26.360159,47.603294 29.229551,49.662548 
	C30.482578,51.058884 31.572056,52.675198 33.047596,53.772247 
	C33.991100,54.473724 35.505112,54.407867 36.763348,54.686028 
	C36.787888,53.456440 36.812428,52.226852 36.879501,50.468933 
	C36.595734,50.275227 36.311962,50.081516 36.025867,49.951534 
M35.043911,41.696735 
	C37.776970,44.988338 40.510029,48.279945 43.243092,51.571548 
	C43.864491,51.130325 44.485893,50.689098 45.107292,50.247875 
	C43.091911,47.133556 41.076527,44.019234 38.785622,40.284645 
	C34.186943,37.575714 29.588266,34.866787 24.266939,31.771606 
	C21.595078,31.501297 18.923216,31.230986 16.251354,30.960676 
	C16.128839,31.578949 16.006327,32.197220 15.883813,32.815495 
	C19.908264,34.249271 23.932716,35.683048 28.264700,37.755806 
	C30.565536,38.832748 32.866375,39.909691 35.043911,41.696735 
M34.414486,10.999466 
	C32.789776,10.999466 31.165064,10.999466 29.734798,10.999466 
	C37.989761,15.652987 46.068527,20.207178 53.483440,24.387142 
	C50.352802,17.072950 47.714428,15.049882 34.414486,10.999466 
M34.589401,31.929106 
	C37.859261,33.924747 41.129116,35.920387 44.951817,38.253437 
	C44.337540,31.832588 31.197498,23.690338 23.458239,24.706383 
	C27.424633,27.252155 30.708336,29.359751 34.589401,31.929106 
M28.272083,18.740950 
	C34.662769,22.169584 41.053452,25.598219 47.444138,29.026854 
	C43.697422,21.964716 37.257217,19.193617 30.444290,17.082001 
	C29.814522,16.886808 28.876554,17.685989 28.272083,18.740950 
M29.029337,52.553642 
	C25.142828,49.133682 20.824394,46.662128 15.256564,46.801041 
	C19.394371,50.024368 23.951492,52.451473 28.552059,54.793228 
	C28.589464,54.812267 29.215645,53.674603 29.029337,52.553642 
M19.624298,26.554846 
	C18.485344,26.362181 17.346390,26.169516 16.207436,25.976851 
	C16.174097,26.272551 16.140759,26.568249 16.107420,26.863947 
	C17.145502,26.863947 18.183584,26.863947 19.624298,26.554846 
z"/>
<path fill="#C7F285" opacity="1.000000" stroke="none" 
	d="
M34.838131,11.002483 
	C47.714428,15.049882 50.352802,17.072950 53.483440,24.387142 
	C46.068527,20.207178 37.989761,15.652987 29.734798,10.999466 
	C31.165064,10.999466 32.789776,10.999466 34.838131,11.002483 
z"/>
<path fill="#8FE3A3" opacity="1.000000" stroke="none" 
	d="
M34.290718,31.698227 
	C30.708336,29.359751 27.424633,27.252155 23.458239,24.706383 
	C31.197498,23.690338 44.337540,31.832588 44.951817,38.253437 
	C41.129116,35.920387 37.859261,33.924747 34.290718,31.698227 
z"/>
<path fill="#3DCDCE" opacity="1.000000" stroke="none" 
	d="
M17.993567,39.166302 
	C25.266613,40.194588 31.643953,42.797859 35.542953,49.600208 
	C33.146122,49.614624 31.012350,49.325233 28.878580,49.035847 
	C26.360159,47.603294 23.841736,46.170742 20.993589,44.143776 
	C19.773764,42.088341 18.883665,40.627319 17.993567,39.166302 
z"/>
<path fill="#B8ED8C" opacity="1.000000" stroke="none" 
	d="
M28.176889,18.382198 
	C28.876554,17.685989 29.814522,16.886808 30.444290,17.082001 
	C37.257217,19.193617 43.697422,21.964716 47.444138,29.026854 
	C41.053452,25.598219 34.662769,22.169584 28.176889,18.382198 
z"/>
<path fill="#6AD9B6" opacity="1.000000" stroke="none" 
	d="
M24.989588,32.157860 
	C29.588266,34.866787 34.186943,37.575714 38.695591,40.772411 
	C37.459446,41.168995 36.313328,41.077812 35.167213,40.986629 
	C32.866375,39.909691 30.565536,38.832748 28.050110,37.109688 
	C26.886877,35.028332 25.938232,33.593094 24.989588,32.157860 
z"/>
<path fill="#1DC3E2" opacity="1.000000" stroke="none" 
	d="
M29.298130,52.815327 
	C29.215645,53.674603 28.589464,54.812267 28.552059,54.793228 
	C23.951492,52.451473 19.394371,50.024368 15.256564,46.801041 
	C20.824394,46.662128 25.142828,49.133682 29.298130,52.815327 
z"/>
<path fill="#5BD4BF" opacity="1.000000" stroke="none" 
	d="
M35.105560,41.341682 
	C36.313328,41.077812 37.459446,41.168995 38.833351,41.082546 
	C41.076527,44.019234 43.091911,47.133556 45.107292,50.247875 
	C44.485893,50.689098 43.864491,51.130325 43.243092,51.571548 
	C40.510029,48.279945 37.776970,44.988338 35.105560,41.341682 
z"/>
<path fill="#62D5BA" opacity="1.000000" stroke="none" 
	d="
M24.628263,31.964733 
	C25.938232,33.593094 26.886877,35.028332 27.896345,36.790195 
	C23.932716,35.683048 19.908264,34.249271 15.883813,32.815495 
	C16.006327,32.197220 16.128839,31.578949 16.251354,30.960676 
	C18.923216,31.230986 21.595078,31.501297 24.628263,31.964733 
z"/>
<path fill="#31CAD4" opacity="1.000000" stroke="none" 
	d="
M29.054066,49.349197 
	C31.012350,49.325233 33.146122,49.614624 35.682369,49.915607 
	C36.084846,49.927204 36.025867,49.951534 36.137966,50.121750 
	C36.414097,50.553368 36.609730,50.788464 36.836967,50.997265 
	C36.812428,52.226852 36.787888,53.456440 36.763348,54.686028 
	C35.505112,54.407867 33.991100,54.473724 33.047596,53.772247 
	C31.572056,52.675198 30.482578,51.058884 29.054066,49.349197 
z"/>
<path fill="#33C9D4" opacity="1.000000" stroke="none" 
	d="
M17.578386,39.097931 
	C18.883665,40.627319 19.773764,42.088341 20.815197,43.838192 
	C17.579302,43.454311 13.283690,44.459560 11.908346,39.029560 
	C13.894918,39.029560 15.529062,39.029560 17.578386,39.097931 
z"/>
<path fill="#1B463C" opacity="1.000000" stroke="none" 
	d="
M19.422981,26.709396 
	C18.183584,26.863947 17.145502,26.863947 16.107420,26.863947 
	C16.140759,26.568249 16.174097,26.272551 16.207436,25.976851 
	C17.346390,26.169516 18.485344,26.362181 19.422981,26.709396 
z"/>
<path fill="#3DCDCE" opacity="1.000000" stroke="none" 
	d="
M36.858234,50.733101 
	C36.609730,50.788464 36.414097,50.553368 36.139130,50.089890 
	C36.311962,50.081516 36.595734,50.275227 36.858234,50.733101 
z"/>
</svg>