<svg version="1.1" id="Layer_1" xmlns="http://www.w3.org/2000/svg" xmlns:xlink="http://www.w3.org/1999/xlink" x="0px" y="0px"
	 width="100%" viewBox="0 0 64 64" enable-background="new 0 0 64 64" xml:space="preserve">
<path fill="#C8ECE1" opacity="1.000000" stroke="none" 
	d="
M1.000000,43.000000 
	C1.000000,36.645603 1.000000,30.291204 1.293664,23.784540 
	C2.232728,22.738924 3.109713,21.933414 3.487111,20.938414 
	C6.675970,12.531037 12.040960,6.387253 20.826267,3.521308 
	C21.728951,3.226835 22.283766,1.866013 23.000000,1.000000 
	C29.354399,1.000000 35.708797,1.000000 42.215488,1.293684 
	C43.260933,2.232626 44.065022,3.124082 45.061226,3.484470 
	C53.579727,6.566137 59.413124,12.243572 62.475101,20.825977 
	C62.799484,21.735191 64.134071,22.283993 65.000000,23.000000 
	C65.000000,29.354399 65.000000,35.708797 64.706314,42.215492 
	C63.767242,43.261150 62.890339,44.066681 62.512886,45.061680 
	C59.323689,53.468731 53.958607,59.612446 45.173649,62.478718 
	C44.270985,62.773232 43.716206,64.133995 43.000000,65.000000 
	C36.645603,65.000000 30.291204,65.000000 23.784510,64.706314 
	C22.739069,63.767376 21.934984,62.875977 20.938789,62.515537 
	C12.420588,59.433529 6.587291,53.755943 3.524891,45.173943 
	C3.200450,44.264740 1.865923,43.715981 1.000000,43.000000 
M47.561050,49.583717 
	C49.711430,47.009132 51.861805,44.434547 54.730247,41.000244 
	C44.318081,41.000244 35.013496,41.514957 25.797319,40.833683 
	C18.713755,40.310059 15.620560,44.565685 11.364508,49.857628 
	C23.576445,49.857628 34.808620,49.857628 46.494911,49.918949 
	C46.494911,49.918949 46.927246,49.767086 47.561050,49.583717 
M11.857790,23.671427 
	C10.191641,27.576897 13.594243,25.923149 14.679655,25.943686 
	C22.484789,26.091349 30.366085,25.348843 38.082355,26.186428 
	C45.980431,27.043749 50.655243,23.579090 54.516689,17.114113 
	C50.340145,16.759066 46.314976,16.150669 42.289120,16.146130 
	C37.862278,16.141136 33.269321,17.584309 29.044569,16.800991 
	C21.862556,15.469369 16.624395,17.568720 11.857790,23.671427 
M23.542444,28.999884 
	C19.943821,28.999884 16.345200,28.999884 12.135780,28.999884 
	C14.885385,33.472042 17.171261,37.773155 22.425623,37.909828 
	C33.014053,38.185242 43.614681,37.991837 54.276924,37.991837 
	C52.626827,32.513821 48.349037,29.015388 43.451134,29.004538 
	C37.143513,28.990562 30.835836,29.000338 23.542444,28.999884 
z"/>
<path fill="#000000" opacity="1.000000" stroke="none" 
	d="
M65.000000,22.531218 
	C64.134071,22.283993 62.799484,21.735191 62.475101,20.825977 
	C59.413124,12.243572 53.579727,6.566137 45.061226,3.484470 
	C44.065022,3.124082 43.260933,2.232626 42.683891,1.293684 
	C50.259567,1.000000 57.519135,1.000000 65.000000,1.000000 
	C65.000000,8.019269 65.000000,15.040852 65.000000,22.531218 
z"/>
<path fill="#000000" opacity="1.000000" stroke="none" 
	d="
M1.000000,43.468781 
	C1.865923,43.715981 3.200450,44.264740 3.524891,45.173943 
	C6.587291,53.755943 12.420588,59.433529 20.938789,62.515537 
	C21.934984,62.875977 22.739069,63.767376 23.316107,64.706314 
	C15.740432,65.000000 8.480865,65.000000 1.000000,65.000000 
	C1.000000,57.980732 1.000000,50.959148 1.000000,43.468781 
z"/>
<path fill="#000000" opacity="1.000000" stroke="none" 
	d="
M22.531218,1.000000 
	C22.283766,1.866013 21.728951,3.226835 20.826267,3.521308 
	C12.040960,6.387253 6.675970,12.531037 3.487111,20.938414 
	C3.109713,21.933414 2.232728,22.738924 1.293664,23.316137 
	C1.000000,15.740432 1.000000,8.480865 1.000000,1.000000 
	C8.019269,1.000000 15.040852,1.000000 22.531218,1.000000 
z"/>
<path fill="#000000" opacity="1.000000" stroke="none" 
	d="
M43.468781,65.000000 
	C43.716206,64.133995 44.270985,62.773232 45.173649,62.478718 
	C53.958607,59.612446 59.323689,53.468731 62.512886,45.061680 
	C62.890339,44.066681 63.767242,43.261150 64.706314,42.683899 
	C65.000000,50.259567 65.000000,57.519135 65.000000,65.000000 
	C57.980732,65.000000 50.959148,65.000000 43.468781,65.000000 
z"/>
<path fill="#308D8A" opacity="1.000000" stroke="none" 
	d="
M12.103969,23.382751 
	C16.624395,17.568720 21.862556,15.469369 29.044569,16.800991 
	C33.269321,17.584309 37.862278,16.141136 42.289120,16.146130 
	C46.314976,16.150669 50.340145,16.759066 54.516689,17.114113 
	C50.655243,23.579090 45.980431,27.043749 38.082355,26.186428 
	C30.366085,25.348843 22.484789,26.091349 14.679655,25.943686 
	C13.594243,25.923149 10.191641,27.576897 12.103969,23.382751 
z"/>
<path fill="#308D8A" opacity="1.000000" stroke="none" 
	d="
M24.035313,28.999884 
	C30.835836,29.000338 37.143513,28.990562 43.451134,29.004538 
	C48.349037,29.015388 52.626827,32.513821 54.276924,37.991837 
	C43.614681,37.991837 33.014053,38.185242 22.425623,37.909828 
	C17.171261,37.773155 14.885385,33.472042 12.135780,28.999884 
	C16.345200,28.999884 19.943821,28.999884 24.035313,28.999884 
z"/>
<path fill="#308D8A" opacity="1.000000" stroke="none" 
	d="
M46.040798,49.857628 
	C34.808620,49.857628 23.576445,49.857628 11.364508,49.857628 
	C15.620560,44.565685 18.713755,40.310059 25.797319,40.833683 
	C35.013496,41.514957 44.318081,41.000244 54.730247,41.000244 
	C51.861805,44.434547 49.711430,47.009132 47.142441,49.571274 
	C46.421852,49.436031 46.194172,49.535633 46.040798,49.857628 
z"/>
<path fill="#1B807E" opacity="1.000000" stroke="none" 
	d="
M46.267853,49.888290 
	C46.194172,49.535633 46.421852,49.436031 46.825539,49.662956 
	C46.927246,49.767086 46.494911,49.918949 46.267853,49.888290 
z"/>
</svg>