<svg version="1.1" id="Layer_1" xmlns="http://www.w3.org/2000/svg" xmlns:xlink="http://www.w3.org/1999/xlink" x="0px" y="0px"
	 width="100%" viewBox="0 0 64 64" enable-background="new 0 0 64 64" xml:space="preserve">
<path fill="#231F20" opacity="1.000000" stroke="none" 
	d="
M43.000000,65.000000 
	C36.645603,65.000000 30.291204,65.000000 23.349335,64.678040 
	C22.178511,63.796680 21.692467,62.980480 20.996996,62.716930 
	C12.528208,59.507652 6.604587,53.817326 3.413081,45.268257 
	C3.066959,44.341103 1.825928,43.748035 1.000000,43.000000 
	C1.000000,36.645603 1.000000,30.291204 1.321956,23.349339 
	C2.203321,22.178514 3.019519,21.692471 3.283062,20.997000 
	C6.492270,12.528142 12.182560,6.604482 20.731739,3.413080 
	C21.658892,3.066974 22.251965,1.825929 23.000000,1.000000 
	C29.354399,1.000000 35.708797,1.000000 42.650661,1.321957 
	C43.821468,2.203314 44.307499,3.019501 45.002956,3.283037 
	C53.471863,6.492254 59.393742,12.184414 62.586910,20.731802 
	C62.933289,21.658962 64.174080,22.251987 65.000000,23.000000 
	C65.000000,29.354399 65.000000,35.708797 64.678040,42.650665 
	C63.796539,43.821705 62.980324,44.307949 62.716545,45.003651 
	C59.506279,53.470619 53.834347,59.411518 45.269089,62.586742 
	C44.341934,62.930450 43.748325,64.173897 43.000000,65.000000 
M58.003639,37.504108 
	C58.003639,37.504108 57.963539,37.257118 58.736103,37.052094 
	C62.421032,37.247395 63.121941,35.022911 62.724167,31.304564 
	C61.519478,28.886696 60.314789,26.468828 59.691086,23.780790 
	C59.771820,22.782284 60.320374,21.368904 59.860237,20.850054 
	C55.689133,16.146669 51.469437,11.467423 46.952030,7.104064 
	C45.885380,6.073787 43.643372,6.260367 41.207615,5.941908 
	C39.162090,5.266050 37.116566,4.590193 35.053734,3.977425 
	C35.053734,3.977425 35.118927,3.982853 34.924957,3.505875 
	C34.627480,3.392856 34.330006,3.279837 33.280979,3.034917 
	C32.521835,3.078510 31.762690,3.122103 30.423290,3.181541 
	C29.949951,3.509365 29.476612,3.837189 28.277683,4.034398 
	C27.169083,4.320762 26.060482,4.607125 24.141893,4.976333 
	C19.816080,4.495061 21.306938,7.796079 20.310596,9.720501 
	C18.859823,9.443266 17.409052,9.166032 15.514020,9.098376 
	C15.662644,9.435310 15.811269,9.772244 15.966340,10.527286 
	C15.966340,10.527286 15.911278,10.941800 15.226336,10.989153 
	C14.133553,11.624228 13.040771,12.259305 11.383864,13.165973 
	C10.556446,14.092484 9.729028,15.018996 8.318445,16.330809 
	C7.845843,17.869535 7.373241,19.408264 6.298824,21.260080 
	C5.848333,22.472067 5.397841,23.684053 4.369138,25.301157 
	C3.968442,26.865408 3.567746,28.429657 3.045196,30.846155 
	C3.085671,32.564144 3.126146,34.282131 3.300273,36.689514 
	C3.589065,37.801334 3.877856,38.913158 4.189507,40.528450 
	C4.456106,40.721485 4.722705,40.914516 4.975177,41.043633 
	C4.975177,41.043633 4.915078,41.069603 4.978528,41.797909 
	C5.299866,42.897926 5.621204,43.997948 6.027382,45.795635 
	C9.919430,52.329262 14.990701,57.610386 22.735636,60.957760 
	C23.479475,61.013699 24.223314,61.069633 25.399927,61.700134 
	C26.586666,61.839302 27.773407,61.978466 29.339645,62.665752 
	C30.911980,61.809795 32.484314,60.953835 34.574409,60.179657 
	C35.008507,60.464371 35.442608,60.749088 36.092548,61.482533 
	C36.300850,61.803875 36.591377,61.920673 37.640820,61.943745 
	C38.094887,61.906406 38.548958,61.869064 39.595665,61.928150 
	C40.078705,61.654625 40.561741,61.381100 41.754292,61.018051 
	C42.535496,60.365055 43.316704,59.712059 44.885391,59.011478 
	C48.286808,59.117359 50.441174,57.909805 50.790859,54.015011 
	C54.134674,54.775509 54.562366,52.358433 55.829632,49.968990 
	C59.330540,48.819473 59.072830,45.908283 59.646145,43.189903 
	C60.418987,42.283291 61.191826,41.376678 62.092453,40.320156 
	C60.357277,39.237896 59.166775,38.495365 58.003639,37.504108 
z"/>
<path fill="#000000" opacity="1.000000" stroke="none" 
	d="
M1.000000,43.468781 
	C1.825928,43.748035 3.066959,44.341103 3.413081,45.268257 
	C6.604587,53.817326 12.528208,59.507652 20.996996,62.716930 
	C21.692467,62.980480 22.178511,63.796680 22.880932,64.678040 
	C15.740432,65.000000 8.480865,65.000000 1.000000,65.000000 
	C1.000000,57.980732 1.000000,50.959148 1.000000,43.468781 
z"/>
<path fill="#000000" opacity="1.000000" stroke="none" 
	d="
M43.468781,65.000000 
	C43.748325,64.173897 44.341934,62.930450 45.269089,62.586742 
	C53.834347,59.411518 59.506279,53.470619 62.716545,45.003651 
	C62.980324,44.307949 63.796539,43.821705 64.678040,43.119072 
	C65.000000,50.259567 65.000000,57.519135 65.000000,65.000000 
	C57.980732,65.000000 50.959148,65.000000 43.468781,65.000000 
z"/>
<path fill="#000000" opacity="1.000000" stroke="none" 
	d="
M65.000000,22.531219 
	C64.174080,22.251987 62.933289,21.658962 62.586910,20.731802 
	C59.393742,12.184414 53.471863,6.492254 45.002956,3.283037 
	C44.307499,3.019501 43.821468,2.203314 43.119064,1.321957 
	C50.259567,1.000000 57.519135,1.000000 65.000000,1.000000 
	C65.000000,8.019269 65.000000,15.040852 65.000000,22.531219 
z"/>
<path fill="#000000" opacity="1.000000" stroke="none" 
	d="
M22.531218,1.000000 
	C22.251965,1.825929 21.658892,3.066974 20.731739,3.413080 
	C12.182560,6.604482 6.492270,12.528142 3.283062,20.997000 
	C3.019519,21.692471 2.203321,22.178514 1.321956,22.880936 
	C1.000000,15.740432 1.000000,8.480865 1.000000,1.000000 
	C8.019269,1.000000 15.040852,1.000000 22.531218,1.000000 
z"/>
<path fill="#37CFA7" opacity="1.000000" stroke="none" 
	d="
M59.110100,24.050961 
	C60.314789,26.468828 61.519478,28.886696 62.437973,31.592125 
	C58.495502,29.937397 54.839226,27.995106 51.099915,25.694946 
	C49.356117,24.191828 47.695354,23.046577 45.886082,21.595112 
	C44.493084,19.470768 43.248592,17.652639 41.977417,15.472235 
	C41.203430,13.491272 40.617195,11.770457 39.670853,10.277982 
	C38.271854,8.071627 36.616970,6.027524 35.071041,3.914335 
	C37.116566,4.590193 39.162090,5.266050 41.688553,6.250359 
	C47.816360,12.389526 53.463230,18.220243 59.110100,24.050961 
z"/>
<path fill="#5755C3" opacity="1.000000" stroke="none" 
	d="
M34.056648,60.097878 
	C32.484314,60.953835 30.911980,61.809795 29.049780,62.064682 
	C27.174700,59.974583 25.589485,58.485558 23.735527,56.799255 
	C20.645761,53.733650 17.824739,50.865314 14.948689,47.641991 
	C14.275535,45.484879 13.657410,43.682751 13.406309,41.946018 
	C15.836414,42.707954 17.899494,43.404499 20.111725,44.354179 
	C20.819143,44.754471 21.377415,44.901623 21.992477,45.403870 
	C23.496145,48.301575 23.477261,52.247826 28.106699,52.102539 
	C28.522783,52.544632 28.768166,52.790409 29.114069,53.338181 
	C30.144054,54.758678 31.073517,55.877186 32.167267,57.258362 
	C32.906590,58.379978 33.481621,59.238926 34.056648,60.097878 
z"/>
<path fill="#33DDA4" opacity="1.000000" stroke="none" 
	d="
M59.400593,23.915874 
	C53.463230,18.220243 47.816360,12.389526 42.055771,6.222991 
	C43.643372,6.260367 45.885380,6.073787 46.952030,7.104064 
	C51.469437,11.467423 55.689133,16.146669 59.860237,20.850054 
	C60.320374,21.368904 59.771820,22.782284 59.400593,23.915874 
z"/>
<path fill="#4791B5" opacity="1.000000" stroke="none" 
	d="
M55.099640,50.060760 
	C54.562366,52.358433 54.134674,54.775509 50.165100,53.846481 
	C47.667942,52.430187 45.796543,51.182426 43.952076,49.554100 
	C44.346004,47.486328 44.713001,45.799118 45.317276,44.051300 
	C45.554562,43.990692 46.019775,43.837440 46.358162,43.900452 
	C47.764431,44.291939 48.832314,44.620415 50.128616,45.189812 
	C51.937908,46.974075 53.518776,48.517418 55.099640,50.060760 
z"/>
<path fill="#5B43C7" opacity="1.000000" stroke="none" 
	d="
M21.999647,60.833424 
	C14.990701,57.610386 9.919430,52.329262 6.250848,45.354599 
	C13.268221,48.641502 18.689833,53.707733 21.999647,60.833424 
z"/>
<path fill="#42A4B1" opacity="1.000000" stroke="none" 
	d="
M55.464638,50.014877 
	C53.518776,48.517418 51.937908,46.974075 50.278893,44.879074 
	C51.522453,42.553680 52.844166,40.779945 54.515678,39.015385 
	C55.563015,38.996822 56.260555,38.969090 57.063019,39.258156 
	C57.794144,40.751820 58.420341,41.928692 59.046539,43.105560 
	C59.072830,45.908283 59.330540,48.819473 55.464638,50.014877 
z"/>
<path fill="#4C7EBA" opacity="1.000000" stroke="none" 
	d="
M43.925140,49.934662 
	C45.796543,51.182426 47.667942,52.430187 49.816322,53.872375 
	C50.441174,57.909805 48.286808,59.117359 44.269619,58.794922 
	C42.436131,57.052086 41.218410,55.525814 40.001053,53.693035 
	C40.001755,52.978790 40.002090,52.571056 40.286163,51.997505 
	C41.688313,51.199345 42.806725,50.567005 43.925140,49.934662 
z"/>
<path fill="#594AC6" opacity="1.000000" stroke="none" 
	d="
M22.367641,60.895592 
	C18.689833,53.707733 13.268221,48.641502 6.208427,45.005764 
	C5.621204,43.997948 5.299866,42.897926 5.304029,41.476528 
	C8.754258,43.435760 11.878986,45.716370 15.003716,47.996979 
	C17.824739,50.865314 20.645761,53.733650 23.814976,57.143501 
	C24.431162,58.831863 24.699158,59.978718 24.967154,61.125568 
	C24.223314,61.069633 23.479475,61.013699 22.367641,60.895592 
z"/>
<path fill="#3EB3AE" opacity="1.000000" stroke="none" 
	d="
M20.945194,9.892443 
	C21.306938,7.796079 19.816080,4.495061 24.739561,5.214617 
	C27.216509,8.270655 29.095789,11.088408 30.575140,13.910096 
	C27.804134,13.640272 25.433058,13.366511 22.888489,12.824071 
	C22.125063,11.667742 21.535130,10.780092 20.945194,9.892443 
z"/>
<path fill="#39C7A9" opacity="1.000000" stroke="none" 
	d="
M51.182953,26.052814 
	C54.839226,27.995106 58.495502,29.937397 62.493408,31.938541 
	C63.121941,35.022911 62.421032,37.247395 58.177536,36.863663 
	C56.801262,35.451481 55.983559,34.227734 55.090897,32.652081 
	C53.620190,30.195513 52.224442,28.090849 50.915005,26.014818 
	C51.001316,26.043449 51.182953,26.052814 51.182953,26.052814 
z"/>
<path fill="#584FC5" opacity="1.000000" stroke="none" 
	d="
M14.948688,47.641991 
	C11.878986,45.716370 8.754258,43.435760 5.272304,41.112373 
	C4.915078,41.069603 4.975177,41.043633 4.851553,40.889549 
	C4.550558,40.490955 4.363463,40.254128 4.166647,40.024979 
	C3.877856,38.913158 3.589065,37.801334 3.603028,36.394936 
	C5.881679,36.402023 7.857575,36.703686 9.983725,37.299191 
	C11.102412,39.022232 12.070848,40.451427 13.039284,41.880627 
	C13.657410,43.682751 14.275535,45.484879 14.948688,47.641991 
z"/>
<path fill="#4C7EBA" opacity="1.000000" stroke="none" 
	d="
M6.900639,20.946991 
	C7.373241,19.408264 7.845843,17.869535 8.887011,16.330519 
	C11.670947,18.241264 13.886319,20.152300 16.045967,22.394613 
	C15.263954,23.830910 14.537665,24.935928 13.506783,25.919147 
	C11.101672,24.180561 9.001156,22.563776 6.900639,20.946991 
z"/>
<path fill="#4692B5" opacity="1.000000" stroke="none" 
	d="
M11.947988,12.894381 
	C13.040771,12.259305 14.133553,11.624228 15.838235,11.151144 
	C17.967194,12.541840 19.484255,13.770545 21.008263,15.267866 
	C21.022860,15.715441 21.030512,15.894402 21.040668,16.396755 
	C21.072517,17.149895 21.101862,17.579641 20.993069,18.280777 
	C20.224901,19.338896 19.594872,20.125620 18.730797,20.961489 
	C18.496750,21.010633 18.032896,21.128529 17.921425,20.800007 
	C15.855964,17.945786 13.901976,15.420083 11.947988,12.894381 
z"/>
<path fill="#3CBCAB" opacity="1.000000" stroke="none" 
	d="
M30.975069,13.906160 
	C29.095789,11.088408 27.216509,8.270655 25.144554,5.173195 
	C26.060482,4.607125 27.169083,4.320762 28.758139,4.408757 
	C31.486258,7.834207 33.733921,10.885300 35.683670,14.049292 
	C33.915524,14.076848 32.445297,13.991505 30.975069,13.906160 
z"/>
<path fill="#506EBD" opacity="1.000000" stroke="none" 
	d="
M6.599731,21.103535 
	C9.001156,22.563776 11.101672,24.180561 13.599441,25.911068 
	C13.996693,26.024788 14.172395,25.963663 14.025925,26.266315 
	C13.197385,27.710896 12.515316,28.852821 11.509229,29.897594 
	C9.105923,28.165640 7.026636,26.530840 4.947350,24.896040 
	C5.397841,23.684053 5.848333,22.472067 6.599731,21.103535 
z"/>
<path fill="#4989B7" opacity="1.000000" stroke="none" 
	d="
M11.665926,13.030176 
	C13.901976,15.420083 15.855964,17.945786 17.777140,21.048172 
	C17.196781,21.771019 16.649237,21.917177 16.101690,22.063335 
	C13.886319,20.152300 11.670947,18.241264 9.178593,16.137867 
	C9.729028,15.018996 10.556446,14.092484 11.665926,13.030176 
z"/>
<path fill="#38C9A8" opacity="1.000000" stroke="none" 
	d="
M35.062386,3.945880 
	C36.616970,6.027524 38.271854,8.071627 39.670853,10.277982 
	C40.617195,11.770457 41.203430,13.491272 41.744263,15.547079 
	C41.537792,15.984200 41.062683,16.103107 40.916470,15.829336 
	C40.181976,14.712899 39.593697,13.870232 38.814468,12.754266 
	C36.083527,9.375876 33.543537,6.270787 31.003546,3.165696 
	C31.762690,3.122103 32.521835,3.078510 33.834030,3.241227 
	C34.628735,3.629112 34.872681,3.807551 35.118927,3.982853 
	C35.118927,3.982853 35.053734,3.977425 35.062386,3.945880 
z"/>
<path fill="#5363C0" opacity="1.000000" stroke="none" 
	d="
M4.658243,25.098598 
	C7.026636,26.530840 9.105923,28.165640 11.462692,30.222935 
	C11.197527,31.778730 10.654881,32.912029 9.787663,33.933762 
	C7.364411,32.546101 5.265731,31.270004 3.167051,29.993908 
	C3.567746,28.429657 3.968442,26.865408 4.658243,25.098598 
z"/>
<path fill="#5657C3" opacity="1.000000" stroke="none" 
	d="
M3.106123,30.420033 
	C5.265731,31.270004 7.364411,32.546101 9.744767,34.303207 
	C9.962119,35.524593 9.897796,36.264969 9.833472,37.005348 
	C7.857575,36.703686 5.881679,36.402023 3.536201,36.050240 
	C3.126146,34.282131 3.085671,32.564144 3.106123,30.420033 
z"/>
<path fill="#3AC3AA" opacity="1.000000" stroke="none" 
	d="
M30.713417,3.173619 
	C33.543537,6.270787 36.083527,9.375876 38.535961,12.909660 
	C37.626129,13.537700 36.803860,13.737045 35.981586,13.936390 
	C33.733921,10.885300 31.486258,7.834207 29.120934,4.474065 
	C29.476612,3.837189 29.949951,3.509365 30.713417,3.173619 
z"/>
<path fill="#42A2B1" opacity="1.000000" stroke="none" 
	d="
M21.001314,14.999250 
	C19.484255,13.770545 17.967194,12.541840 16.180706,11.127467 
	C15.911278,10.941800 15.966340,10.527286 15.965802,10.013090 
	C15.962936,9.295529 15.960608,9.092164 15.958279,8.888798 
	C17.409052,9.166032 18.859823,9.443266 20.627895,9.806472 
	C21.535130,10.780092 22.125063,11.667742 22.913689,13.124348 
	C23.178543,14.090162 23.244707,14.487021 23.285851,14.963760 
	C23.260828,15.043640 23.096590,15.076095 22.747089,15.055771 
	C21.932163,15.023382 21.466740,15.011316 21.001314,14.999250 
z"/>
<path fill="#5364C0" opacity="1.000000" stroke="none" 
	d="
M34.315529,60.138767 
	C33.481621,59.238926 32.906590,58.379978 32.167206,56.879238 
	C32.003288,55.478985 32.003723,54.720524 32.333675,53.968288 
	C33.102268,53.966156 33.541340,53.957794 34.171608,54.228451 
	C35.909542,56.948887 37.456284,59.390305 39.003025,61.831722 
	C38.548958,61.869064 38.094887,61.906406 37.127312,61.747002 
	C36.376030,61.366795 36.130329,61.194641 35.876705,61.033802 
	C35.442608,60.749088 35.008507,60.464371 34.315529,60.138767 
z"/>
<path fill="#5169BE" opacity="1.000000" stroke="none" 
	d="
M39.299347,61.879936 
	C37.456284,59.390305 35.909542,56.948887 34.298195,53.989098 
	C34.495068,52.994026 34.756546,52.517326 35.303654,52.136909 
	C36.360733,52.435654 37.132179,52.638107 37.928715,53.130753 
	C37.968685,53.614552 37.983570,53.808163 38.054035,54.353947 
	C39.088005,56.839935 40.066391,58.973751 41.044777,61.107574 
	C40.561741,61.381100 40.078705,61.654625 39.299347,61.879936 
z"/>
<path fill="#506EBD" opacity="1.000000" stroke="none" 
	d="
M41.399536,61.062813 
	C40.066391,58.973751 39.088005,56.839935 38.387787,54.353432 
	C39.110870,54.000340 39.555782,53.999939 40.000690,53.999542 
	C41.218410,55.525814 42.436131,57.052086 43.875877,58.818710 
	C43.316704,59.712059 42.535496,60.365055 41.399536,61.062813 
z"/>
<path fill="#3DB6AD" opacity="1.000000" stroke="none" 
	d="
M59.346344,43.147732 
	C58.420341,41.928692 57.794144,40.751820 57.044838,39.018299 
	C56.921730,38.461647 56.852039,37.984287 57.132545,37.923744 
	C57.600792,37.826412 57.788532,37.789623 57.976276,37.752831 
	C59.166775,38.495365 60.357277,39.237896 62.092453,40.320156 
	C61.191826,41.376678 60.418987,42.283291 59.346344,43.147732 
z"/>
<path fill="#584FC5" opacity="1.000000" stroke="none" 
	d="
M25.183540,61.412849 
	C24.699158,59.978718 24.431162,58.831863 24.083717,57.340771 
	C25.589485,58.485558 27.174700,59.974583 28.860031,61.790619 
	C27.773407,61.978466 26.586666,61.839302 25.183540,61.412849 
z"/>
<path fill="#488BB6" opacity="1.000000" stroke="none" 
	d="
M57.989960,37.628471 
	C57.788532,37.789623 57.600792,37.826412 56.811516,37.920341 
	C55.779305,37.964424 55.348633,37.951366 54.951591,37.526958 
	C55.045437,35.745068 55.105644,34.374527 55.165855,33.003986 
	C55.983559,34.227734 56.801262,35.451481 57.791252,36.966171 
	C57.963539,37.257118 58.003639,37.504108 57.989960,37.628471 
z"/>
<path fill="#545FC1" opacity="1.000000" stroke="none" 
	d="
M35.984627,61.258167 
	C36.130329,61.194641 36.376030,61.366795 36.788971,61.691593 
	C36.591377,61.920673 36.300850,61.803875 35.984627,61.258167 
z"/>
<path fill="#37CFA7" opacity="1.000000" stroke="none" 
	d="
M35.021942,3.744364 
	C34.872681,3.807551 34.628735,3.629112 34.209805,3.307177 
	C34.330006,3.279837 34.627480,3.392856 35.021942,3.744364 
z"/>
<path fill="#594AC6" opacity="1.000000" stroke="none" 
	d="
M4.178077,40.276714 
	C4.363463,40.254128 4.550558,40.490955 4.858617,40.921509 
	C4.722705,40.914516 4.456106,40.721485 4.178077,40.276714 
z"/>
<path fill="#449EB2" opacity="1.000000" stroke="none" 
	d="
M15.736149,8.993587 
	C15.960608,9.092164 15.962936,9.295529 15.962579,9.804037 
	C15.811269,9.772244 15.662644,9.435310 15.736149,8.993587 
z"/>
<path fill="#3C3C3B" opacity="1.000000" stroke="none" 
	d="
M41.062683,16.103107 
	C41.062683,16.103107 41.537792,15.984200 41.770950,15.909356 
	C43.248592,17.652639 44.493084,19.470768 45.998383,21.931944 
	C46.874722,27.771376 47.859936,33.050625 43.013161,36.786888 
	C43.006004,36.549568 43.004051,36.074715 42.977531,35.717232 
	C42.906982,34.866634 42.851437,34.374233 42.820797,33.880291 
	C42.628494,30.780458 43.126987,26.880203 39.243610,26.050373 
	C34.979519,25.139191 35.858055,30.041775 33.713646,32.137627 
	C32.575562,32.487839 31.727852,32.685341 30.882687,32.506840 
	C29.749868,30.008652 28.623589,26.098663 27.477478,26.092842 
	C23.742716,26.073870 23.281103,29.468632 23.268377,32.630123 
	C23.263739,33.782784 23.091635,34.934765 22.851713,36.249672 
	C22.509872,36.624611 22.302322,36.826740 21.862499,36.783894 
	C20.748383,31.336861 19.856611,26.124601 18.964840,20.912344 
	C19.594872,20.125620 20.224901,19.338896 21.249224,18.175209 
	C22.042215,17.204649 22.440912,16.611050 22.911364,15.784161 
	C22.983116,15.550871 23.096590,15.076095 23.096590,15.076095 
	C23.096590,15.076095 23.260828,15.043640 23.539124,15.153864 
	C29.565840,15.543761 35.314262,15.823434 41.062683,16.103107 
z"/>
<path fill="#2B2A2A" opacity="1.000000" stroke="none" 
	d="
M43.020321,37.024208 
	C47.859936,33.050625 46.874722,27.771376 46.146893,22.238159 
	C47.695354,23.046577 49.356117,24.191828 51.099915,25.694946 
	C51.182953,26.052814 51.001316,26.043449 50.813148,26.308525 
	C50.565357,27.061323 50.354633,27.588156 50.469212,28.030785 
	C51.776302,33.080193 53.137589,38.072205 46.864895,41.108162 
	C46.279903,41.391296 46.287384,42.898552 46.019775,43.837440 
	C46.019775,43.837440 45.554562,43.990692 45.095886,43.850525 
	C44.098244,41.481644 43.559284,39.252926 43.020321,37.024208 
z"/>
<path fill="#474747" opacity="1.000000" stroke="none" 
	d="
M43.013161,36.786888 
	C43.559284,39.252926 44.098244,41.481644 44.858601,43.911133 
	C44.713001,45.799118 44.346004,47.486328 43.952072,49.554100 
	C42.806725,50.567005 41.688313,51.199345 40.062927,51.859543 
	C39.359322,51.606167 39.162682,51.324936 38.960052,50.649628 
	C38.915825,45.861164 36.662994,43.358543 32.311520,43.527496 
	C28.612825,43.671101 27.088238,46.732613 28.021919,51.292595 
	C27.995693,51.497467 27.935995,51.906227 27.935995,51.906227 
	C23.477261,52.247826 23.496145,48.301575 22.008720,44.958176 
	C22.007065,41.777813 22.045954,39.398239 22.084845,37.018669 
	C22.302322,36.826740 22.509872,36.624611 23.165533,36.083584 
	C26.042429,34.797535 28.461287,33.840187 30.880144,32.882839 
	C31.727852,32.685341 32.575562,32.487839 34.037811,32.278679 
	C37.436256,33.536247 40.220154,34.805481 43.004051,36.074715 
	C43.004051,36.074715 43.006004,36.549568 43.013161,36.786888 
z"/>
<path fill="#2B2A2A" opacity="1.000000" stroke="none" 
	d="
M21.862499,36.783894 
	C22.045954,39.398239 22.007065,41.777813 21.951931,44.603081 
	C21.377415,44.901623 20.819143,44.754471 20.067238,44.055145 
	C19.415678,42.485592 19.209972,40.860142 18.459219,40.548740 
	C13.286497,38.403168 13.922681,34.543289 14.864934,30.285894 
	C15.158132,28.961134 14.431924,27.410755 14.172395,25.963663 
	C14.172395,25.963663 13.996693,26.024788 13.904034,26.032867 
	C14.537665,24.935928 15.263954,23.830910 16.045967,22.394613 
	C16.649237,21.917177 17.196781,21.771019 17.888611,21.376694 
	C18.032896,21.128529 18.496750,21.010633 18.730795,20.961489 
	C19.856611,26.124601 20.748383,31.336861 21.862499,36.783894 
z"/>
<path fill="#1D1D1B" opacity="1.000000" stroke="none" 
	d="
M14.025925,26.266315 
	C14.431924,27.410755 15.158132,28.961134 14.864934,30.285894 
	C13.922681,34.543289 13.286497,38.403168 18.459219,40.548740 
	C19.209972,40.860142 19.415678,42.485592 19.918087,43.802010 
	C17.899494,43.404499 15.836414,42.707954 13.406309,41.946018 
	C12.070848,40.451427 11.102412,39.022232 9.983725,37.299191 
	C9.897796,36.264969 9.962119,35.524593 10.069338,34.414772 
	C10.654881,32.912029 11.197527,31.778730 11.786711,30.320089 
	C12.515316,28.852821 13.197385,27.710896 14.025925,26.266315 
z"/>
<path fill="#545FC1" opacity="1.000000" stroke="none" 
	d="
M32.004158,53.962059 
	C32.003723,54.720524 32.003288,55.478985 32.002914,56.616570 
	C31.073517,55.877186 30.144054,54.758678 29.449371,53.320637 
	C30.131697,52.982063 30.579241,52.963024 31.201595,53.102463 
	C31.604271,53.477985 31.813522,53.711689 32.004158,53.962059 
z"/>
<path fill="#5B43C7" opacity="1.000000" stroke="none" 
	d="
M31.026787,52.943985 
	C30.579241,52.963024 30.131697,52.982063 29.348848,53.018646 
	C28.768166,52.790409 28.522783,52.544632 28.106699,52.102539 
	C27.935995,51.906227 27.995693,51.497467 28.418056,51.265808 
	C29.894669,51.108761 30.948915,51.183376 31.874439,51.466003 
	C31.506073,52.097340 31.266430,52.520664 31.026787,52.943985 
z"/>
<path fill="#1D1D1B" opacity="1.000000" stroke="none" 
	d="
M46.358162,43.900452 
	C46.287384,42.898552 46.279903,41.391296 46.864895,41.108162 
	C53.137589,38.072205 51.776302,33.080193 50.469212,28.030785 
	C50.354633,27.588156 50.565357,27.061323 50.726837,26.279894 
	C52.224442,28.090849 53.620190,30.195513 55.090893,32.652081 
	C55.105644,34.374527 55.045437,35.745068 54.723709,37.623550 
	C54.147781,38.350113 54.049011,38.641685 54.165878,39.006210 
	C52.844166,40.779945 51.522453,42.553680 50.050468,44.638153 
	C48.832314,44.620415 47.764431,44.291939 46.358162,43.900452 
z"/>
<path fill="#4D7BBB" opacity="1.000000" stroke="none" 
	d="
M54.515678,39.015388 
	C54.049011,38.641685 54.147781,38.350113 54.690075,38.034897 
	C55.348633,37.951366 55.779305,37.964424 56.531010,37.980888 
	C56.852039,37.984287 56.921730,38.461647 56.939911,38.701500 
	C56.260555,38.969090 55.563015,38.996822 54.515678,39.015388 
z"/>
<path fill="#4F73BC" opacity="1.000000" stroke="none" 
	d="
M38.966045,51.043709 
	C39.162682,51.324936 39.359322,51.606167 39.779190,52.025356 
	C40.002090,52.571056 40.001755,52.978790 40.001053,53.693035 
	C39.555782,53.999939 39.110870,54.000340 38.332207,54.001259 
	C37.983570,53.808163 37.968685,53.614552 37.943108,52.850273 
	C37.943382,51.902470 37.954353,51.525337 38.212608,51.094345 
	C38.628609,51.041557 38.797325,51.042633 38.966045,51.043709 
z"/>
<path fill="#33E0A3" opacity="1.000000" stroke="none" 
	d="
M40.916470,15.829336 
	C35.314262,15.823434 29.565840,15.543761 23.564146,15.073984 
	C23.244707,14.487021 23.178543,14.090162 23.087179,13.393027 
	C25.433058,13.366511 27.804134,13.640272 30.575140,13.910096 
	C32.445297,13.991505 33.915524,14.076848 35.683670,14.049291 
	C36.803860,13.737045 37.626129,13.537700 38.726906,13.182960 
	C39.593697,13.870232 40.181976,14.712899 40.916470,15.829336 
z"/>
<path fill="#34D8A5" opacity="1.000000" stroke="none" 
	d="
M22.839611,16.017450 
	C22.440912,16.611050 22.042215,17.204649 21.387362,17.903816 
	C21.101862,17.579641 21.072517,17.149895 21.339828,16.375328 
	C22.037525,16.026155 22.438568,16.021803 22.839611,16.017450 
z"/>
<path fill="#449EB2" opacity="1.000000" stroke="none" 
	d="
M22.911364,15.784161 
	C22.438568,16.021803 22.037525,16.026155 21.337322,16.051935 
	C21.030512,15.894402 21.022860,15.715441 21.008263,15.267866 
	C21.466740,15.011316 21.932163,15.023382 22.747089,15.055771 
	C23.096590,15.076095 22.983116,15.550871 22.911364,15.784161 
z"/>
<path fill="#5C40C8" opacity="1.000000" stroke="none" 
	d="
M31.201595,53.102463 
	C31.266430,52.520664 31.506073,52.097340 32.245880,51.406193 
	C33.496651,51.163979 34.247257,51.189587 35.002197,51.421570 
	C35.006535,51.627945 35.018024,52.040623 35.018024,52.040623 
	C34.756546,52.517326 34.495068,52.994026 34.107002,53.710083 
	C33.541340,53.957794 33.102268,53.966156 32.333675,53.968288 
	C31.813522,53.711689 31.604271,53.477985 31.201595,53.102463 
z"/>
<path fill="#5B43C7" opacity="1.000000" stroke="none" 
	d="
M35.303654,52.136909 
	C35.018024,52.040623 35.006535,51.627945 35.369484,51.353157 
	C36.476727,51.101646 37.221024,51.124928 37.965324,51.148209 
	C37.954353,51.525337 37.943382,51.902470 37.918022,52.560081 
	C37.132179,52.638107 36.360733,52.435654 35.303654,52.136909 
z"/>
<path fill="#2B2A2A" opacity="1.000000" stroke="none" 
	d="
M42.977531,35.717232 
	C40.220154,34.805481 37.436256,33.536247 34.328190,32.125965 
	C35.858055,30.041775 34.979519,25.139191 39.243610,26.050373 
	C43.126987,26.880203 42.628494,30.780458 42.820797,33.880291 
	C42.851437,34.374233 42.906982,34.866634 42.977531,35.717232 
z"/>
<path fill="#2B2A2A" opacity="1.000000" stroke="none" 
	d="
M30.882687,32.506840 
	C28.461287,33.840187 26.042429,34.797535 23.309752,35.920971 
	C23.091635,34.934765 23.263739,33.782784 23.268377,32.630123 
	C23.281103,29.468632 23.742716,26.073870 27.477478,26.092842 
	C28.623589,26.098663 29.749868,30.008652 30.882687,32.506840 
z"/>
<path fill="#3C3C3B" opacity="1.000000" stroke="none" 
	d="
M38.212608,51.094345 
	C37.221024,51.124928 36.476727,51.101646 35.365147,51.146782 
	C34.247257,51.189587 33.496651,51.163979 32.374603,51.198181 
	C30.948915,51.183376 29.894669,51.108761 28.444284,51.060936 
	C27.088238,46.732613 28.612825,43.671101 32.311520,43.527496 
	C36.662994,43.358543 38.915825,45.861164 38.960052,50.649628 
	C38.797325,51.042633 38.628609,51.041557 38.212608,51.094345 
z"/>
</svg>