<svg version="1.1" id="Layer_1" xmlns="http://www.w3.org/2000/svg" xmlns:xlink="http://www.w3.org/1999/xlink" x="0px" y="0px"
	 width="100%" viewBox="0 0 64 64" enable-background="new 0 0 64 64" xml:space="preserve">
<path fill="#FED05C" opacity="1.000000" stroke="none" 
	d="
M1.000000,43.000000 
	C1.000000,36.645603 1.000000,30.291204 1.310384,23.760983 
	C2.273759,22.682329 3.179218,21.869915 3.540013,20.862446 
	C6.573305,12.392404 12.211412,6.619309 20.731253,3.586330 
	C21.674826,3.250427 22.252584,1.886924 23.000000,1.000000 
	C29.354399,1.000000 35.708797,1.000000 42.239033,1.310390 
	C43.317707,2.273768 44.130123,3.179256 45.137604,3.540012 
	C53.607891,6.573032 59.380505,12.211584 62.413658,20.731213 
	C62.749596,21.674803 64.113075,22.252571 65.000000,23.000000 
	C65.000000,29.354399 65.000000,35.708797 64.689621,42.239002 
	C63.726299,43.317547 62.820740,44.129860 62.460133,45.137245 
	C59.427711,53.608570 53.786926,59.379364 45.268265,62.413807 
	C44.324810,62.749870 43.747253,64.113136 43.000000,65.000000 
	C36.645603,65.000000 30.291204,65.000000 23.761005,64.689629 
	C22.682402,63.726257 21.870020,62.820793 20.862574,62.459969 
	C12.392678,59.426476 6.619457,53.788410 3.586305,45.268665 
	C3.250387,44.325115 1.886914,43.747387 1.000000,43.000000 
M30.257050,46.989655 
	C26.869568,46.107471 23.482088,45.225292 20.969845,44.571041 
	C20.969845,40.167248 20.969845,36.810738 20.969845,34.165310 
	C16.334148,36.249714 11.936299,38.227169 7.374234,40.278465 
	C8.042975,41.099934 8.861562,42.636841 10.127250,43.562248 
	C14.195788,46.536953 18.292198,49.518959 22.628830,52.071815 
	C30.851107,56.912048 40.774830,56.224236 46.928524,49.402725 
	C50.973942,44.918282 53.437847,39.007153 56.746868,33.507381 
	C56.787865,33.533100 57.733856,34.126644 58.679844,34.720184 
	C59.125721,34.260784 59.571598,33.801380 60.017475,33.341980 
	C57.111317,29.764194 54.062927,26.291525 51.326107,22.588581 
	C43.623688,12.167154 38.378349,10.134005 26.447300,13.243025 
	C20.297079,14.845662 19.000761,17.609922 22.609182,22.975149 
	C25.171373,26.784773 28.546078,30.047934 31.209190,33.148716 
	C29.837387,34.971188 28.501120,36.746452 26.797569,39.009659 
	C28.476000,38.869865 29.453316,38.656948 30.405832,38.737453 
	C32.197948,38.888924 33.975750,39.209709 35.759502,39.460102 
	C35.209068,41.431843 34.889927,43.516850 34.004665,45.324627 
	C33.599182,46.152672 32.080246,46.435463 30.257050,46.989655 
z"/>
<path fill="#000000" opacity="1.000000" stroke="none" 
	d="
M22.531219,1.000000 
	C22.252584,1.886924 21.674826,3.250427 20.731253,3.586330 
	C12.211412,6.619309 6.573305,12.392404 3.540013,20.862446 
	C3.179218,21.869915 2.273759,22.682329 1.310384,23.292580 
	C1.000000,15.740432 1.000000,8.480865 1.000000,1.000000 
	C8.019269,1.000000 15.040852,1.000000 22.531219,1.000000 
z"/>
<path fill="#000000" opacity="1.000000" stroke="none" 
	d="
M65.000000,22.531219 
	C64.113075,22.252571 62.749596,21.674803 62.413658,20.731213 
	C59.380505,12.211584 53.607891,6.573032 45.137604,3.540012 
	C44.130123,3.179256 43.317707,2.273768 42.707436,1.310390 
	C50.259567,1.000000 57.519135,1.000000 65.000000,1.000000 
	C65.000000,8.019269 65.000000,15.040852 65.000000,22.531219 
z"/>
<path fill="#000000" opacity="1.000000" stroke="none" 
	d="
M1.000000,43.468781 
	C1.886914,43.747387 3.250387,44.325115 3.586305,45.268665 
	C6.619457,53.788410 12.392678,59.426476 20.862574,62.459969 
	C21.870020,62.820793 22.682402,63.726257 23.292603,64.689629 
	C15.740432,65.000000 8.480865,65.000000 1.000000,65.000000 
	C1.000000,57.980732 1.000000,50.959148 1.000000,43.468781 
z"/>
<path fill="#000000" opacity="1.000000" stroke="none" 
	d="
M43.468781,65.000000 
	C43.747253,64.113136 44.324810,62.749870 45.268265,62.413807 
	C53.786926,59.379364 59.427711,53.608570 62.460133,45.137245 
	C62.820740,44.129860 63.726299,43.317547 64.689621,42.707405 
	C65.000000,50.259567 65.000000,57.519135 65.000000,65.000000 
	C57.980732,65.000000 50.959148,65.000000 43.468781,65.000000 
z"/>
<path fill="#040403" opacity="1.000000" stroke="none" 
	d="
M30.661659,46.977592 
	C32.080246,46.435463 33.599182,46.152672 34.004665,45.324627 
	C34.889927,43.516850 35.209068,41.431843 35.759502,39.460102 
	C33.975750,39.209709 32.197948,38.888924 30.405832,38.737453 
	C29.453316,38.656948 28.476000,38.869865 26.797569,39.009659 
	C28.501120,36.746452 29.837387,34.971188 31.209190,33.148716 
	C28.546078,30.047934 25.171373,26.784773 22.609182,22.975149 
	C19.000761,17.609922 20.297079,14.845662 26.447300,13.243025 
	C38.378349,10.134005 43.623688,12.167154 51.326107,22.588581 
	C54.062927,26.291525 57.111317,29.764194 60.017475,33.341980 
	C59.571598,33.801380 59.125721,34.260784 58.679844,34.720184 
	C57.733856,34.126644 56.787865,33.533100 56.746868,33.507381 
	C53.437847,39.007153 50.973942,44.918282 46.928524,49.402725 
	C40.774830,56.224236 30.851107,56.912048 22.628830,52.071815 
	C18.292198,49.518959 14.195788,46.536953 10.127250,43.562248 
	C8.861562,42.636841 8.042975,41.099934 7.374234,40.278465 
	C11.936299,38.227169 16.334148,36.249714 20.969845,34.165310 
	C20.969845,36.810738 20.969845,40.167248 20.969845,44.571041 
	C23.482088,45.225292 26.869568,46.107471 30.661659,46.977592 
M27.357702,20.002771 
	C26.549322,20.056749 25.740942,20.110727 24.363453,20.202707 
	C25.139193,21.653421 25.529770,22.957998 26.365219,23.842260 
	C29.269350,26.916082 32.471680,29.714674 35.296791,32.855251 
	C40.749653,38.917007 38.524555,48.215103 31.102242,49.608326 
	C28.315035,50.131504 25.186808,48.837906 22.215765,48.360336 
	C28.844469,53.768711 35.636726,54.316547 42.484066,49.995090 
	C47.365562,46.914310 49.089813,41.879375 46.985950,36.515137 
	C43.566528,27.796589 36.914814,22.716413 27.357702,20.002771 
z"/>
<path fill="#FCFCFC" opacity="1.000000" stroke="none" 
	d="
M27.772455,20.014189 
	C36.914814,22.716413 43.566528,27.796589 46.985950,36.515137 
	C49.089813,41.879375 47.365562,46.914310 42.484066,49.995090 
	C35.636726,54.316547 28.844469,53.768711 22.214909,48.366463 
	C25.186808,48.837906 28.315035,50.131504 31.102242,49.608326 
	C38.524555,48.215103 40.749653,38.917007 35.296791,32.855251 
	C32.471680,29.714674 29.269350,26.916082 26.365219,23.842260 
	C25.529770,22.957998 25.139193,21.653421 24.363453,20.202707 
	C25.740942,20.110727 26.549322,20.056749 27.772455,20.014189 
z"/>
</svg>