<svg version="1.1" id="Layer_1" xmlns="http://www.w3.org/2000/svg" xmlns:xlink="http://www.w3.org/1999/xlink" x="0px" y="0px"
	 width="100%" viewBox="0 0 64 64" enable-background="new 0 0 64 64" xml:space="preserve">
<path fill="#E6DAFE" opacity="1.000000" stroke="none" 
	d="
M43.000000,65.000000 
	C36.645603,65.000000 30.291204,65.000000 23.774878,64.699875 
	C23.165594,63.948875 22.798206,63.270554 22.258989,63.080971 
	C12.943118,59.805676 6.712742,53.418339 3.011668,44.359596 
	C2.757074,43.736450 1.689498,43.445457 1.000000,43.000000 
	C1.000000,36.645603 1.000000,30.291204 1.300129,23.774876 
	C2.051126,23.165596 2.729446,22.798212 2.919025,22.258997 
	C6.194324,12.943132 12.581652,6.712744 21.640400,3.011669 
	C22.263546,2.757074 22.554539,1.689498 23.000000,1.000000 
	C29.354399,1.000000 35.708797,1.000000 42.225121,1.300128 
	C42.834404,2.051125 43.201790,2.729446 43.741009,2.919026 
	C53.056873,6.194327 59.287254,12.581658 62.988335,21.640402 
	C63.242928,22.263548 64.310501,22.554539 65.000000,23.000000 
	C65.000000,29.354399 65.000000,35.708797 64.699875,42.225121 
	C63.948875,42.834404 63.270554,43.201790 63.080975,43.741005 
	C59.805687,53.056885 53.418346,59.287262 44.359604,62.988338 
	C43.736454,63.242931 43.445461,64.310501 43.000000,65.000000 
M49.996559,27.895943 
	C49.688774,26.988646 49.325150,26.096029 49.082146,25.171700 
	C47.331608,18.512920 42.523861,15.032584 36.194359,14.127506 
	C29.694868,13.198120 24.263250,15.385680 20.170849,21.155645 
	C16.138605,26.840792 16.971128,33.043098 17.133343,39.174603 
	C17.192692,41.417896 18.773531,43.620930 19.660282,45.842331 
	C20.106922,45.652390 20.553560,45.462452 21.000200,45.272514 
	C21.000200,40.946438 20.921301,36.618607 21.017273,32.294659 
	C21.195415,24.268702 25.708303,18.603996 32.213955,17.994156 
	C38.883366,17.368969 44.382141,21.707722 45.921406,27.999418 
	C47.355564,33.861511 43.570904,39.716381 37.229942,42.015930 
	C33.740784,43.281273 33.740784,43.281277 34.941109,46.933464 
	C45.711037,45.164738 50.914547,37.381569 49.996559,27.895943 
M30.020502,29.198326 
	C31.474497,28.174505 32.851810,26.547045 34.410706,26.349022 
	C35.374706,26.226568 37.399284,28.194139 37.526569,29.376463 
	C37.675507,30.759916 36.251289,32.296825 35.561115,33.790993 
	C34.869736,35.287785 34.241966,36.813957 33.299377,38.989532 
	C35.031269,38.420734 35.660976,38.236801 36.274292,38.008793 
	C40.293064,36.514774 42.651363,33.533306 41.851532,29.362984 
	C41.066967,25.272240 38.178440,22.190905 33.746445,22.110973 
	C29.651508,22.037119 26.419985,24.073584 26.027327,28.642126 
	C25.535843,34.360435 25.516918,40.122288 24.937395,45.829128 
	C24.515858,49.980221 26.111290,52.647034 30.002062,54.748081 
	C30.002062,46.289749 30.002062,38.188393 30.020502,29.198326 
z"/>
<path fill="#000000" opacity="1.000000" stroke="none" 
	d="
M22.531218,1.000000 
	C22.554539,1.689498 22.263546,2.757074 21.640400,3.011669 
	C12.581652,6.712744 6.194324,12.943132 2.919025,22.258997 
	C2.729446,22.798212 2.051126,23.165596 1.300129,23.306473 
	C1.000000,15.740432 1.000000,8.480865 1.000000,1.000000 
	C8.019269,1.000000 15.040852,1.000000 22.531218,1.000000 
z"/>
<path fill="#000000" opacity="1.000000" stroke="none" 
	d="
M65.000000,22.531218 
	C64.310501,22.554539 63.242928,22.263548 62.988335,21.640402 
	C59.287254,12.581658 53.056873,6.194327 43.741009,2.919026 
	C43.201790,2.729446 42.834404,2.051125 42.693527,1.300128 
	C50.259567,1.000000 57.519135,1.000000 65.000000,1.000000 
	C65.000000,8.019269 65.000000,15.040852 65.000000,22.531218 
z"/>
<path fill="#000000" opacity="1.000000" stroke="none" 
	d="
M1.000000,43.468781 
	C1.689498,43.445457 2.757074,43.736450 3.011668,44.359596 
	C6.712742,53.418339 12.943118,59.805676 22.258989,63.080971 
	C22.798206,63.270554 23.165594,63.948875 23.306475,64.699875 
	C15.740432,65.000000 8.480865,65.000000 1.000000,65.000000 
	C1.000000,57.980732 1.000000,50.959148 1.000000,43.468781 
z"/>
<path fill="#000000" opacity="1.000000" stroke="none" 
	d="
M43.468784,65.000000 
	C43.445461,64.310501 43.736454,63.242931 44.359604,62.988338 
	C53.418346,59.287262 59.805687,53.056885 63.080975,43.741005 
	C63.270554,43.201790 63.948875,42.834404 64.699875,42.693527 
	C65.000000,50.259567 65.000000,57.519135 65.000000,65.000000 
	C57.980732,65.000000 50.959148,65.000000 43.468784,65.000000 
z"/>
<path fill="#242235" opacity="1.000000" stroke="none" 
	d="
M49.998093,28.330528 
	C50.914547,37.381569 45.711037,45.164738 34.941109,46.933464 
	C33.740784,43.281277 33.740784,43.281273 37.229942,42.015930 
	C43.570904,39.716381 47.355564,33.861511 45.921406,27.999418 
	C44.382141,21.707722 38.883366,17.368969 32.213955,17.994156 
	C25.708303,18.603996 21.195415,24.268702 21.017273,32.294659 
	C20.921301,36.618607 21.000200,40.946438 21.000200,45.272514 
	C20.553560,45.462452 20.106922,45.652390 19.660282,45.842331 
	C18.773531,43.620930 17.192692,41.417896 17.133343,39.174603 
	C16.971128,33.043098 16.138605,26.840792 20.170849,21.155645 
	C24.263250,15.385680 29.694868,13.198120 36.194359,14.127506 
	C42.523861,15.032584 47.331608,18.512920 49.082146,25.171700 
	C49.325150,26.096029 49.688774,26.988646 49.998093,28.330528 
z"/>
<path fill="#242235" opacity="1.000000" stroke="none" 
	d="
M30.011282,29.642681 
	C30.002062,38.188393 30.002062,46.289749 30.002062,54.748081 
	C26.111290,52.647034 24.515858,49.980221 24.937395,45.829128 
	C25.516918,40.122288 25.535843,34.360435 26.027327,28.642126 
	C26.419985,24.073584 29.651508,22.037119 33.746445,22.110973 
	C38.178440,22.190905 41.066967,25.272240 41.851532,29.362984 
	C42.651363,33.533306 40.293064,36.514774 36.274292,38.008793 
	C35.660976,38.236801 35.031269,38.420734 33.299377,38.989532 
	C34.241966,36.813957 34.869736,35.287785 35.561115,33.790993 
	C36.251289,32.296825 37.675507,30.759916 37.526569,29.376463 
	C37.399284,28.194139 35.374706,26.226568 34.410706,26.349022 
	C32.851810,26.547045 31.474497,28.174505 30.011282,29.642681 
z"/>
</svg>