<svg version="1.1" id="Layer_1" xmlns="http://www.w3.org/2000/svg" xmlns:xlink="http://www.w3.org/1999/xlink" x="0px" y="0px"
	 width="100%" viewBox="0 0 200 200" enable-background="new 0 0 200 200" xml:space="preserve">
<path fill="#000000" opacity="1.000000" stroke="none" 
	d="
M104.000000,0.999999 
	C136.297302,1.000000 168.594604,1.000000 200.945953,1.000000 
	C200.945953,67.556305 200.945953,134.112671 200.945953,201.000000 
	C169.313202,201.000000 137.625259,201.000000 105.143814,200.764740 
	C104.599625,200.060745 104.848953,199.591980 105.455429,199.065552 
	C108.931679,197.033615 112.050781,195.059357 115.534653,193.068634 
	C118.973167,191.050781 122.046906,189.049393 125.478416,187.025574 
	C127.572502,186.041351 129.308807,185.079544 131.408966,184.065567 
	C135.564362,181.690277 139.355896,179.367157 143.498230,177.018890 
	C145.922623,175.713806 147.996201,174.433884 150.429108,173.084030 
	C154.560989,170.704056 158.333542,168.394012 162.431870,166.045502 
	C163.510620,165.625046 164.263580,165.243027 165.348541,164.841202 
	C167.122772,163.830887 168.565018,162.840363 170.353271,161.823822 
	C172.798859,160.485336 174.898422,159.172882 177.346359,157.828735 
	C180.499634,155.886444 183.304565,153.975861 186.528244,152.010101 
	C187.240387,148.637817 187.533768,145.320724 187.898666,141.545975 
	C187.923386,137.061646 187.876587,133.035004 187.901474,128.551483 
	C187.924896,124.395958 187.876648,120.697296 187.899231,116.542549 
	C187.922516,112.390083 187.874954,108.693703 187.899078,104.544189 
	C187.924164,100.728432 187.877579,97.365822 187.903336,93.553291 
	C187.927597,90.067467 187.879532,87.031563 187.902466,83.536713 
	C187.973480,79.149124 187.973480,75.220474 187.973480,69.731224 
	C185.058350,71.874947 183.006012,73.384193 180.631104,74.942535 
	C179.815079,75.327553 179.321640,75.663475 178.468781,76.231873 
	C178.072632,79.113251 178.012939,81.762070 178.002808,84.411079 
	C177.924271,104.947983 177.855301,125.484909 177.456848,146.003601 
	C176.065308,146.615707 175.000320,147.246063 173.626389,148.024216 
	C171.530289,149.411957 169.743118,150.651917 167.599762,151.944550 
	C164.844635,153.380554 162.445724,154.763855 159.704559,156.169495 
	C157.559937,157.420898 155.757584,158.649979 153.594818,159.931641 
	C150.814346,161.372482 148.394257,162.760727 145.635818,164.196289 
	C142.847809,165.780777 140.398163,167.317978 137.726929,168.895508 
	C137.176788,168.917801 136.900269,169.029266 136.490448,169.240295 
	C136.305069,169.210388 136.138229,169.546860 135.879669,169.742981 
	C132.756943,171.676544 129.892776,173.413986 126.682129,175.180328 
	C123.889565,176.862839 121.443481,178.516434 118.653885,180.199951 
	C116.215012,181.524841 114.119644,182.819809 111.663147,184.046265 
	C107.854614,186.285461 104.407204,188.593185 100.623032,190.834763 
	C94.901764,187.494781 89.517258,184.220932 83.974106,180.623077 
	C78.581100,177.517059 73.346733,174.735046 67.968109,171.624557 
	C62.912090,168.480865 58.000332,165.665634 52.931763,162.529678 
	C48.232403,159.785660 43.689861,157.362396 39.059708,154.674957 
	C38.649494,154.313599 38.326889,154.216400 37.767952,154.057602 
	C37.531624,153.996017 37.059101,153.872345 36.901550,153.558167 
	C33.523556,151.447342 30.303120,149.650696 26.964134,147.567810 
	C25.946915,146.842270 25.048241,146.403000 24.083811,145.501770 
	C24.014126,115.404099 24.010197,85.768364 24.369999,56.067009 
	C29.199316,53.351017 33.664898,50.700634 38.471016,48.023643 
	C40.243996,47.038887 41.676441,46.080738 43.477119,45.085312 
	C47.283710,43.048038 50.722061,41.048042 54.468487,38.893875 
	C57.213402,37.201828 59.650242,35.663963 62.443810,34.083652 
	C65.199936,32.636414 67.599335,31.231617 70.334167,29.808023 
	C72.113319,28.800852 73.557045,27.812477 75.348785,26.792751 
	C78.177292,25.188999 80.657784,23.616598 83.431183,21.915247 
	C84.487030,21.476192 85.249962,21.166092 86.356049,20.824497 
	C88.800110,19.480684 90.901016,18.168367 93.342850,16.830971 
	C95.804665,15.245660 97.925568,13.685426 100.405899,12.074367 
	C104.179268,13.961427 107.593216,15.899311 111.333443,17.996277 
	C115.445534,20.386015 119.231339,22.616669 123.342896,25.001709 
	C128.425262,27.817333 133.181854,30.478573 138.108078,33.440643 
	C140.824371,35.200264 143.371048,36.659046 146.092148,38.440979 
	C149.138550,40.192947 152.010513,41.621765 155.010529,43.340961 
	C155.737579,43.797260 156.336548,43.963181 157.016296,44.358826 
	C157.097046,44.588551 157.464844,44.908516 157.464844,44.908516 
	C157.464844,44.908516 157.949661,44.855881 158.263306,44.987671 
	C163.970947,48.383636 165.527603,42.396191 169.231461,41.585526 
	C169.232269,41.156410 169.233093,40.727291 169.233902,40.298172 
	C163.823090,37.247940 158.412262,34.197712 152.677414,30.999931 
	C149.247131,28.944668 146.140900,27.036955 142.704926,24.993294 
	C139.958023,23.550005 137.540848,22.242664 134.968811,20.611042 
	C129.581390,17.508247 124.348846,14.729733 118.971863,11.623610 
	C114.897842,9.161777 110.968269,7.027552 106.885826,4.558763 
	C105.821976,3.149465 104.910988,2.074732 104.000000,0.999999 
M114.505852,101.010918 
	C114.343475,101.054253 114.181091,101.097580 113.360176,101.185341 
	C112.572166,101.511688 111.784157,101.838036 110.147774,102.022240 
	C108.430321,102.068695 106.712868,102.115150 104.091423,102.021080 
	C100.727348,102.068825 97.363274,102.116570 93.092346,102.022522 
	C89.728004,102.070992 86.363655,102.119461 82.087257,102.027168 
	C78.392586,102.074387 74.697922,102.121597 70.195229,102.024826 
	C69.104851,102.069824 68.014481,102.114830 66.132118,102.484833 
	C66.088776,116.175751 66.028564,129.866684 66.047081,143.557526 
	C66.048111,144.318817 66.700562,145.079224 67.965485,145.976639 
	C71.858055,145.976639 75.750626,145.976639 79.843819,145.976639 
	C79.843819,141.763016 79.843819,138.028351 79.984848,133.428284 
	C80.037033,127.623131 80.089211,121.817970 81.053734,116.000679 
	C91.057129,115.946518 101.060516,115.892365 111.803116,115.981094 
	C113.195175,115.611496 114.587227,115.241890 116.732635,114.968651 
	C118.816895,114.260635 120.901146,113.552628 123.646133,112.825478 
	C125.118744,111.597290 126.591354,110.369095 128.765091,109.066223 
	C130.208939,107.395180 131.652786,105.724136 133.703476,103.800285 
	C134.430588,102.516174 135.157684,101.232063 136.234772,99.289139 
	C137.100128,96.192642 137.965500,93.096138 138.972824,89.107994 
	C139.806915,75.215706 132.924316,66.112160 120.240105,60.002071 
	C117.825874,59.381203 115.411644,58.760334 112.333397,58.009407 
	C111.887871,57.949806 111.442345,57.890205 110.547966,57.094860 
	C96.686226,57.063404 82.824448,57.012466 68.962852,57.043930 
	C68.030457,57.046051 67.099472,57.670620 66.024872,58.919495 
	C66.073059,62.923618 66.121239,66.927742 66.327850,71.805115 
	C81.955574,71.817665 97.583305,71.830215 113.763596,72.242493 
	C115.451500,73.188751 117.139397,74.135010 119.157722,75.721497 
	C121.065567,78.494064 122.973419,81.266624 124.977776,84.845085 
	C124.702774,86.905067 124.427773,88.965042 123.993187,91.706093 
	C123.314354,93.102608 122.635521,94.499123 121.350319,96.156219 
	C119.899933,97.493851 118.449554,98.831482 116.415092,100.145866 
	C115.941788,100.474716 115.468475,100.803574 114.505852,101.010918 
M185.893082,63.014191 
	C190.053116,60.677437 188.607910,56.078651 187.625839,53.831768 
	C186.255676,50.696907 182.506485,48.436825 179.413086,46.335766 
	C178.635849,45.807861 176.477966,47.312672 174.190750,47.994167 
	C167.981125,49.085217 169.141678,53.783634 168.920044,58.134434 
	C168.624832,63.929832 173.531509,64.836502 176.865967,65.977036 
	C179.027847,66.716499 182.308853,64.184036 185.893082,63.014191 
M123.430893,145.839539 
	C128.202850,145.839539 132.974808,145.839539 137.763138,145.839539 
	C137.853271,145.135147 138.138748,144.521652 137.945175,144.177795 
	C134.147964,137.432373 130.445145,130.623505 126.315147,124.085236 
	C125.571777,122.908401 123.053825,122.600250 121.296608,122.396721 
	C119.916290,122.236839 118.445633,122.856949 116.280548,123.254425 
	C114.464188,123.955070 112.647835,124.655716 110.733368,125.394203 
	C112.051460,127.665359 112.972855,129.362457 113.996254,130.995651 
	C116.956093,135.719086 119.956993,140.416794 123.430893,145.839539 
z"/>
<path fill="#000000" opacity="1.000000" stroke="none" 
	d="
M97.000000,201.000000 
	C65.035736,201.000000 33.071480,201.000000 1.053610,201.000000 
	C1.053610,134.443573 1.053610,67.887085 1.053610,1.000000 
	C32.686794,1.000000 64.374741,1.000000 96.872620,1.259189 
	C97.439667,2.311443 97.196777,3.104507 96.586639,3.939125 
	C94.145012,5.041523 92.070625,6.102367 89.653534,7.195122 
	C87.214310,8.534793 85.117783,9.842554 82.706039,11.157188 
	C81.568001,11.736448 80.745178,12.308835 79.612717,12.918472 
	C78.835052,13.280239 78.367020,13.604757 77.925377,13.943335 
	C77.951759,13.957394 77.913269,13.910609 77.600647,14.057699 
	C75.197426,15.526240 73.106834,16.847692 70.668556,18.199619 
	C68.170486,19.461397 66.020103,20.692701 63.571342,22.069990 
	C61.831253,23.104626 60.389538,23.993275 58.626308,25.034191 
	C54.506374,27.419739 50.707947,29.653017 46.550549,31.921223 
	C43.466888,33.690651 40.742207,35.425156 37.677773,37.183247 
	C35.543686,38.429142 33.749344,39.651447 31.591227,40.928635 
	C27.115253,43.284985 23.003057,45.586452 18.573338,48.053452 
	C12.804379,50.259453 13.890060,54.778736 14.100490,59.451790 
	C14.078485,63.940121 14.126522,67.969345 14.102634,72.459923 
	C14.077298,77.613342 14.123885,82.305420 14.098044,87.460640 
	C14.072654,93.616508 14.119690,99.309235 14.096020,105.465683 
	C14.072880,112.953888 14.120447,119.978363 14.097765,127.466637 
	C14.018529,133.428925 14.431123,138.969864 13.882989,144.414062 
	C13.325430,149.951889 15.093756,153.186890 20.343616,155.216690 
	C24.080706,156.661575 27.420475,159.134079 31.100189,161.459427 
	C34.221039,163.340149 37.179256,164.909393 40.186165,166.627731 
	C40.234848,166.776810 40.534691,166.868896 40.674473,167.080322 
	C41.215454,167.485214 41.616653,167.678696 42.376099,167.940536 
	C47.470146,170.718613 52.205952,173.428329 57.105949,176.449570 
	C62.181225,179.452972 67.092308,182.144836 72.325462,184.990601 
	C77.418358,187.797165 82.189186,190.449829 87.101318,193.423676 
	C88.625061,194.519791 90.121536,195.146683 91.363792,196.103577 
	C93.331947,197.619644 95.129990,199.356537 97.000000,201.000000 
z"/>
<path fill="#49A5E1" opacity="1.000000" stroke="none" 
	d="
M97.444168,201.000000 
	C95.129990,199.356537 93.331947,197.619644 91.363792,196.103577 
	C90.121536,195.146683 88.625061,194.519791 87.104172,193.029236 
	C86.172523,190.175613 85.223045,188.079254 84.638603,185.885666 
	C84.217911,184.306641 84.283875,182.597946 84.132751,180.947098 
	C89.517258,184.220932 94.901764,187.494781 100.650131,191.206573 
	C102.375420,194.137405 103.736855,196.630325 105.098282,199.123230 
	C104.848953,199.591980 104.599625,200.060745 104.675156,200.764740 
	C102.629440,201.000000 100.258888,201.000000 97.444168,201.000000 
z"/>
<path fill="#7F40FD" opacity="1.000000" stroke="none" 
	d="
M96.953888,3.897573 
	C97.196777,3.104507 97.439667,2.311443 97.341278,1.259189 
	C99.041664,1.000000 101.083336,1.000000 103.562500,0.999999 
	C104.910988,2.074732 105.821976,3.149465 106.897842,4.939002 
	C108.377541,9.714936 109.692352,13.776066 111.007156,17.837196 
	C107.593216,15.899311 104.179268,13.961427 100.375687,11.700961 
	C98.975319,8.884778 97.964600,6.391176 96.953888,3.897573 
z"/>
<path fill="#4FC8C8" opacity="1.000000" stroke="none" 
	d="
M30.937565,161.147964 
	C27.420475,159.134079 24.080706,156.661575 20.343616,155.216690 
	C15.093756,153.186890 13.325430,149.951889 13.882989,144.414062 
	C14.431123,138.969864 14.018529,133.428925 14.424463,127.547745 
	C17.504745,130.094315 20.188078,133.023560 22.907734,136.400909 
	C23.345892,139.887253 23.747730,142.925476 24.149567,145.963715 
	C25.048241,146.403000 25.946915,146.842270 26.965349,147.951675 
	C28.369263,152.797180 29.653414,156.972580 30.937565,161.147964 
z"/>
<path fill="#664EFE" opacity="1.000000" stroke="none" 
	d="
M112.997414,58.139462 
	C115.411644,58.760334 117.825874,59.381203 120.625084,60.451393 
	C124.482277,67.639473 127.722466,74.512955 131.524338,81.060280 
	C133.432449,84.346306 136.362808,87.038750 138.830856,89.999641 
	C137.965500,93.096138 137.100128,96.192642 135.857193,99.354919 
	C131.946838,94.293526 128.414047,89.166359 124.881264,84.039192 
	C122.973419,81.266624 121.065567,78.494064 119.035332,74.999969 
	C118.260666,71.998901 117.752663,69.665161 116.921577,67.452789 
	C115.737839,64.301643 114.316978,61.239582 112.997414,58.139462 
z"/>
<path fill="#3F90EB" opacity="1.000000" stroke="none" 
	d="
M80.141396,116.012817 
	C80.089211,121.817970 80.037033,127.623131 79.518234,133.758698 
	C77.460838,132.587112 75.691566,131.231064 74.318092,129.551392 
	C71.796898,126.468094 69.508957,123.194061 67.079994,119.533287 
	C66.998840,113.431297 66.961472,107.795570 66.924103,102.159836 
	C68.014481,102.114830 69.104851,102.069824 70.623352,102.459160 
	C73.086395,107.683235 73.968849,113.333168 80.107773,115.289536 
	C80.092010,115.531128 80.141396,116.012817 80.141396,116.012817 
z"/>
<path fill="#4299E6" opacity="1.000000" stroke="none" 
	d="
M67.123779,119.999542 
	C69.508957,123.194061 71.796898,126.468094 74.318092,129.551392 
	C75.691566,131.231064 77.460838,132.587112 79.447716,134.191406 
	C79.843819,138.028351 79.843819,141.763016 79.843819,145.976639 
	C75.750626,145.976639 71.858055,145.976639 67.496994,145.450409 
	C67.060265,136.615952 67.092018,128.307755 67.123779,119.999542 
z"/>
<path fill="#6F48FD" opacity="1.000000" stroke="none" 
	d="
M138.901840,89.553818 
	C136.362808,87.038750 133.432449,84.346306 131.524338,81.060280 
	C127.722466,74.512955 124.482277,67.639473 121.003052,60.520264 
	C132.924316,66.112160 139.806915,75.215706 138.901840,89.553818 
z"/>
<path fill="#3C74FE" opacity="1.000000" stroke="none" 
	d="
M122.941765,145.124603 
	C119.956993,140.416794 116.956093,135.719086 113.996254,130.995651 
	C112.972855,129.362457 112.051460,127.665359 110.733368,125.394203 
	C112.647835,124.655716 114.464188,123.955070 116.910805,123.397308 
	C124.124977,128.448608 126.572525,135.851181 130.214996,142.907593 
	C127.214699,143.822128 125.078232,144.473373 122.941765,145.124603 
z"/>
<path fill="#8E2FFD" opacity="1.000000" stroke="none" 
	d="
M137.938446,33.139816 
	C133.181854,30.478573 128.425262,27.817333 123.265717,24.650066 
	C121.769371,21.550596 120.544441,19.002077 119.637108,16.345097 
	C119.171066,14.980338 119.271736,13.422050 119.116302,11.951219 
	C124.348846,14.729733 129.581390,17.508247 134.774933,20.859859 
	C135.803436,25.335245 136.870941,29.237532 137.938446,33.139816 
z"/>
<path fill="#3977FB" opacity="1.000000" stroke="none" 
	d="
M66.169418,70.931870 
	C66.121239,66.927742 66.073059,62.923618 66.543770,58.461670 
	C70.376251,58.055485 73.689835,58.107124 77.027519,58.514427 
	C79.035469,62.860611 81.019318,66.851128 82.539467,70.904877 
	C76.773651,70.956032 71.471535,70.943947 66.169418,70.931870 
z"/>
<path fill="#4AADDB" opacity="1.000000" stroke="none" 
	d="
M83.974106,180.623077 
	C84.283875,182.597946 84.217911,184.306641 84.638603,185.885666 
	C85.223045,188.079254 86.172523,190.175613 86.962875,192.708038 
	C82.189186,190.449829 77.418358,187.797165 72.249451,184.639404 
	C70.605026,180.073898 69.358696,176.013458 68.112366,171.953033 
	C73.346733,174.735046 78.581100,177.517059 83.974106,180.623077 
z"/>
<path fill="#4ABDCE" opacity="1.000000" stroke="none" 
	d="
M56.941753,176.138031 
	C52.205952,173.428329 47.470146,170.718613 42.281879,167.702271 
	C41.397839,167.220047 40.966267,167.044464 40.534691,166.868896 
	C40.534691,166.868896 40.234848,166.776810 40.357128,166.237183 
	C40.130894,163.848358 39.927216,161.956375 39.396408,160.161087 
	C38.763809,158.021515 37.850689,155.964905 37.059101,153.872345 
	C37.059101,153.872345 37.531624,153.996017 37.932678,154.228027 
	C38.579765,154.662460 38.850960,154.822159 39.147316,154.939117 
	C43.689861,157.362396 48.232403,159.785660 52.916420,162.922913 
	C54.352516,167.803940 55.647133,171.970978 56.941753,176.138031 
z"/>
<path fill="#4771FF" opacity="1.000000" stroke="none" 
	d="
M123.186325,145.482071 
	C125.078232,144.473373 127.214699,143.822128 130.214996,142.907593 
	C126.572525,135.851181 124.124977,128.448608 117.278084,123.335373 
	C118.445633,122.856949 119.916290,122.236839 121.296608,122.396721 
	C123.053825,122.600250 125.571777,122.908401 126.315147,124.085236 
	C130.445145,130.623505 134.147964,137.432373 137.945175,144.177795 
	C138.138748,144.521652 137.853271,145.135147 137.763138,145.839539 
	C132.974808,145.839539 128.202850,145.839539 123.186325,145.482071 
z"/>
<path fill="#4DB5D6" opacity="1.000000" stroke="none" 
	d="
M57.105949,176.449570 
	C55.647133,171.970978 54.352516,167.803940 53.073235,163.243652 
	C58.000332,165.665634 62.912090,168.480865 67.968109,171.624573 
	C69.358696,176.013458 70.605026,180.073898 71.927368,184.485504 
	C67.092308,182.144836 62.181225,179.452972 57.105949,176.449570 
z"/>
<path fill="#B80DFB" opacity="1.000000" stroke="none" 
	d="
M174.954590,47.883308 
	C176.477966,47.312672 178.635849,45.807861 179.413086,46.335766 
	C182.506485,48.436825 186.255676,50.696907 187.625839,53.831768 
	C188.607910,56.078651 190.053116,60.677437 185.156342,63.082901 
	C183.607620,63.225899 182.646362,63.618191 182.009583,63.319279 
	C179.289841,62.042614 174.506027,51.348221 174.954590,47.883308 
z"/>
<path fill="#3977FB" opacity="1.000000" stroke="none" 
	d="
M93.999207,102.164314 
	C97.363274,102.116570 100.727348,102.068825 104.568741,102.454880 
	C106.697136,106.863678 108.348213,110.838684 109.543106,114.880829 
	C105.392960,114.912323 101.698997,114.876671 97.978844,114.475510 
	C96.634842,110.128098 95.317024,106.146202 93.999207,102.164314 
z"/>
<path fill="#479BE8" opacity="1.000000" stroke="none" 
	d="
M18.890862,47.887924 
	C23.003057,45.586452 27.115253,43.284985 31.605253,41.323261 
	C32.641907,45.130180 32.429466,49.435928 38.130482,48.050255 
	C33.664898,50.700634 29.199316,53.351017 24.138521,56.059914 
	C23.543310,56.118427 23.079214,56.114773 22.897013,55.811424 
	C21.440161,52.968025 20.165510,50.427971 18.890862,47.887924 
z"/>
<path fill="#3A7EF7" opacity="1.000000" stroke="none" 
	d="
M93.545776,102.093414 
	C95.317024,106.146202 96.634842,110.128098 97.523956,114.535866 
	C93.734734,114.921288 90.374214,114.880844 86.986191,114.477074 
	C85.638893,110.131813 84.319107,106.149879 82.999313,102.167938 
	C86.363655,102.119461 89.728004,102.070992 93.545776,102.093414 
z"/>
<path fill="#4087F3" opacity="1.000000" stroke="none" 
	d="
M82.543289,102.097549 
	C84.319107,106.149879 85.638893,110.131813 86.557419,114.537041 
	C84.145279,114.989532 82.134399,115.018738 80.123528,115.047935 
	C73.968849,113.333168 73.086395,107.683235 71.027359,102.531151 
	C74.697922,102.121597 78.392586,102.074387 82.543289,102.097549 
z"/>
<path fill="#AF17FC" opacity="1.000000" stroke="none" 
	d="
M174.572662,47.938736 
	C174.506027,51.348221 179.289841,62.042614 182.009583,63.319279 
	C182.646362,63.618191 183.607620,63.225899 184.753998,63.134617 
	C182.308853,64.184036 179.027847,66.716499 176.865967,65.977036 
	C173.531509,64.836502 168.624832,63.929832 168.920044,58.134434 
	C169.141678,53.783634 167.981125,49.085217 174.572662,47.938736 
z"/>
<path fill="#3C78FC" opacity="1.000000" stroke="none" 
	d="
M46.909523,31.886299 
	C50.707947,29.653017 54.506374,27.419739 58.777733,25.350914 
	C60.196140,28.385611 61.141609,31.255852 62.087082,34.126095 
	C59.650242,35.663963 57.213402,37.201828 54.096596,38.851288 
	C51.247589,36.604015 49.078556,34.245159 46.909523,31.886299 
z"/>
<path fill="#8738FD" opacity="1.000000" stroke="none" 
	d="
M118.971863,11.623610 
	C119.271736,13.422050 119.171066,14.980338 119.637108,16.345097 
	C120.544441,19.002077 121.769371,21.550596 122.939949,24.495682 
	C119.231339,22.616669 115.445534,20.386015 111.333443,17.996279 
	C109.692352,13.776066 108.377541,9.714936 107.050713,5.273567 
	C110.968269,7.027552 114.897842,9.161777 118.971863,11.623610 
z"/>
<path fill="#8738FD" opacity="1.000000" stroke="none" 
	d="
M187.829803,129.008347 
	C187.876587,133.035004 187.923386,137.061646 187.574692,141.459503 
	C186.060043,140.471481 184.996140,139.061600 183.807816,137.765823 
	C182.300842,136.122574 180.692810,134.572006 179.080109,132.522278 
	C179.067200,128.036758 179.102524,124.010429 179.462097,120.071968 
	C180.988480,121.464020 182.198425,122.761124 183.390778,124.074188 
	C184.878021,125.712029 186.350784,127.363029 187.829803,129.008347 
z"/>
<path fill="#479BE8" opacity="1.000000" stroke="none" 
	d="
M105.455429,199.065552 
	C103.736855,196.630325 102.375420,194.137405 100.986893,191.272705 
	C104.407204,188.593185 107.854614,186.285461 111.512863,184.372147 
	C110.427223,188.552399 111.729668,191.261566 115.169876,193.085114 
	C112.050781,195.059357 108.931679,197.033615 105.455429,199.065552 
z"/>
<path fill="#AD20FC" opacity="1.000000" stroke="none" 
	d="
M153.001450,31.147480 
	C158.412262,34.197712 163.823090,37.247940 169.233902,40.298172 
	C169.233093,40.727291 169.232269,41.156410 169.231461,41.585526 
	C165.527603,42.396191 163.970947,48.383636 158.118408,44.834316 
	C157.448700,44.356911 157.207260,44.216888 156.935532,44.129105 
	C156.336548,43.963181 155.737579,43.797260 155.325775,43.227814 
	C155.595306,41.390461 156.029846,39.864658 155.684555,38.542500 
	C155.024811,36.016220 153.920975,33.605919 153.001450,31.147480 
z"/>
<path fill="#7F40FD" opacity="1.000000" stroke="none" 
	d="
M179.128357,132.981461 
	C180.692810,134.572006 182.300842,136.122574 183.807816,137.765823 
	C184.996140,139.061600 186.060043,140.471481 187.503174,141.917175 
	C187.533768,145.320724 187.240387,148.637817 186.169754,151.972351 
	C183.205673,149.959030 181.018860,147.928268 178.872452,145.444046 
	C178.984695,140.987549 179.056534,136.984497 179.128357,132.981461 
z"/>
<path fill="#A221FC" opacity="1.000000" stroke="none" 
	d="
M152.677414,30.999931 
	C153.920975,33.605919 155.024811,36.016220 155.684555,38.542500 
	C156.029846,39.864658 155.595306,41.390461 155.197723,42.937439 
	C152.010513,41.621765 149.138550,40.192947 146.243515,38.117233 
	C145.827469,35.500450 145.523468,33.507370 145.017792,31.566862 
	C144.452103,29.396137 143.703598,27.273056 143.034653,25.129242 
	C146.140900,27.036955 149.247131,28.944668 152.677414,30.999931 
z"/>
<path fill="#50C4CC" opacity="1.000000" stroke="none" 
	d="
M36.901550,153.558167 
	C37.850689,155.964905 38.763809,158.021515 39.396408,160.161087 
	C39.927216,161.956375 40.130894,163.848358 40.308441,166.088104 
	C37.179256,164.909393 34.221039,163.340149 31.100191,161.459427 
	C29.653414,156.972580 28.369263,152.797180 27.083897,148.237915 
	C30.303120,149.650696 33.523556,151.447342 36.901550,153.558167 
z"/>
<path fill="#3C74FE" opacity="1.000000" stroke="none" 
	d="
M137.948502,168.855164 
	C140.398163,167.317978 142.847809,165.780777 145.723038,164.529022 
	C147.455673,167.594284 148.762726,170.374130 150.069778,173.153961 
	C147.996201,174.433884 145.922623,175.713806 143.170761,177.037720 
	C137.016342,177.401993 138.198517,172.107224 136.138229,169.546860 
	C136.138229,169.546860 136.305069,169.210388 136.728348,169.255142 
	C137.480377,169.264603 137.746002,169.116364 137.948502,168.855164 
z"/>
<path fill="#4280F9" opacity="1.000000" stroke="none" 
	d="
M135.879669,169.742981 
	C138.198517,172.107224 137.016342,177.401993 142.819946,177.062881 
	C139.355896,179.367157 135.564362,181.690277 131.337860,183.709564 
	C129.611481,180.654312 128.320038,177.902863 127.028610,175.151428 
	C129.892776,173.413986 132.756943,171.676544 135.879669,169.742981 
z"/>
<path fill="#8E2FFD" opacity="1.000000" stroke="none" 
	d="
M187.901489,128.551483 
	C186.350784,127.363029 184.878021,125.712029 183.390778,124.074188 
	C182.198425,122.761124 180.988480,121.464020 179.414627,119.614777 
	C179.076828,115.374809 179.110733,111.679893 179.472672,108.068573 
	C182.476593,111.100983 185.152496,114.049805 187.828384,116.998634 
	C187.876648,120.697296 187.924896,124.395958 187.901489,128.551483 
z"/>
<path fill="#9B26FC" opacity="1.000000" stroke="none" 
	d="
M187.899231,116.542549 
	C185.152496,114.049805 182.476593,111.100983 179.423019,107.611649 
	C179.077301,103.377876 179.109268,99.684624 179.467453,96.077179 
	C180.916046,97.514236 181.988297,98.911407 183.173416,100.205193 
	C184.676834,101.846458 186.271866,103.403793 187.827393,104.997322 
	C187.874954,108.693703 187.922516,112.390083 187.899231,116.542549 
z"/>
<path fill="#3F90EB" opacity="1.000000" stroke="none" 
	d="
M115.534653,193.068634 
	C111.729668,191.261566 110.427223,188.552399 111.874001,184.440674 
	C114.119644,182.819809 116.215012,181.524841 118.679703,180.555801 
	C120.015945,183.977875 121.154724,186.904800 125.120636,187.047989 
	C122.046906,189.049393 118.973167,191.050781 115.534653,193.068634 
z"/>
<path fill="#4087F3" opacity="1.000000" stroke="none" 
	d="
M46.550549,31.921223 
	C49.078556,34.245159 51.247589,36.604015 53.788521,39.005463 
	C50.722061,41.048042 47.283710,43.048038 43.391098,44.738445 
	C41.297062,42.005795 39.657295,39.582726 38.017525,37.159660 
	C40.742207,35.425156 43.466888,33.690651 46.550549,31.921223 
z"/>
<path fill="#9B26FC" opacity="1.000000" stroke="none" 
	d="
M142.704926,24.993296 
	C143.703598,27.273056 144.452103,29.396137 145.017792,31.566862 
	C145.523468,33.507370 145.827469,35.500450 146.069077,37.794083 
	C143.371048,36.659046 140.824371,35.200264 138.108078,33.440647 
	C136.870941,29.237532 135.803436,25.335245 134.929810,21.184139 
	C137.540848,22.242664 139.958023,23.550005 142.704926,24.993296 
z"/>
<path fill="#A221FC" opacity="1.000000" stroke="none" 
	d="
M187.899078,104.544189 
	C186.271866,103.403793 184.676834,101.846458 183.173416,100.205193 
	C181.988297,98.911407 180.916046,97.514236 179.416870,95.622040 
	C179.076523,91.717339 179.112991,88.353584 179.474670,85.077255 
	C180.920593,86.518044 181.989853,87.918472 183.174866,89.212959 
	C184.677765,90.854691 186.274643,92.410393 187.830994,94.003204 
	C187.877579,97.365822 187.924164,100.728432 187.899078,104.544189 
z"/>
<path fill="#5F55FE" opacity="1.000000" stroke="none" 
	d="
M112.665405,58.074432 
	C114.316978,61.239582 115.737839,64.301643 116.921577,67.452789 
	C117.752663,69.665161 118.260666,71.998901 118.870117,74.679855 
	C117.139397,74.135010 115.451500,73.188751 113.342239,71.814796 
	C112.608948,71.211998 112.296997,71.036888 111.915459,70.522049 
	C109.895569,66.172272 107.945274,62.162228 106.408661,58.088577 
	C108.213821,57.960178 109.605324,57.895390 110.996819,57.830597 
	C111.442345,57.890205 111.887871,57.949806 112.665405,58.074432 
z"/>
<path fill="#4D6CFF" opacity="1.000000" stroke="none" 
	d="
M150.429108,173.084030 
	C148.762726,170.374130 147.455673,167.594284 146.061401,164.481720 
	C148.394257,162.760727 150.814346,161.372482 153.665924,160.288818 
	C155.479279,164.301880 156.878265,167.985367 162.106094,166.083969 
	C158.333542,168.394012 154.560989,170.704056 150.429108,173.084030 
z"/>
<path fill="#5F55FE" opacity="1.000000" stroke="none" 
	d="
M124.929520,84.442139 
	C128.414047,89.166359 131.946838,94.293526 135.682205,99.684326 
	C135.157684,101.232063 134.430588,102.516174 133.148743,103.696899 
	C129.780243,99.404022 126.966507,95.214523 124.152771,91.025024 
	C124.427773,88.965042 124.702774,86.905067 124.929520,84.442139 
z"/>
<path fill="#4087F3" opacity="1.000000" stroke="none" 
	d="
M125.478409,187.025574 
	C121.154724,186.904800 120.015945,183.977875 119.023216,180.525879 
	C121.443481,178.516434 123.889565,176.862839 126.682129,175.180328 
	C128.320038,177.902863 129.611481,180.654312 130.974014,183.761749 
	C129.308807,185.079544 127.572502,186.041351 125.478409,187.025574 
z"/>
<path fill="#5062FE" opacity="1.000000" stroke="none" 
	d="
M116.999168,100.169113 
	C118.449554,98.831482 119.899933,97.493851 121.725746,96.384262 
	C124.088768,100.788506 126.076363,104.964714 128.063965,109.140915 
	C126.591354,110.369095 125.118744,111.597290 123.237213,112.502396 
	C120.885254,108.175911 118.942207,104.172508 116.999168,100.169113 
z"/>
<path fill="#3F90EB" opacity="1.000000" stroke="none" 
	d="
M37.677773,37.183250 
	C39.657295,39.582726 41.297062,42.005795 43.022858,44.775726 
	C41.676441,46.080738 40.243996,47.038887 38.471016,48.023643 
	C32.429466,49.435928 32.641907,45.130180 31.969030,41.268379 
	C33.749344,39.651447 35.543686,38.429142 37.677773,37.183250 
z"/>
<path fill="#A517FC" opacity="1.000000" stroke="none" 
	d="
M187.903320,93.553291 
	C186.274643,92.410393 184.677765,90.854691 183.174866,89.212959 
	C181.989853,87.918472 180.920593,86.518044 179.424728,84.629318 
	C178.975754,81.395767 178.901962,78.697578 178.828186,75.999397 
	C179.321640,75.663475 179.815079,75.327553 180.782593,75.257812 
	C183.448273,78.347885 185.639862,81.171768 187.831467,83.995651 
	C187.879532,87.031563 187.927597,90.067467 187.903320,93.553291 
z"/>
<path fill="#93CCEB" opacity="1.000000" stroke="none" 
	d="
M23.079214,56.114773 
	C23.079214,56.114773 23.543310,56.118427 23.774788,56.125526 
	C24.010197,85.768364 24.014126,115.404099 24.083811,145.501770 
	C23.747730,142.925476 23.345892,139.887253 22.944492,135.938721 
	C22.915218,128.009964 22.885509,120.991508 22.895615,113.509140 
	C22.916271,107.360001 22.897108,101.674774 22.917519,95.525818 
	C22.935583,90.369118 22.914080,85.676132 22.928568,80.522278 
	C22.932110,76.028580 22.899658,71.995758 22.905277,67.508026 
	C22.988638,63.407001 23.033926,59.760887 23.079214,56.114773 
z"/>
<path fill="#5761FE" opacity="1.000000" stroke="none" 
	d="
M128.414520,109.103569 
	C126.076363,104.964714 124.088768,100.788506 122.028931,96.253967 
	C122.635521,94.499123 123.314354,93.102608 124.072975,91.365555 
	C126.966507,95.214523 129.780243,99.404022 132.845306,103.823303 
	C131.652786,105.724136 130.208939,107.395180 128.414520,109.103569 
z"/>
<path fill="#3C6EFF" opacity="1.000000" stroke="none" 
	d="
M109.999290,114.813683 
	C108.348213,110.838684 106.697136,106.863678 105.020737,102.525146 
	C106.712868,102.115150 108.430321,102.068695 110.647446,102.434174 
	C112.757835,106.854828 114.368553,110.863548 115.979279,114.872284 
	C114.587227,115.241890 113.195175,115.611496 111.332779,115.671257 
	C110.574730,115.178841 110.287010,114.996262 109.999290,114.813683 
z"/>
<path fill="#4567FF" opacity="1.000000" stroke="none" 
	d="
M116.355957,114.920464 
	C114.368553,110.863548 112.757835,106.854828 111.071632,102.505241 
	C111.784157,101.838036 112.572166,101.511688 113.799469,101.253479 
	C114.238762,101.321625 114.644485,101.360420 114.644485,101.360420 
	C114.644485,101.360420 114.995171,101.132423 114.995171,101.132423 
	C115.468475,100.803574 115.941788,100.474716 116.707130,100.157486 
	C118.942207,104.172508 120.885254,108.175911 122.906845,112.511963 
	C120.901146,113.552628 118.816895,114.260635 116.355957,114.920464 
z"/>
<path fill="#6F48FD" opacity="1.000000" stroke="none" 
	d="
M96.586639,3.939126 
	C97.964600,6.391176 98.975319,8.884778 100.016258,11.751786 
	C97.925568,13.685426 95.804665,15.245660 93.335693,16.456093 
	C91.990501,13.125264 90.993370,10.144237 89.996239,7.163210 
	C92.070625,6.102367 94.145012,5.041523 96.586639,3.939126 
z"/>
<path fill="#5761FE" opacity="1.000000" stroke="none" 
	d="
M162.431870,166.045502 
	C156.878265,167.985367 155.479279,164.301880 154.026321,160.236237 
	C155.757584,158.649979 157.559937,157.420898 159.934525,156.400085 
	C162.010010,159.359238 163.513275,162.110123 165.016556,164.861008 
	C164.263580,165.243027 163.510620,165.625046 162.431870,166.045502 
z"/>
<path fill="#4771FF" opacity="1.000000" stroke="none" 
	d="
M62.443810,34.083652 
	C61.141609,31.255852 60.196140,28.385611 59.099243,25.198647 
	C60.389538,23.993275 61.831253,23.104626 63.912750,22.157726 
	C66.367928,24.675261 68.183334,27.251040 69.998734,29.826820 
	C67.599335,31.231617 65.199936,32.636414 62.443810,34.083652 
z"/>
<path fill="#664EFE" opacity="1.000000" stroke="none" 
	d="
M176.998001,157.860428 
	C174.898422,159.172882 172.798859,160.485336 170.415756,161.495178 
	C169.406799,158.092316 168.681381,154.992096 167.955963,151.891861 
	C169.743118,150.651917 171.530289,149.411957 173.660858,148.401398 
	C175.002167,151.707336 176.000076,154.783890 176.998001,157.860428 
z"/>
<path fill="#6F48FD" opacity="1.000000" stroke="none" 
	d="
M177.346359,157.828735 
	C176.000076,154.783890 175.002167,151.707336 173.969788,148.253601 
	C175.000320,147.246063 176.065308,146.615707 177.715622,145.939240 
	C178.477982,145.894577 178.655014,145.896042 178.832047,145.897507 
	C181.018860,147.928268 183.205673,149.959030 185.750992,152.027542 
	C183.304565,153.975861 180.499634,155.886444 177.346359,157.828735 
z"/>
<path fill="#5F55FE" opacity="1.000000" stroke="none" 
	d="
M167.599762,151.944550 
	C168.681381,154.992096 169.406799,158.092316 170.069748,161.521210 
	C168.565018,162.840363 167.122772,163.830887 165.348541,164.841202 
	C163.513275,162.110123 162.010010,159.359238 160.276779,156.377762 
	C162.445724,154.763855 164.844635,153.380554 167.599762,151.944550 
z"/>
<path fill="#5761FE" opacity="1.000000" stroke="none" 
	d="
M71.016235,18.169144 
	C73.106834,16.847692 75.197426,15.526240 77.639984,14.432932 
	C79.707382,17.122114 81.422821,19.583155 83.138268,22.044197 
	C80.657784,23.616598 78.177292,25.188999 75.324486,26.436523 
	C73.640190,23.464146 72.328209,20.816645 71.016235,18.169144 
z"/>
<path fill="#664EFE" opacity="1.000000" stroke="none" 
	d="
M89.653534,7.195121 
	C90.993370,10.144237 91.990501,13.125264 92.994781,16.481171 
	C90.901016,18.168367 88.800110,19.480684 86.447624,20.530762 
	C89.254257,15.795844 84.392426,14.080770 83.021263,11.150314 
	C85.117783,9.842554 87.214310,8.534793 89.653534,7.195121 
z"/>
<path fill="#CF99FE" opacity="1.000000" stroke="none" 
	d="
M178.872452,145.444046 
	C178.655014,145.896042 178.477982,145.894577 178.042175,145.957489 
	C177.855301,125.484909 177.924271,104.947983 178.002808,84.411079 
	C178.012939,81.762070 178.072632,79.113251 178.468781,76.231873 
	C178.901962,78.697578 178.975754,81.395767 179.099487,84.541885 
	C179.112991,88.353584 179.076523,91.717339 179.090637,95.536240 
	C179.109268,99.684624 179.077301,103.377876 179.094986,107.528053 
	C179.110733,111.679893 179.076828,115.374809 179.090378,119.526917 
	C179.102524,124.010429 179.067200,128.036758 179.080109,132.522278 
	C179.056534,136.984497 178.984695,140.987549 178.872452,145.444046 
z"/>
<path fill="#4D6CFF" opacity="1.000000" stroke="none" 
	d="
M70.668556,18.199619 
	C72.328209,20.816645 73.640190,23.464146 74.976471,26.467875 
	C73.557045,27.812477 72.113319,28.800852 70.334167,29.808023 
	C68.183334,27.251040 66.367928,24.675261 64.211121,22.011742 
	C66.020103,20.692701 68.170486,19.461397 70.668556,18.199619 
z"/>
<path fill="#5F55FE" opacity="1.000000" stroke="none" 
	d="
M82.706039,11.157188 
	C84.392426,14.080770 89.254257,15.795844 86.104477,20.562256 
	C85.249962,21.166092 84.487030,21.476192 83.431183,21.915245 
	C81.422821,19.583155 79.707382,17.122114 77.952606,14.285842 
	C77.913269,13.910609 77.951759,13.957394 78.217827,13.897550 
	C78.963379,13.518878 79.442871,13.200050 79.922356,12.881222 
	C80.745178,12.308835 81.568001,11.736448 82.706039,11.157188 
z"/>
<path fill="#AF17FC" opacity="1.000000" stroke="none" 
	d="
M187.902466,83.536713 
	C185.639862,81.171768 183.448273,78.347885 181.105164,75.208725 
	C183.006012,73.384193 185.058350,71.874947 187.973480,69.731224 
	C187.973480,75.220474 187.973480,79.149124 187.902466,83.536713 
z"/>
<path fill="#D7E0FF" opacity="1.000000" stroke="none" 
	d="
M111.985054,70.861786 
	C112.296997,71.036888 112.608948,71.211998 113.065964,71.614929 
	C97.583305,71.830215 81.955574,71.817665 66.248634,71.368492 
	C71.471535,70.943947 76.773651,70.956032 82.979935,70.965942 
	C86.254326,70.919617 88.624550,70.875473 91.428680,70.894867 
	C93.905083,70.917671 95.947571,70.876938 98.424362,70.899979 
	C100.902077,70.925293 102.945496,70.886833 105.423325,70.910629 
	C107.900177,70.935860 109.942619,70.898819 111.985054,70.861786 
z"/>
<path fill="#F7F8FF" opacity="1.000000" stroke="none" 
	d="
M110.772392,57.462730 
	C109.605324,57.895390 108.213821,57.960178 105.975174,58.022835 
	C103.083427,58.064594 101.038818,58.108490 98.560318,58.089134 
	C96.083076,58.071110 94.039734,58.116329 91.562508,58.097145 
	C89.085052,58.077240 87.041466,58.121742 84.557816,58.100208 
	C81.746300,58.075703 79.374855,58.117233 77.003418,58.158760 
	C73.689835,58.107124 70.376251,58.055485 66.615250,58.004768 
	C67.099472,57.670620 68.030457,57.046051 68.962852,57.043930 
	C82.824448,57.012466 96.686226,57.063404 110.772392,57.462730 
z"/>
<path fill="#93CCEB" opacity="1.000000" stroke="none" 
	d="
M67.079994,119.533287 
	C67.092018,128.307755 67.060265,136.615952 67.039154,145.382111 
	C66.700562,145.079224 66.048111,144.318817 66.047081,143.557526 
	C66.028564,129.866684 66.088776,116.175751 66.528107,102.322334 
	C66.961472,107.795570 66.998840,113.431297 67.079994,119.533287 
z"/>
<path fill="#BED4FC" opacity="1.000000" stroke="none" 
	d="
M109.543106,114.880829 
	C110.287010,114.996262 110.574730,115.178841 110.963181,115.599808 
	C101.060516,115.892365 91.057129,115.946518 80.597565,116.006744 
	C80.141396,116.012817 80.092010,115.531128 80.107773,115.289536 
	C82.134399,115.018738 84.145279,114.989532 86.584930,114.900360 
	C90.374214,114.880844 93.734734,114.921288 97.550140,114.901382 
	C101.698997,114.876671 105.392960,114.912323 109.543106,114.880829 
z"/>
<path fill="#5062FE" opacity="1.000000" stroke="none" 
	d="
M114.750511,101.071671 
	C114.995171,101.132423 114.644485,101.360420 114.644485,101.360420 
	C114.644485,101.360420 114.238762,101.321625 114.128738,101.231262 
	C114.181091,101.097580 114.343475,101.054253 114.750511,101.071671 
z"/>
<path fill="#4280F9" opacity="1.000000" stroke="none" 
	d="
M137.726929,168.895508 
	C137.746002,169.116364 137.480377,169.264603 136.913727,169.285065 
	C136.900269,169.029266 137.176788,168.917801 137.726929,168.895508 
z"/>
<path fill="#50C4CC" opacity="1.000000" stroke="none" 
	d="
M39.059708,154.674957 
	C38.850960,154.822159 38.579765,154.662460 38.169006,154.289612 
	C38.326889,154.216400 38.649494,154.313599 39.059708,154.674957 
z"/>
<path fill="#A221FC" opacity="1.000000" stroke="none" 
	d="
M157.016296,44.358826 
	C157.207260,44.216888 157.448700,44.356911 157.804749,44.702522 
	C157.949661,44.855881 157.464844,44.908516 157.464844,44.908516 
	C157.464844,44.908516 157.097046,44.588551 157.016296,44.358826 
z"/>
<path fill="#4ABDCE" opacity="1.000000" stroke="none" 
	d="
M22.855797,113.973045 
	C22.885509,120.991508 22.915218,128.009964 22.908171,135.490631 
	C20.188078,133.023560 17.504745,130.094315 14.494713,127.083946 
	C14.120447,119.978363 14.072880,112.953888 14.420467,105.550888 
	C15.933565,106.526680 16.995592,107.932503 18.183531,109.222359 
	C19.687403,110.855247 21.293682,112.393806 22.855797,113.973045 
z"/>
<path fill="#48B4D4" opacity="1.000000" stroke="none" 
	d="
M22.895615,113.509140 
	C21.293682,112.393806 19.687403,110.855247 18.183531,109.222359 
	C16.995592,107.932503 15.933565,106.526680 14.491174,105.087158 
	C14.119690,99.309235 14.072654,93.616508 14.422953,87.547256 
	C16.005779,88.694931 17.100454,90.302460 18.401476,91.720688 
	C19.792196,93.236687 21.377550,94.574150 22.877945,95.989540 
	C22.897108,101.674774 22.916271,107.360001 22.895615,113.509140 
z"/>
<path fill="#4AADDB" opacity="1.000000" stroke="none" 
	d="
M22.917517,95.525818 
	C21.377550,94.574150 19.792196,93.236687 18.401476,91.720688 
	C17.100454,90.302460 16.005779,88.694931 14.495380,87.084106 
	C14.123885,82.305420 14.077298,77.613342 14.426545,72.546158 
	C15.941414,73.530945 17.001389,74.945412 18.194359,76.237038 
	C19.703842,77.871346 21.321547,79.405693 22.892576,80.983154 
	C22.914080,85.676132 22.935583,90.369118 22.917517,95.525818 
z"/>
<path fill="#49A5E1" opacity="1.000000" stroke="none" 
	d="
M22.928570,80.522278 
	C21.321547,79.405693 19.703842,77.871346 18.194359,76.237038 
	C17.001389,74.945412 15.941414,73.530945 14.498469,72.084808 
	C14.126522,67.969345 14.078485,63.940121 14.423044,59.537548 
	C17.499496,62.097111 20.183352,65.030022 22.867207,67.962929 
	C22.899658,71.995758 22.932110,76.028580 22.928570,80.522278 
z"/>
<path fill="#4299E6" opacity="1.000000" stroke="none" 
	d="
M22.905277,67.508026 
	C20.183352,65.030022 17.499496,62.097111 14.493086,59.078445 
	C13.890060,54.778736 12.804379,50.259453 18.573338,48.053452 
	C20.165510,50.427971 21.440161,52.968025 22.897013,55.811424 
	C23.033926,59.760887 22.988638,63.407001 22.905277,67.508026 
z"/>
<path fill="#50C4CC" opacity="1.000000" stroke="none" 
	d="
M40.674477,167.080322 
	C40.966267,167.044464 41.397839,167.220047 41.923634,167.633896 
	C41.616653,167.678696 41.215454,167.485214 40.674477,167.080322 
z"/>
<path fill="#5761FE" opacity="1.000000" stroke="none" 
	d="
M79.612717,12.918472 
	C79.442871,13.200050 78.963379,13.518878 78.191444,13.883491 
	C78.367020,13.604757 78.835052,13.280239 79.612717,12.918472 
z"/>
<path fill="#3C6EFF" opacity="1.000000" stroke="none" 
	d="
M77.027519,58.514431 
	C79.374855,58.117233 81.746300,58.075703 84.633339,58.441299 
	C87.097557,62.842720 89.046173,66.837029 90.994781,70.831329 
	C88.624550,70.875473 86.254326,70.919617 83.443634,70.902702 
	C81.019318,66.851128 79.035469,62.860611 77.027519,58.514431 
z"/>
<path fill="#5761FE" opacity="1.000000" stroke="none" 
	d="
M98.994217,58.152382 
	C101.038818,58.108490 103.083427,58.064594 105.561508,58.086441 
	C107.945274,62.162228 109.895569,66.172272 111.915459,70.522049 
	C109.942619,70.898819 107.900177,70.935860 105.352478,70.569809 
	C102.896217,66.161942 100.945221,62.157162 98.994217,58.152382 
z"/>
<path fill="#4567FF" opacity="1.000000" stroke="none" 
	d="
M91.428680,70.894867 
	C89.046173,66.837029 87.097557,62.842720 85.073410,58.507332 
	C87.041466,58.121742 89.085052,58.077240 91.637970,58.437073 
	C94.094894,62.839676 96.042480,66.837944 97.990067,70.836212 
	C95.947571,70.876938 93.905083,70.917671 91.428680,70.894867 
z"/>
<path fill="#5062FE" opacity="1.000000" stroke="none" 
	d="
M98.424362,70.899979 
	C96.042480,66.837944 94.094894,62.839676 92.071854,58.501480 
	C94.039734,58.116329 96.083076,58.071110 98.560318,58.089134 
	C100.945221,62.157162 102.896217,66.161942 104.918060,70.507553 
	C102.945496,70.886833 100.902077,70.925293 98.424362,70.899979 
z"/>
</svg>