<svg version="1.1" id="Layer_1" xmlns="http://www.w3.org/2000/svg" xmlns:xlink="http://www.w3.org/1999/xlink" x="0px" y="0px"
	 width="100%" viewBox="0 0 64 64" enable-background="new 0 0 64 64" xml:space="preserve">
<path fill="#CF1112" opacity="1.000000" stroke="none" 
	d="
M1.000000,44.000000 
	C1.000000,36.979053 1.000000,29.958105 1.333392,22.677795 
	C6.375492,13.591886 12.409409,6.107745 22.027657,2.215118 
	C22.160589,2.161318 22.015388,1.420282 22.000000,1.000000 
	C29.020948,1.000000 36.041897,1.000000 43.285839,1.320358 
	C43.816135,2.021791 44.045273,2.592610 44.442200,2.756118 
	C53.714001,6.575531 60.321007,12.905387 63.441502,22.618683 
	C63.527119,22.885178 64.461441,22.879019 65.000000,23.000000 
	C65.000000,29.687645 65.000000,36.375290 64.666641,43.322128 
	C59.625404,52.408749 53.589928,59.891373 43.972424,63.784828 
	C43.839432,63.838669 43.984638,64.579697 44.000000,65.000000 
	C36.979053,65.000000 29.958105,65.000000 22.714130,64.679642 
	C13.634426,59.654354 6.114590,53.626766 2.218551,43.974548 
	C2.164590,43.840862 1.421470,43.985348 1.000000,44.000000 
M35.147392,53.010109 
	C36.084503,52.732830 37.025703,52.468578 37.958096,52.176250 
	C47.242401,49.265392 53.165184,41.505268 53.015099,32.455868 
	C52.873180,23.899075 46.007275,15.625080 36.984318,13.395534 
	C35.790073,13.100439 34.368767,13.724269 33.052616,13.922522 
	C34.026123,14.620907 34.918026,15.747278 35.985874,15.950892 
	C45.725136,17.807941 52.092007,27.411118 49.876183,37.119812 
	C47.827785,46.094921 37.863190,52.086948 28.724321,49.839100 
	C19.716896,47.623577 13.683646,37.560009 16.285822,28.593279 
	C17.103405,25.776011 17.802502,22.530401 22.406399,22.781580 
	C23.853621,22.860535 26.952646,19.495308 26.678688,18.312733 
	C26.209677,16.288183 23.931746,13.734929 21.951950,13.236422 
	C19.174911,12.537173 17.154768,14.623806 16.902771,17.894794 
	C16.769262,19.627764 16.551495,21.555399 15.701490,23.001051 
	C6.702661,38.305904 21.227587,54.406338 35.147392,53.010109 
M31.204794,25.632170 
	C27.434290,26.758318 24.787275,29.712700 25.418585,33.152561 
	C25.905516,35.805725 28.716173,38.968891 31.264488,39.999752 
	C33.173306,40.771915 36.962399,39.154591 38.693027,37.397964 
	C40.091587,35.978401 40.475048,32.535294 39.870647,30.396185 
	C38.863403,26.831306 35.872654,24.935232 31.204794,25.632170 
z"/>
<path fill="#000000" opacity="1.000000" stroke="none" 
	d="
M65.000000,22.531218 
	C64.461441,22.879019 63.527119,22.885178 63.441502,22.618683 
	C60.321007,12.905387 53.714001,6.575531 44.442200,2.756118 
	C44.045273,2.592610 43.816135,2.021791 43.754417,1.320358 
	C50.927929,1.000000 57.855862,1.000000 65.000000,1.000000 
	C65.000000,8.019339 65.000000,15.040887 65.000000,22.531218 
z"/>
<path fill="#000000" opacity="1.000000" stroke="none" 
	d="
M21.531088,1.000000 
	C22.015388,1.420282 22.160589,2.161318 22.027657,2.215118 
	C12.409409,6.107745 6.375492,13.591886 1.333392,22.209217 
	C1.000000,15.073850 1.000000,8.147699 1.000000,1.000000 
	C7.685770,1.000000 14.373973,1.000000 21.531088,1.000000 
z"/>
<path fill="#000000" opacity="1.000000" stroke="none" 
	d="
M1.000000,44.468910 
	C1.421470,43.985348 2.164590,43.840862 2.218551,43.974548 
	C6.114590,53.626766 13.634426,59.654354 22.245552,64.679642 
	C15.073850,65.000000 8.147699,65.000000 1.000000,65.000000 
	C1.000000,58.314232 1.000000,51.626026 1.000000,44.468910 
z"/>
<path fill="#000000" opacity="1.000000" stroke="none" 
	d="
M44.468914,65.000000 
	C43.984638,64.579697 43.839432,63.838669 43.972424,63.784828 
	C53.589928,59.891373 59.625404,52.408749 64.666641,43.790665 
	C65.000000,50.926151 65.000000,57.852299 65.000000,65.000000 
	C58.314232,65.000000 51.626026,65.000000 44.468914,65.000000 
z"/>
<path fill="#FDF7F7" opacity="1.000000" stroke="none" 
	d="
M34.717335,53.012375 
	C21.227587,54.406338 6.702661,38.305904 15.701490,23.001051 
	C16.551495,21.555399 16.769262,19.627764 16.902771,17.894794 
	C17.154768,14.623806 19.174911,12.537173 21.951950,13.236422 
	C23.931746,13.734929 26.209677,16.288183 26.678688,18.312733 
	C26.952646,19.495308 23.853621,22.860535 22.406399,22.781580 
	C17.802502,22.530401 17.103405,25.776011 16.285822,28.593279 
	C13.683646,37.560009 19.716896,47.623577 28.724321,49.839100 
	C37.863190,52.086948 47.827785,46.094921 49.876183,37.119812 
	C52.092007,27.411118 45.725136,17.807941 35.985874,15.950892 
	C34.918026,15.747278 34.026123,14.620907 33.052616,13.922522 
	C34.368767,13.724269 35.790073,13.100439 36.984318,13.395534 
	C46.007275,15.625080 52.873180,23.899075 53.015099,32.455868 
	C53.165184,41.505268 47.242401,49.265392 37.958096,52.176250 
	C37.025703,52.468578 36.084503,52.732830 34.717335,53.012375 
z"/>
<path fill="#FEF9F9" opacity="1.000000" stroke="none" 
	d="
M31.547138,25.458408 
	C35.872654,24.935232 38.863403,26.831306 39.870647,30.396185 
	C40.475048,32.535294 40.091587,35.978401 38.693027,37.397964 
	C36.962399,39.154591 33.173306,40.771915 31.264488,39.999752 
	C28.716173,38.968891 25.905516,35.805725 25.418585,33.152561 
	C24.787275,29.712700 27.434290,26.758318 31.547138,25.458408 
z"/>
</svg>