<svg version="1.1" id="Layer_1" xmlns="http://www.w3.org/2000/svg" xmlns:xlink="http://www.w3.org/1999/xlink" x="0px" y="0px"
	 width="100%" viewBox="0 0 64 64" enable-background="new 0 0 64 64" xml:space="preserve">
<path fill="#FEA203" opacity="1.000000" stroke="none" 
	d="
M0.999999,45.000000 
	C1.000000,37.312424 1.000000,29.624847 1.253070,21.805458 
	C1.969488,21.228756 2.635360,20.869701 2.865763,20.326080 
	C6.242208,12.359586 11.959155,6.724880 19.723890,3.024218 
	C20.332579,2.734117 20.583046,1.692397 21.000000,1.000000 
	C28.354250,1.000000 35.708500,1.000000 43.192394,1.270430 
	C43.523327,1.802012 43.670471,2.200877 43.933743,2.304399 
	C53.188923,5.943675 60.164497,11.833629 63.287392,21.632652 
	C63.375450,21.908970 64.407906,21.884315 65.000000,22.000000 
	C65.000000,29.354250 65.000000,36.708500 64.747849,44.194363 
	C64.032051,44.768845 63.364830,45.125519 63.135330,45.667530 
	C59.763641,53.630390 54.062107,59.272411 46.292011,62.961910 
	C45.677345,63.253777 45.422218,64.302834 45.000000,65.000000 
	C37.312424,65.000000 29.624847,65.000000 21.805382,64.746994 
	C21.228354,64.033112 20.868237,63.374081 20.325302,63.141129 
	C12.393653,59.738003 6.718058,54.069870 3.029081,46.298641 
	C2.737002,45.683346 1.694013,45.424503 0.999999,45.000000 
M53.035194,28.599094 
	C50.910973,21.006147 44.895969,15.881243 37.193726,15.912770 
	C30.287239,15.941040 23.383623,16.671001 16.478743,17.091402 
	C16.491037,17.245098 16.503332,17.398794 16.515627,17.552490 
	C19.442839,18.142147 22.370050,18.731804 25.318230,19.325684 
	C16.357420,29.120010 17.182314,38.381428 26.642189,48.103317 
	C22.305796,48.103317 19.118515,48.103317 15.931234,48.103317 
	C15.897613,48.541348 15.863991,48.979378 15.830369,49.417408 
	C17.325537,49.612499 18.817459,49.941692 20.316469,49.977951 
	C25.138569,50.094597 29.964046,50.064808 34.786842,50.160820 
	C47.528248,50.414459 54.956165,42.016766 53.035194,28.599094 
z"/>
<path fill="#000000" opacity="1.000000" stroke="none" 
	d="
M65.000000,21.531090 
	C64.407906,21.884315 63.375450,21.908970 63.287392,21.632652 
	C60.164497,11.833629 53.188923,5.943675 43.933743,2.304399 
	C43.670471,2.200877 43.523327,1.802012 43.661018,1.270430 
	C50.926151,1.000000 57.852299,1.000000 65.000000,1.000000 
	C65.000000,7.685770 65.000000,14.373973 65.000000,21.531090 
z"/>
<path fill="#000000" opacity="1.000000" stroke="none" 
	d="
M20.530956,1.000000 
	C20.583046,1.692397 20.332579,2.734117 19.723890,3.024218 
	C11.959155,6.724880 6.242208,12.359586 2.865763,20.326080 
	C2.635360,20.869701 1.969488,21.228756 1.253070,21.336823 
	C1.000000,14.407272 1.000000,7.814544 1.000000,1.000000 
	C7.352261,1.000000 13.707088,1.000000 20.530956,1.000000 
z"/>
<path fill="#000000" opacity="1.000000" stroke="none" 
	d="
M0.999999,45.469044 
	C1.694013,45.424503 2.737002,45.683346 3.029081,46.298641 
	C6.718058,54.069870 12.393653,59.738003 20.325302,63.141129 
	C20.868237,63.374081 21.228354,64.033112 21.336746,64.746994 
	C14.407272,65.000000 7.814544,65.000000 1.000000,65.000000 
	C1.000000,58.647739 1.000000,52.292915 0.999999,45.469044 
z"/>
<path fill="#000000" opacity="1.000000" stroke="none" 
	d="
M45.469044,65.000000 
	C45.422218,64.302834 45.677345,63.253777 46.292011,62.961910 
	C54.062107,59.272411 59.763641,53.630390 63.135330,45.667530 
	C63.364830,45.125519 64.032051,44.768845 64.747849,44.662987 
	C65.000000,51.592728 65.000000,58.185455 65.000000,65.000000 
	C58.647739,65.000000 52.292915,65.000000 45.469044,65.000000 
z"/>
<path fill="#FFFDFA" opacity="1.000000" stroke="none" 
	d="
M53.074680,28.998772 
	C54.956165,42.016766 47.528248,50.414459 34.786842,50.160820 
	C29.964046,50.064808 25.138569,50.094597 20.316469,49.977951 
	C18.817459,49.941692 17.325537,49.612499 15.830369,49.417408 
	C15.863991,48.979378 15.897613,48.541348 15.931234,48.103317 
	C19.118515,48.103317 22.305796,48.103317 26.642189,48.103317 
	C17.182314,38.381428 16.357420,29.120010 25.318230,19.325684 
	C22.370050,18.731804 19.442839,18.142147 16.515627,17.552490 
	C16.503332,17.398794 16.491037,17.245098 16.478743,17.091402 
	C23.383623,16.671001 30.287239,15.941040 37.193726,15.912770 
	C44.895969,15.881243 50.910973,21.006147 53.074680,28.998772 
M42.958164,33.389381 
	C42.081833,28.374542 39.084984,25.859814 34.950172,26.950325 
	C31.184982,27.943356 29.417189,30.533033 30.128754,34.450138 
	C30.740826,37.819542 34.982002,40.359318 38.273022,38.865955 
	C40.140404,38.018593 41.379631,35.786911 42.958164,33.389381 
z"/>
<path fill="#FEA40A" opacity="1.000000" stroke="none" 
	d="
M42.929962,33.784035 
	C41.379631,35.786911 40.140404,38.018593 38.273022,38.865955 
	C34.982002,40.359318 30.740826,37.819542 30.128754,34.450138 
	C29.417189,30.533033 31.184982,27.943356 34.950172,26.950325 
	C39.084984,25.859814 42.081833,28.374542 42.929962,33.784035 
z"/>
</svg>