<svg version="1.1" id="Layer_1" xmlns="http://www.w3.org/2000/svg" xmlns:xlink="http://www.w3.org/1999/xlink" x="0px" y="0px"
	 width="100%" viewBox="0 0 64 64" enable-background="new 0 0 64 64" xml:space="preserve">
<path fill="#FFFFFF" opacity="1.000000" stroke="none" 
	d="
M1.000000,28.000000 
	C1.000000,19.023645 1.000000,10.047290 1.000000,1.035467 
	C22.253595,1.035467 43.507259,1.035467 64.880463,1.035467 
	C64.880463,22.332895 64.880463,43.666344 64.880463,65.000000 
	C60.254131,65.000000 55.599728,65.000000 50.757385,64.719032 
	C47.713398,61.236328 44.857346,58.034595 41.994263,54.493820 
	C41.651836,53.121578 41.316448,52.088375 41.346634,51.010361 
	C44.259739,49.906513 46.868847,48.973228 49.341942,47.762184 
	C54.457394,45.257206 56.640636,40.541897 55.247398,35.986977 
	C55.346886,34.601223 55.150944,33.244705 55.047844,31.607952 
	C55.747192,30.851601 56.353699,30.375483 57.127842,30.149939 
	C58.265675,30.153847 59.235870,29.907185 60.206070,29.660519 
	C59.765629,28.758184 59.325188,27.855850 58.925014,26.745461 
	C58.965279,26.537403 58.907417,26.117533 59.014023,25.820387 
	C57.467628,23.001118 55.814625,20.478996 53.992466,17.640526 
	C48.369217,12.013981 40.949974,12.710227 34.313801,11.114437 
	C32.608475,10.704361 30.364229,11.352619 28.695410,12.177752 
	C21.368637,15.800413 13.410657,18.479549 7.649342,25.102192 
	C5.189238,26.012564 3.094619,27.006283 1.000000,28.000000 
z"/>
<path fill="#242827" opacity="1.000000" stroke="none" 
	d="
M1.000000,28.468658 
	C3.094619,27.006283 5.189238,26.012564 7.624406,25.476128 
	C2.940811,33.690636 5.269723,42.715008 12.900871,50.396652 
	C12.696828,52.858952 12.431024,54.925892 11.940582,57.333717 
	C7.482479,57.477612 3.889597,58.867630 1.000000,62.000000 
	C1.000000,50.979103 1.000000,39.958210 1.000000,28.468658 
z"/>
<path fill="#242827" opacity="1.000000" stroke="none" 
	d="
M42.001297,54.832859 
	C44.857346,58.034595 47.713398,61.236328 50.284721,64.719032 
	C44.311958,65.000000 38.623920,65.000000 32.360725,64.665497 
	C28.860346,62.818218 25.935123,61.305439 23.078291,59.467934 
	C23.817253,57.763615 24.487827,56.384014 25.498253,55.169231 
	C27.558256,55.500927 29.278410,55.667809 31.286385,55.905350 
	C32.394970,56.024212 33.215733,56.072418 34.368881,56.066589 
	C35.145248,55.952057 35.589233,55.891563 36.395714,55.898998 
	C37.491604,55.919334 38.224995,55.871746 39.291328,55.889301 
	C40.416615,55.580585 41.208954,55.206722 42.001297,54.832859 
z"/>
<path fill="#8FABAE" opacity="1.000000" stroke="none" 
	d="
M25.158401,55.004417 
	C24.487827,56.384014 23.817253,57.763615 22.824890,59.595776 
	C22.290049,60.354733 22.076996,60.661125 21.627277,61.041519 
	C21.093847,61.308933 20.919939,61.580910 20.580631,62.114838 
	C20.194916,63.198822 20.097458,64.099411 20.000000,65.000000 
	C18.611111,65.000000 17.222221,65.000000 15.514313,64.686981 
	C18.198942,62.712528 17.707935,60.834324 15.433227,58.996861 
	C14.447491,58.200600 13.260690,57.653248 12.165219,56.992832 
	C12.431024,54.925892 12.696828,52.858952 13.138433,50.084068 
	C15.187980,49.549664 17.142099,50.148647 18.919609,49.812824 
	C23.333525,48.978924 25.353640,50.536751 25.158401,55.004417 
z"/>
<path fill="#FB8E04" opacity="1.000000" stroke="none" 
	d="
M11.940580,57.333717 
	C13.260690,57.653248 14.447491,58.200600 15.433227,58.996861 
	C17.707935,60.834324 18.198942,62.712528 15.097646,64.686981 
	C10.833333,65.000000 6.663980,65.070396 2.503374,64.911598 
	C1.978695,64.891571 1.500001,63.666664 1.000001,62.500000 
	C3.889597,58.867630 7.482479,57.477612 11.940580,57.333717 
z"/>
<path fill="#FB8D07" opacity="1.000000" stroke="none" 
	d="
M21.863945,60.967518 
	C22.076996,60.661125 22.290049,60.354733 22.756500,59.920502 
	C25.935123,61.305439 28.860346,62.818218 31.892784,64.665497 
	C30.285643,65.000000 28.571283,65.000000 26.308714,64.731598 
	C25.185936,63.945156 24.611368,63.427120 23.976215,62.588730 
	C23.231733,61.834759 22.547838,61.401138 21.863945,60.967518 
z"/>
<path fill="#F98D05" opacity="1.000000" stroke="none" 
	d="
M24.036802,62.909081 
	C24.611368,63.427120 25.185936,63.945156 25.880251,64.731598 
	C24.933331,65.000000 23.866661,65.000000 22.399181,64.628510 
	C21.998852,63.514046 21.999332,62.771072 22.261833,62.123833 
	C23.028170,62.449406 23.532486,62.679241 24.036802,62.909081 
z"/>
<path fill="#FB8F07" opacity="1.000000" stroke="none" 
	d="
M21.999813,62.028099 
	C21.999332,62.771072 21.998852,63.514046 21.999186,64.628510 
	C21.555555,65.000000 21.111111,65.000000 20.333332,65.000000 
	C20.097458,64.099411 20.194916,63.198822 20.863081,62.143250 
	C21.622463,62.001545 21.811138,62.014824 21.999813,62.028099 
z"/>
<path fill="#FC8E03" opacity="1.000000" stroke="none" 
	d="
M25.498253,55.169231 
	C25.353640,50.536751 23.333525,48.978924 18.919609,49.812824 
	C17.142099,50.148647 15.187980,49.549664 13.076674,49.688709 
	C5.269723,42.715008 2.940811,33.690636 7.989890,25.559475 
	C13.410657,18.479549 21.368637,15.800413 28.695410,12.177752 
	C30.364229,11.352619 32.608475,10.704361 34.313801,11.114437 
	C40.949974,12.710227 48.369217,12.013981 53.819859,17.879347 
	C48.972042,17.982655 43.940201,18.189737 39.339684,16.880814 
	C35.297009,15.730606 27.901125,16.113312 24.883789,19.405598 
	C23.456608,20.962833 20.223421,21.725626 21.979576,24.994316 
	C22.001232,25.000557 21.988277,24.957626 21.692841,25.100060 
	C21.105381,26.145967 20.432020,27.121918 20.587563,27.940334 
	C21.249182,31.421597 21.990955,34.906891 23.028427,38.291092 
	C23.798185,40.802025 24.460501,43.856583 26.257030,45.423203 
	C28.999720,47.814892 32.680145,49.131226 36.080589,51.191284 
	C36.621380,52.149143 37.044006,52.819847 37.810909,54.036911 
	C38.350140,52.648483 38.682629,51.792374 39.342339,50.962124 
	C40.106728,51.010380 40.543896,51.032776 40.981060,51.055168 
	C41.316448,52.088375 41.651836,53.121578 41.994263,54.493820 
	C41.208954,55.206722 40.416615,55.580585 39.100021,55.673103 
	C37.728256,55.538193 36.880733,55.684635 36.033215,55.831074 
	C35.589233,55.891563 35.145248,55.952057 34.354599,55.691528 
	C33.470516,54.298176 32.933102,53.225838 32.395691,52.153500 
	C32.041340,52.275921 31.686991,52.398346 31.332640,52.520767 
	C31.221281,53.625408 31.109921,54.730049 30.998562,55.834690 
	C29.278410,55.667809 27.558256,55.500927 25.498253,55.169231 
z"/>
<path fill="#C9BB9B" opacity="1.000000" stroke="none" 
	d="
M35.962433,50.904129 
	C32.680145,49.131226 28.999720,47.814892 26.257030,45.423203 
	C24.460501,43.856583 23.798185,40.802025 23.028427,38.291092 
	C21.990955,34.906891 21.249182,31.421597 20.587563,27.940334 
	C20.432020,27.121918 21.105381,26.145967 21.689911,25.483105 
	C23.316132,34.669952 31.244692,37.653534 39.065689,32.647491 
	C40.592484,31.670227 40.843483,28.414072 41.227676,26.132372 
	C41.327423,25.539957 39.708401,24.658134 38.695660,23.530426 
	C33.374619,23.731834 28.236755,24.312057 22.814857,24.930611 
	C22.339857,24.975315 22.148890,24.981693 21.957922,24.988073 
	C20.223421,21.725626 23.456608,20.962833 24.883789,19.405598 
	C27.901125,16.113312 35.297009,15.730606 39.339684,16.880814 
	C43.940201,18.189737 48.972042,17.982655 53.989014,18.195694 
	C55.814625,20.478996 57.467628,23.001118 58.645256,25.767830 
	C53.791157,25.631491 49.432457,21.667679 45.016994,26.345642 
	C44.600796,33.834801 50.546730,34.098461 54.951969,36.016209 
	C56.640636,40.541897 54.457394,45.257206 49.341942,47.762184 
	C46.868847,48.973228 44.259739,49.906513 41.346634,51.010361 
	C40.543896,51.032776 40.106728,51.010380 39.178688,50.693760 
	C37.779354,50.567734 36.870895,50.735931 35.962433,50.904129 
M41.495068,44.807308 
	C41.700909,44.504761 41.906746,44.202209 42.737438,44.240978 
	C44.532310,43.957413 46.440964,43.950565 48.075996,43.278267 
	C48.946316,42.920403 49.942596,41.304932 49.791553,40.449696 
	C49.627666,39.521767 48.290894,38.291134 47.300640,38.113850 
	C44.233135,37.564674 41.087242,37.453373 37.501144,37.080235 
	C37.501144,37.080235 37.030136,37.170132 36.448620,37.188644 
	C35.960293,37.773792 35.471966,38.358936 34.528519,39.117676 
	C34.203953,39.314835 34.091038,39.596752 34.254234,40.617886 
	C35.799721,41.759373 37.345207,42.900856 39.182491,44.598721 
	C39.779369,44.730766 40.376244,44.862812 41.495068,44.807308 
z"/>
<path fill="#010101" opacity="1.000000" stroke="none" 
	d="
M45.027740,25.938984 
	C49.432457,21.667679 53.791157,25.631491 58.538647,26.064976 
	C58.907417,26.117533 58.965279,26.537403 58.558445,26.764191 
	C57.754475,27.960442 57.357338,28.929903 56.960205,29.899364 
	C56.353699,30.375483 55.747192,30.851601 54.679729,31.660580 
	C50.217541,32.964672 47.438866,32.101837 46.911629,27.405859 
	C46.849594,26.853361 45.682541,26.424929 45.027740,25.938984 
z"/>
<path fill="#FCFCFC" opacity="1.000000" stroke="none" 
	d="
M45.016994,26.345642 
	C45.682541,26.424929 46.849594,26.853361 46.911629,27.405859 
	C47.438866,32.101837 50.217541,32.964672 54.586891,31.940815 
	C55.150944,33.244705 55.346886,34.601223 55.247398,35.986977 
	C50.546730,34.098461 44.600796,33.834801 45.016994,26.345642 
z"/>
<path fill="#FCFCFC" opacity="1.000000" stroke="none" 
	d="
M57.127838,30.149937 
	C57.357338,28.929903 57.754475,27.960442 58.518181,26.972248 
	C59.325188,27.855850 59.765629,28.758184 60.206070,29.660519 
	C59.235870,29.907185 58.265675,30.153847 57.127838,30.149937 
z"/>
<path fill="#FB8E07" opacity="1.000000" stroke="none" 
	d="
M31.286385,55.905350 
	C31.109921,54.730049 31.221281,53.625408 31.332640,52.520767 
	C31.686991,52.398346 32.041340,52.275921 32.395691,52.153500 
	C32.933102,53.225838 33.470516,54.298176 34.022213,55.745571 
	C33.215733,56.072418 32.394970,56.024212 31.286385,55.905350 
z"/>
<path fill="#FB8E07" opacity="1.000000" stroke="none" 
	d="
M36.395714,55.898998 
	C36.880733,55.684635 37.728256,55.538193 38.767078,55.607956 
	C38.224995,55.871746 37.491604,55.919334 36.395714,55.898998 
z"/>
<path fill="#EB921B" opacity="1.000000" stroke="none" 
	d="
M22.261833,62.123833 
	C21.811138,62.014824 21.622463,62.001545 21.151337,61.959854 
	C20.919939,61.580910 21.093847,61.308933 21.627277,61.041519 
	C22.547838,61.401138 23.231733,61.834759 23.976215,62.588730 
	C23.532486,62.679241 23.028170,62.449406 22.261833,62.123833 
z"/>
<path fill="#FB8E07" opacity="1.000000" stroke="none" 
	d="
M36.080589,51.191284 
	C36.870895,50.735931 37.779354,50.567734 38.851467,50.667900 
	C38.682629,51.792374 38.350140,52.648483 37.810909,54.036911 
	C37.044006,52.819847 36.621380,52.149143 36.080589,51.191284 
z"/>
<path fill="#010101" opacity="1.000000" stroke="none" 
	d="
M23.098892,24.892282 
	C28.236755,24.312057 33.374619,23.731834 38.318573,23.572285 
	C37.712513,24.550306 36.863838,25.195900 36.955898,25.651320 
	C37.851181,30.080086 35.288589,32.480160 31.641607,32.804245 
	C28.173346,33.112453 24.969076,31.572620 24.910339,26.987127 
	C24.901299,26.281229 23.731739,25.590193 23.098892,24.892282 
z"/>
<path fill="#9A5502" opacity="1.000000" stroke="none" 
	d="
M38.890694,44.042339 
	C37.345207,42.900856 35.799721,41.759373 34.408768,40.168777 
	C34.786549,39.506214 34.926659,39.247684 34.983635,38.944080 
	C35.471966,38.358936 35.960293,37.773792 36.828262,37.318687 
	C37.207905,37.448730 37.647152,37.523380 37.647152,37.523380 
	C37.647152,37.523380 37.971775,37.172104 37.971775,37.172104 
	C41.087242,37.453373 44.233135,37.564674 47.300640,38.113850 
	C48.290894,38.291134 49.627666,39.521767 49.791553,40.449696 
	C49.942596,41.304932 48.946316,42.920403 48.075996,43.278267 
	C46.440964,43.950565 44.532310,43.957413 42.475426,43.760208 
	C42.270840,42.899303 42.328270,42.519169 42.385696,42.139030 
	C41.837811,42.758404 41.289925,43.377777 40.433708,43.998940 
	C39.713818,44.014599 39.302258,44.028469 38.890694,44.042339 
z"/>
<path fill="#FDFDFD" opacity="1.000000" stroke="none" 
	d="
M22.814857,24.930611 
	C23.731739,25.590193 24.901299,26.281229 24.910339,26.987127 
	C24.969076,31.572620 28.173346,33.112453 31.641607,32.804245 
	C35.288589,32.480160 37.851181,30.080086 36.955898,25.651320 
	C36.863838,25.195900 37.712513,24.550306 38.501755,23.951099 
	C39.708401,24.658134 41.327423,25.539957 41.227676,26.132372 
	C40.843483,28.414072 40.592484,31.670227 39.065689,32.647491 
	C31.244692,37.653534 23.316132,34.669952 21.985348,25.340672 
	C21.988277,24.957626 22.001232,25.000557 21.979576,24.994316 
	C22.148890,24.981693 22.339857,24.975315 22.814857,24.930611 
z"/>
<path fill="#FEFDFD" opacity="1.000000" stroke="none" 
	d="
M40.742039,43.997154 
	C41.289925,43.377777 41.837811,42.758404 42.385696,42.139030 
	C42.328270,42.519169 42.270840,42.899303 42.162994,43.589554 
	C41.906746,44.202209 41.700909,44.504761 41.230522,44.639141 
	C40.891327,44.313030 40.816681,44.155090 40.742039,43.997154 
z"/>
<path fill="#9A5504" opacity="1.000000" stroke="none" 
	d="
M40.433708,43.998940 
	C40.816681,44.155090 40.891327,44.313030 40.969547,44.732918 
	C40.376244,44.862812 39.779369,44.730766 39.036591,44.320530 
	C39.302258,44.028469 39.713818,44.014599 40.433708,43.998940 
z"/>
<path fill="#9A5504" opacity="1.000000" stroke="none" 
	d="
M34.756077,39.030876 
	C34.926659,39.247684 34.786549,39.506214 34.376541,39.841545 
	C34.091038,39.596752 34.203953,39.314835 34.756077,39.030876 
z"/>
<path fill="#9A5504" opacity="1.000000" stroke="none" 
	d="
M37.736458,37.126167 
	C37.971775,37.172104 37.647152,37.523380 37.647152,37.523380 
	C37.647152,37.523380 37.207905,37.448730 37.119019,37.309433 
	C37.030136,37.170132 37.501144,37.080235 37.736458,37.126167 
z"/>
</svg>