<svg version="1.1" id="Layer_1" xmlns="http://www.w3.org/2000/svg" xmlns:xlink="http://www.w3.org/1999/xlink" x="0px" y="0px"
	 width="100%" viewBox="0 0 64 64" enable-background="new 0 0 64 64" xml:space="preserve">
<path fill="#029494" opacity="1.000000" stroke="none" 
	d="
M1.000000,30.000000 
	C1.000000,28.285625 1.000000,26.571249 1.308925,24.678108 
	C4.910674,19.671988 8.059006,14.735189 11.582898,10.082856 
	C12.663555,8.656144 14.735898,7.221564 16.418026,7.142022 
	C23.367617,6.813397 30.341843,6.978584 37.306793,7.010833 
	C42.607265,7.035376 49.016159,5.316579 52.906708,7.691312 
	C57.088985,10.244108 58.831951,16.717947 61.812668,21.369781 
	C62.520172,22.473951 63.919109,23.135080 65.000000,24.000000 
	C65.000000,25.714375 65.000000,27.428751 64.706436,29.308218 
	C60.530468,33.225647 56.614922,36.944412 52.773632,40.738369 
	C47.326675,46.118214 41.863281,51.484844 36.549900,56.995003 
	C34.030956,59.607239 32.011211,59.603088 29.461281,57.006615 
	C20.936657,48.326366 12.293344,39.762199 3.638065,31.211700 
	C2.991099,30.572565 1.889991,30.393135 1.000000,30.000000 
M45.878254,25.324200 
	C43.004482,24.737514 40.130711,24.150827 36.515079,23.412691 
	C38.543694,17.667505 43.872517,21.792383 46.766533,19.507010 
	C46.766533,18.224768 46.766533,16.819408 46.766533,15.261013 
	C37.465305,15.261013 28.392540,15.261013 19.133558,15.261013 
	C19.084124,16.314743 19.004795,17.119432 19.022100,17.922037 
	C19.035532,18.544947 19.169609,19.165255 19.241589,19.721279 
	C28.642916,20.886116 28.642916,20.886116 28.798145,23.511963 
	C19.781069,25.005379 18.946747,25.370464 17.022186,29.046333 
	C18.256763,28.684578 19.114489,28.241468 19.986380,28.211586 
	C23.419622,28.093916 27.238180,24.419260 30.249397,29.696089 
	C30.754230,30.580759 36.277100,30.149487 36.525833,29.375931 
	C37.908691,25.075319 40.779072,27.294954 42.992550,27.464359 
	C44.974960,27.616077 46.907307,28.421951 48.861740,28.939215 
	C49.034309,28.573084 49.206875,28.206955 49.379444,27.840826 
	C48.420971,27.174931 47.462498,26.509035 45.878254,25.324200 
M25.487440,35.016434 
	C32.376194,35.251350 27.280128,41.310497 29.942036,43.816422 
	C32.082165,43.816422 34.444572,43.816422 36.863914,43.816422 
	C36.995132,40.867371 37.110176,38.281811 37.219490,35.825008 
	C48.385635,33.218586 48.385635,33.218586 48.606400,30.396002 
	C38.178993,33.990852 27.697092,33.869553 16.250006,30.049789 
	C18.299881,34.485836 21.492199,34.690617 25.487440,35.016434 
z"/>
<path fill="#000000" opacity="1.000000" stroke="none" 
	d="
M1.000000,30.468658 
	C1.889991,30.393135 2.991099,30.572565 3.638065,31.211700 
	C12.293344,39.762199 20.936657,48.326366 29.461281,57.006615 
	C32.011211,59.603088 34.030956,59.607239 36.549900,56.995003 
	C41.863281,51.484844 47.326675,46.118214 52.773632,40.738369 
	C56.614922,36.944412 60.530468,33.225647 64.706436,29.736656 
	C65.000000,41.628452 65.000000,53.256901 65.000000,64.942673 
	C43.774883,64.942673 22.549585,64.942673 1.000000,64.942673 
	C1.000000,53.647831 1.000000,42.292572 1.000000,30.468658 
z"/>
<path fill="#000000" opacity="1.000000" stroke="none" 
	d="
M65.000000,23.531263 
	C63.919109,23.135080 62.520172,22.473951 61.812668,21.369781 
	C58.831951,16.717947 57.088985,10.244108 52.906708,7.691312 
	C49.016159,5.316579 42.607265,7.035376 37.306793,7.010833 
	C30.341843,6.978584 23.367617,6.813397 16.418026,7.142022 
	C14.735898,7.221564 12.663555,8.656144 11.582898,10.082856 
	C8.059006,14.735189 4.910674,19.671988 1.308925,24.249672 
	C1.000000,16.363964 1.000000,8.727927 1.000000,1.045945 
	C22.217392,1.045945 43.434898,1.045945 65.000000,1.045945 
	C65.000000,8.350525 65.000000,15.706526 65.000000,23.531263 
z"/>
<path fill="#FDFEFE" opacity="1.000000" stroke="none" 
	d="
M46.191139,25.583672 
	C47.462498,26.509035 48.420971,27.174931 49.379444,27.840826 
	C49.206875,28.206955 49.034309,28.573084 48.861740,28.939215 
	C46.907307,28.421951 44.974960,27.616077 42.992550,27.464359 
	C40.779072,27.294954 37.908691,25.075319 36.525833,29.375931 
	C36.277100,30.149487 30.754230,30.580759 30.249397,29.696089 
	C27.238180,24.419260 23.419622,28.093916 19.986380,28.211586 
	C19.114489,28.241468 18.256763,28.684578 17.022186,29.046333 
	C18.946747,25.370464 19.781069,25.005379 28.798145,23.511963 
	C28.642916,20.886116 28.642916,20.886116 19.241589,19.721279 
	C19.169609,19.165255 19.035532,18.544947 19.022100,17.922037 
	C19.004795,17.119432 19.084124,16.314743 19.133558,15.261013 
	C28.392540,15.261013 37.465305,15.261013 46.766533,15.261013 
	C46.766533,16.819408 46.766533,18.224768 46.766533,19.507010 
	C43.872517,21.792383 38.543694,17.667505 36.515079,23.412691 
	C40.130711,24.150827 43.004482,24.737514 46.191139,25.583672 
z"/>
<path fill="#F6FBFB" opacity="1.000000" stroke="none" 
	d="
M25.051872,35.014828 
	C21.492199,34.690617 18.299881,34.485836 16.250006,30.049789 
	C27.697092,33.869553 38.178993,33.990852 48.606400,30.396002 
	C48.385635,33.218586 48.385635,33.218586 37.219490,35.825008 
	C37.110176,38.281811 36.995132,40.867371 36.863914,43.816422 
	C34.444572,43.816422 32.082165,43.816422 29.942036,43.816422 
	C27.280128,41.310497 32.376194,35.251350 25.051872,35.014828 
z"/>
</svg>