<svg version="1.1" id="Layer_1" xmlns="http://www.w3.org/2000/svg" xmlns:xlink="http://www.w3.org/1999/xlink" x="0px" y="0px"
	 width="100%" viewBox="0 0 64 64" enable-background="new 0 0 64 64" xml:space="preserve">
<path fill="#383045" opacity="1.000000" stroke="none" 
	d="
M65.000000,20.000000 
	C65.000000,28.354233 65.000000,36.708466 64.716743,45.466988 
	C63.797516,46.237549 62.734383,46.482159 62.590168,46.988495 
	C60.676735,53.706581 56.383228,58.175304 50.136684,61.128597 
	C48.511047,61.897179 47.365860,63.681957 46.000000,65.000000 
	C37.645767,65.000000 29.291536,65.000000 20.294415,64.701035 
	C18.849352,63.834045 18.007687,63.313877 17.251604,62.689987 
	C13.222280,59.365150 8.953309,56.269508 5.321148,52.553211 
	C3.759377,50.955261 4.189641,47.565845 1.000000,47.000000 
	C1.000000,38.312439 1.000000,29.624874 1.246654,20.240479 
	C6.124094,11.827387 12.869343,6.221373 20.000000,1.000000 
	C28.354233,1.000000 36.708466,1.000000 45.763908,1.250216 
	C48.619820,2.956075 51.123943,4.083609 52.859932,5.932410 
	C57.096008,10.443778 60.976402,15.289121 65.000000,20.000000 
M21.972126,60.163067 
	C22.429531,60.322197 22.886938,60.481327 24.081976,60.988396 
	C29.641138,61.108505 35.466496,62.356007 40.705238,61.119064 
	C52.383633,58.361645 59.703060,50.227703 61.805470,38.482300 
	C64.108925,25.613731 59.769909,15.104427 47.607674,7.998225 
	C46.408966,7.364776 45.210255,6.731328 43.249306,5.972673 
	C36.176373,2.175066 29.053486,3.094789 21.267267,5.941098 
	C19.976419,6.702444 18.685570,7.463789 16.753372,8.484479 
	C13.904069,11.481366 11.054765,14.478252 7.792782,17.973904 
	C6.905365,19.976824 6.017947,21.979744 4.781647,24.684847 
	C2.223279,34.722706 3.675138,43.891247 10.955612,52.401726 
	C13.303058,54.272057 15.650503,56.142391 18.241596,58.313274 
	C18.241596,58.313274 18.611408,58.427010 19.106234,58.882095 
	C19.927090,59.217171 20.747946,59.552246 21.972126,60.163067 
z"/>
<path fill="#4C6870" opacity="1.000000" stroke="none" 
	d="
M46.469376,65.000000 
	C47.365860,63.681957 48.511047,61.897179 50.136684,61.128597 
	C56.383228,58.175304 60.676735,53.706581 62.590168,46.988495 
	C62.734383,46.482159 63.797516,46.237549 64.716743,45.935638 
	C65.000000,52.259235 65.000000,58.518467 65.000000,65.000000 
	C58.981396,65.000000 52.960072,65.000000 46.469376,65.000000 
z"/>
<path fill="#4B676F" opacity="1.000000" stroke="none" 
	d="
M19.530624,1.000000 
	C12.869343,6.221373 6.124094,11.827387 1.246654,19.771824 
	C1.000000,13.740766 1.000000,7.481532 1.000000,1.000000 
	C7.018606,1.000000 13.039927,1.000000 19.530624,1.000000 
z"/>
<path fill="#4C6870" opacity="1.000000" stroke="none" 
	d="
M65.000000,19.530624 
	C60.976402,15.289121 57.096008,10.443778 52.859932,5.932410 
	C51.123943,4.083609 48.619820,2.956075 46.232559,1.250216 
	C52.259235,1.000000 58.518467,1.000000 65.000000,1.000000 
	C65.000000,7.018606 65.000000,13.039927 65.000000,19.530624 
z"/>
<path fill="#4B676F" opacity="1.000000" stroke="none" 
	d="
M1.000000,47.469711 
	C4.189641,47.565845 3.759377,50.955261 5.321148,52.553211 
	C8.953309,56.269508 13.222280,59.365150 17.251604,62.689987 
	C18.007687,63.313877 18.849352,63.834045 19.825762,64.701035 
	C13.742913,65.000000 7.485826,65.000000 1.000000,65.000000 
	C1.000000,59.315166 1.000000,53.627293 1.000000,47.469711 
z"/>
<path fill="#E3E2E5" opacity="1.000000" stroke="none" 
	d="
M48.198772,8.150139 
	C59.769909,15.104427 64.108925,25.613731 61.805470,38.482300 
	C59.703060,50.227703 52.383633,58.361645 40.705238,61.119064 
	C35.466496,62.356007 29.641138,61.108505 24.029451,60.457718 
	C24.182146,59.684349 24.387367,59.441658 25.021772,59.261417 
	C30.489048,59.217861 35.527142,59.111855 40.494377,58.686188 
	C41.465405,57.567043 42.507290,56.767555 43.169918,56.271801 
	C45.539375,57.982025 47.440434,57.017071 47.947456,53.958313 
	C47.958538,53.952984 47.971973,53.932384 48.145439,54.341850 
	C49.200008,53.875183 50.081116,52.999046 50.986778,51.785133 
	C51.326351,50.634109 51.641373,49.820858 52.255474,49.130829 
	C53.129124,49.250038 53.855839,49.474560 54.255817,49.208286 
	C62.396095,43.789070 62.245480,21.946327 54.008015,16.595713 
	C53.569969,16.311182 52.607250,16.834400 51.639145,16.772808 
	C50.280693,14.700427 49.171883,12.836826 48.095665,10.503234 
	C48.151764,9.405541 48.175270,8.777840 48.198772,8.150139 
z"/>
<path fill="#E0DFE2" opacity="1.000000" stroke="none" 
	d="
M10.672050,51.857758 
	C3.675138,43.891247 2.223279,34.722706 5.254794,24.333570 
	C6.323752,23.965130 6.919564,23.947966 7.432469,24.458139 
	C7.918645,25.163324 8.487727,25.341171 9.028826,25.508762 
	C9.000844,25.498503 9.059703,25.512556 8.715693,25.126457 
	C5.214347,28.140926 5.104948,30.453289 8.122719,31.800426 
	C8.147230,32.894585 8.100601,33.694687 7.631859,34.215397 
	C6.844749,35.686680 5.763103,37.678886 6.255723,39.140507 
	C7.491083,42.805847 9.438961,46.231045 10.996496,50.279404 
	C10.818636,51.156754 10.745343,51.507256 10.672050,51.857758 
z"/>
<path fill="#E1E0E3" opacity="1.000000" stroke="none" 
	d="
M21.912256,5.746725 
	C29.053486,3.094789 36.176373,2.175066 43.597443,6.381155 
	C43.935886,7.252704 43.926193,7.715771 43.552734,8.043861 
	C36.268375,4.252467 29.157810,5.799897 22.027769,6.788852 
	C21.971170,6.209115 21.941713,5.977920 21.912256,5.746725 
z"/>
<path fill="#EFEEF0" opacity="1.000000" stroke="none" 
	d="
M8.205462,17.475140 
	C11.054765,14.478252 13.904069,11.481366 17.244717,8.574115 
	C17.852095,8.808175 17.968126,8.952600 17.971619,9.412827 
	C16.922377,11.107544 15.985674,12.486460 15.017351,14.213318 
	C13.989856,15.709579 12.993980,16.857897 11.621850,17.998636 
	C10.492574,17.992701 9.739553,17.994345 8.792887,17.863342 
	C8.599242,17.730698 8.205462,17.475140 8.205462,17.475140 
z"/>
<path fill="#DDDCDF" opacity="1.000000" stroke="none" 
	d="
M10.813831,52.129742 
	C10.745343,51.507256 10.818636,51.156754 11.263410,50.461327 
	C12.392498,50.353619 13.150106,50.590832 14.076092,51.066776 
	C14.538538,51.558636 14.832606,51.811764 15.089617,52.408775 
	C16.489498,54.154621 17.926437,55.556591 19.108631,57.097519 
	C18.568571,57.495228 18.283260,57.753975 17.997950,58.012722 
	C15.650503,56.142391 13.303058,54.272057 10.813831,52.129742 
z"/>
<path fill="#F4F3F2" opacity="1.000000" stroke="none" 
	d="
M7.515376,23.930803 
	C6.919564,23.947966 6.323752,23.965130 5.429235,23.982479 
	C6.017947,21.979744 6.905365,19.976824 7.999122,17.724522 
	C8.205462,17.475140 8.599242,17.730698 8.893826,18.131725 
	C9.453269,19.040482 9.718130,19.548214 9.716159,20.283840 
	C8.804676,21.651426 8.160026,22.791115 7.515376,23.930803 
z"/>
<path fill="#F2F1F0" opacity="1.000000" stroke="none" 
	d="
M43.916500,8.178838 
	C43.926193,7.715771 43.935886,7.252704 43.978565,6.443758 
	C45.210255,6.731328 46.408966,7.364776 47.903221,8.074182 
	C48.175270,8.777840 48.151764,9.405541 47.824677,10.512396 
	C47.340900,10.996269 47.160709,11.000988 46.739906,11.004936 
	C46.499298,11.004165 46.018856,11.031528 46.000954,10.743526 
	C45.971352,10.263507 45.959656,10.071490 45.846611,9.613689 
	C45.135677,8.958216 44.526089,8.568527 43.916500,8.178838 
z"/>
<path fill="#EFEEF0" opacity="1.000000" stroke="none" 
	d="
M21.589762,5.843911 
	C21.941713,5.977920 21.971170,6.209115 21.854065,7.072243 
	C20.499720,8.168459 19.291939,8.632741 18.084158,9.097024 
	C17.968126,8.952600 17.852095,8.808175 17.565392,8.444443 
	C18.685570,7.463789 19.976419,6.702444 21.589762,5.843911 
z"/>
<path fill="#E3E2E5" opacity="1.000000" stroke="none" 
	d="
M21.568802,59.887318 
	C20.747946,59.552246 19.927090,59.217171 19.141640,58.330421 
	C19.365440,57.562527 19.553835,57.346310 20.034698,57.207180 
	C21.037821,57.661533 21.748476,58.038795 22.226818,58.777985 
	C21.852608,59.389046 21.710705,59.638184 21.568802,59.887318 
z"/>
<path fill="#E3E2E5" opacity="1.000000" stroke="none" 
	d="
M23.660635,60.283745 
	C22.886938,60.481327 22.429531,60.322197 21.770464,60.025192 
	C21.710705,59.638184 21.852608,59.389046 22.503677,58.846008 
	C23.539427,58.767727 24.066008,58.983349 24.592590,59.198967 
	C24.387367,59.441658 24.182146,59.684349 23.660635,60.283745 
z"/>
<path fill="#E3E2E5" opacity="1.000000" stroke="none" 
	d="
M18.119774,58.162998 
	C18.283260,57.753975 18.568571,57.495228 19.222366,57.098309 
	C19.590851,56.960136 19.742228,57.130093 19.742228,57.130093 
	C19.553835,57.346310 19.365440,57.562527 18.894226,58.102875 
	C18.611408,58.427010 18.241596,58.313274 18.119774,58.162998 
z"/>
<path fill="#F4F3F2" opacity="1.000000" stroke="none" 
	d="
M46.980515,11.005707 
	C47.160709,11.000988 47.340900,10.996269 47.792084,10.982388 
	C49.171883,12.836826 50.280693,14.700427 51.769825,17.101833 
	C59.931412,27.768024 59.866058,38.349033 51.956398,49.007607 
	C51.641373,49.820858 51.326351,50.634109 50.633339,51.677303 
	C49.494225,52.582291 48.733097,53.257339 47.971973,53.932384 
	C47.971973,53.932384 47.958538,53.952984 47.613464,53.794174 
	C46.028652,54.412930 44.788914,55.190498 43.549171,55.968063 
	C42.507290,56.767555 41.465405,57.567043 40.704941,58.136238 
	C40.563549,57.684830 40.090736,57.208450 39.725246,57.280037 
	C31.174818,58.954639 23.473438,57.136467 16.549444,51.856037 
	C16.283154,51.652958 15.610156,51.983177 15.126675,52.064892 
	C14.832606,51.811764 14.538538,51.558636 14.164345,50.710327 
	C12.074138,44.908360 10.064055,39.701572 8.053972,34.494785 
	C8.100601,33.694687 8.147230,32.894585 8.154440,31.366428 
	C8.429915,28.929768 8.744809,27.221161 9.059702,25.512556 
	C9.059703,25.512556 9.000844,25.498503 9.175425,25.203815 
	C9.623360,24.051455 9.896714,23.193779 10.416109,22.128654 
	C10.729609,21.295612 10.797069,20.670023 11.124650,19.984308 
	C11.589216,19.284861 11.793661,18.645538 11.998105,18.006214 
	C12.993980,16.857897 13.989856,15.709579 15.381603,14.297050 
	C16.378288,13.842589 17.076941,13.789594 17.565241,13.441511 
	C24.951277,8.176408 32.790516,6.319561 41.543655,9.809909 
	C42.818325,10.318188 44.470478,9.879808 45.947960,9.879474 
	C45.959656,10.071490 45.971352,10.263507 46.034752,10.926785 
	C46.384472,11.267265 46.682491,11.136487 46.980515,11.005707 
M25.847462,27.815857 
	C26.655113,33.806065 26.977766,39.695034 21.071709,44.470169 
	C24.066557,45.009972 25.805670,45.323433 27.369911,45.605377 
	C27.878057,47.357052 28.295851,48.797264 28.713644,50.237476 
	C29.151703,50.260128 29.589760,50.282776 30.027819,50.305428 
	C30.618963,48.705688 31.210110,47.105949 32.133797,44.606300 
	C33.141464,47.086319 33.794746,48.694141 34.667645,50.842480 
	C36.415356,48.403118 37.700279,46.609688 39.708229,44.824368 
	C41.273754,43.970913 43.166775,43.433304 44.347645,42.208874 
	C49.244991,37.130852 41.091846,32.219109 43.886440,26.911625 
	C44.227257,26.264360 42.644272,24.443138 41.725029,23.359175 
	C41.242382,22.790039 40.126007,22.794342 39.542637,22.266762 
	C38.484581,21.309889 37.558884,20.189562 36.678993,19.058828 
	C36.097565,18.311649 35.692574,17.427181 34.732197,15.794092 
	C33.677841,18.410084 33.037766,19.998198 32.237061,21.984848 
	C31.126759,19.751774 30.352098,18.193754 29.577438,16.635735 
	C29.203356,16.775513 28.829275,16.915291 28.455194,17.055069 
	C28.087362,18.584797 27.719530,20.114523 27.383947,21.510132 
	C25.374580,21.826166 23.680552,22.092604 20.768539,22.550608 
	C23.106874,24.533039 24.553564,25.759537 25.847462,27.815857 
z"/>
<path fill="#605B6A" opacity="1.000000" stroke="none" 
	d="
M52.255478,49.130829 
	C59.866058,38.349033 59.931412,27.768024 52.019463,17.310616 
	C52.607250,16.834400 53.569969,16.311182 54.008015,16.595713 
	C62.245480,21.946327 62.396095,43.789070 54.255817,49.208286 
	C53.855839,49.474560 53.129124,49.250038 52.255478,49.130829 
z"/>
<path fill="#635F6E" opacity="1.000000" stroke="none" 
	d="
M15.089617,52.408775 
	C15.610156,51.983177 16.283154,51.652958 16.549444,51.856037 
	C23.473438,57.136467 31.174818,58.954639 39.725246,57.280037 
	C40.090736,57.208450 40.563549,57.684830 40.775803,58.455894 
	C35.527142,59.111855 30.489048,59.217861 25.021772,59.261421 
	C24.066008,58.983349 23.539427,58.767727 22.735989,58.484085 
	C21.748476,58.038795 21.037821,57.661533 20.034698,57.207180 
	C19.742228,57.130093 19.590851,56.960136 19.477114,56.959351 
	C17.926437,55.556591 16.489498,54.154621 15.089617,52.408775 
z"/>
<path fill="#635F6E" opacity="1.000000" stroke="none" 
	d="
M43.169918,56.271801 
	C44.788914,55.190498 46.028652,54.412930 47.602386,53.799500 
	C47.440434,57.017071 45.539375,57.982025 43.169918,56.271801 
z"/>
<path fill="#635F6E" opacity="1.000000" stroke="none" 
	d="
M48.145439,54.341850 
	C48.733097,53.257339 49.494225,52.582291 50.608788,52.015076 
	C50.081116,52.999046 49.200008,53.875183 48.145439,54.341850 
z"/>
<path fill="#625E6D" opacity="1.000000" stroke="none" 
	d="
M7.631859,34.215397 
	C10.064055,39.701572 12.074138,44.908360 13.995968,50.471596 
	C13.150106,50.590832 12.392498,50.353619 11.367976,49.934479 
	C9.438961,46.231045 7.491083,42.805847 6.255723,39.140507 
	C5.763103,37.678886 6.844749,35.686680 7.631859,34.215397 
z"/>
<path fill="#625E6D" opacity="1.000000" stroke="none" 
	d="
M8.715693,25.126457 
	C8.744809,27.221161 8.429915,28.929768 8.083301,31.072369 
	C5.104948,30.453289 5.214347,28.140926 8.715693,25.126457 
z"/>
<path fill="#625E6D" opacity="1.000000" stroke="none" 
	d="
M10.170069,22.336105 
	C9.896714,23.193779 9.623360,24.051455 9.203407,25.214073 
	C8.487727,25.341171 7.918645,25.163324 7.432469,24.458139 
	C8.160026,22.791115 8.804676,21.651426 9.652353,20.453066 
	C9.855380,20.394394 9.853095,20.756104 9.902607,21.019543 
	C10.024768,21.634024 10.097419,21.985064 10.170069,22.336105 
z"/>
<path fill="#5F5A6A" opacity="1.000000" stroke="none" 
	d="
M45.846611,9.613689 
	C44.470478,9.879808 42.818325,10.318188 41.543655,9.809909 
	C32.790516,6.319561 24.951277,8.176408 17.565241,13.441511 
	C17.076941,13.789594 16.378288,13.842589 15.413223,13.949107 
	C15.985674,12.486460 16.922377,11.107544 17.971619,9.412827 
	C19.291939,8.632741 20.499720,8.168459 21.881207,7.420785 
	C29.157810,5.799897 36.268375,4.252467 43.552734,8.043861 
	C44.526089,8.568527 45.135677,8.958216 45.846611,9.613689 
z"/>
<path fill="#E0DFE2" opacity="1.000000" stroke="none" 
	d="
M11.621850,17.998636 
	C11.793661,18.645538 11.589216,19.284861 10.829351,20.101906 
	C10.133654,20.438454 9.993375,20.597279 9.853095,20.756104 
	C9.853095,20.756104 9.855380,20.394394 9.919186,20.225170 
	C9.718130,19.548214 9.453269,19.040482 9.087470,18.264370 
	C9.739553,17.994345 10.492574,17.992701 11.621850,17.998636 
z"/>
<path fill="#E3E2E5" opacity="1.000000" stroke="none" 
	d="
M46.739906,11.004936 
	C46.682491,11.136487 46.384472,11.267265 46.052650,11.214787 
	C46.018856,11.031528 46.499298,11.004165 46.739906,11.004936 
z"/>
<path fill="#F0984A" opacity="1.000000" stroke="none" 
	d="
M26.000254,26.986034 
	C24.553564,25.759537 23.106874,24.533039 20.768539,22.550608 
	C23.680552,22.092604 25.374580,21.826166 27.383947,21.510132 
	C27.719530,20.114523 28.087362,18.584797 28.455194,17.055069 
	C28.829275,16.915291 29.203356,16.775513 29.577438,16.635735 
	C30.352098,18.193754 31.126759,19.751774 32.237061,21.984848 
	C33.037766,19.998198 33.677841,18.410084 34.732197,15.794092 
	C35.692574,17.427181 36.097565,18.311649 36.678993,19.058828 
	C37.558884,20.189562 38.484581,21.309889 39.542637,22.266762 
	C40.126007,22.794342 41.242382,22.790039 41.725029,23.359175 
	C42.644272,24.443138 44.227257,26.264360 43.886440,26.911625 
	C41.091846,32.219109 49.244991,37.130852 44.347645,42.208874 
	C43.166775,43.433304 41.273754,43.970913 39.169411,44.586304 
	C37.760460,43.342220 36.890327,42.336197 36.350155,41.202534 
	C41.006706,39.242058 40.600513,37.152824 36.775940,34.645950 
	C35.949123,33.455402 35.361473,32.510258 35.068790,31.366123 
	C36.250721,30.036715 37.137688,28.906294 38.024651,27.775875 
	C36.539139,26.964947 35.049458,25.555527 33.569675,25.565844 
	C32.671066,25.572111 31.787752,27.772255 30.558323,28.966625 
	C28.812805,28.292952 27.406530,27.639492 26.000254,26.986034 
z"/>
<path fill="#F4AC59" opacity="1.000000" stroke="none" 
	d="
M36.020195,41.330173 
	C36.890327,42.336197 37.760460,43.342220 38.807899,44.582253 
	C37.700279,46.609688 36.415356,48.403118 34.667645,50.842480 
	C33.794746,48.694141 33.141464,47.086319 32.133797,44.606300 
	C31.210110,47.105949 30.618963,48.705688 30.027819,50.305428 
	C29.589760,50.282776 29.151703,50.260128 28.713644,50.237476 
	C28.295851,48.797264 27.878057,47.357052 27.369911,45.605377 
	C25.805670,45.323433 24.066557,45.009972 21.071709,44.470169 
	C26.977766,39.695034 26.655113,33.806065 25.923859,27.400946 
	C27.406530,27.639492 28.812805,28.292952 30.625347,29.312601 
	C32.279015,30.307566 33.526417,30.936338 34.773823,31.565109 
	C35.361473,32.510258 35.949123,33.455402 36.365845,34.654518 
	C30.261099,34.824333 30.261099,34.824333 31.770061,41.094860 
	C33.125942,41.169930 34.573071,41.250050 36.020195,41.330173 
z"/>
<path fill="#736D7D" opacity="1.000000" stroke="none" 
	d="
M9.902607,21.019543 
	C9.993375,20.597279 10.133654,20.438454 10.569229,20.162029 
	C10.797069,20.670023 10.729609,21.295612 10.416109,22.128654 
	C10.097419,21.985064 10.024768,21.634024 9.902607,21.019543 
z"/>
<path fill="#F6F3F1" opacity="1.000000" stroke="none" 
	d="
M36.350155,41.202534 
	C34.573071,41.250050 33.125942,41.169930 31.770061,41.094860 
	C30.261099,34.824333 30.261099,34.824333 36.605015,34.899918 
	C40.600513,37.152824 41.006706,39.242058 36.350155,41.202534 
z"/>
<path fill="#F5EDE6" opacity="1.000000" stroke="none" 
	d="
M35.068790,31.366123 
	C33.526417,30.936338 32.279015,30.307566 30.964588,29.332817 
	C31.787752,27.772255 32.671066,25.572111 33.569675,25.565844 
	C35.049458,25.555527 36.539139,26.964947 38.024651,27.775875 
	C37.137688,28.906294 36.250721,30.036715 35.068790,31.366123 
z"/>
</svg>